<svg width="24" height="27" fill="none" xmlns="http://www.w3.org/2000/svg"><path d="M9.145 25.002c4.586-4.61 8.173-8.297 12.163-12.253 1.317-1.391 2.152-2.753 2.503-4.085.615-2.513-.33-4.69-1.976-6.393C20.255.673 18.564-.082 16.763.007c-1.8.089-3.578 1.006-5.335 2.753L.231 14.125l1.844 1.82 11.197-11.32c1.15-1.105 2.517-2.147 4.084-1.999 2.388.34 4.497 3.295 3.952 5.372-.691 1.844-1.645 2.684-2.964 4.018-4.013 4.048-7.142 7.177-11.043 11.121-1.466 1.355-2.415 1.722-3.777.444-.702-.71-1.01-1.405-.922-2.086.098-.794.542-1.344 1.054-1.865L13.887 9.286c.468-.474 1.532-1.382 1.976-.977.34.8-.537 1.562-.966 1.998l-9.397 9.5 1.8 1.865 9.441-9.5c1.627-1.696 2.795-3.768.966-5.683-2.022-1.755-4.152-.583-5.664.932L1.812 17.766C.758 18.83.158 19.985.012 21.229c-.116 1.742.661 3.141 1.712 4.217.988.993 2.055 1.543 3.381 1.554 1.595-.065 3.163-1.127 4.04-1.998z" fill="#000"/></svg>