<svg width="36" height="36" fill="none" xmlns="http://www.w3.org/2000/svg"><path d="M18 36c9.941 0 18-8.059 18-18S27.941 0 18 0 0 8.059 0 18s8.059 18 18 18z" fill="#6BC45A"/><path d="M29.25 17.71c0 6.054-4.945 10.96-11.045 10.96-1.937 0-3.756-.495-5.34-1.363L6.75 29.25l1.993-5.88a10.847 10.847 0 01-1.584-5.66c0-6.053 4.945-10.96 11.046-10.96 6.1 0 11.045 4.907 11.045 10.96zM18.205 8.495c-5.121 0-9.287 4.134-9.287 9.215 0 2.016.657 3.883 1.769 5.402l-1.16 3.422 3.568-1.134a9.278 9.278 0 005.109 1.524c5.12 0 9.287-4.134 9.287-9.215 0-5.08-4.166-9.214-9.286-9.214zm5.577 11.74c-.069-.113-.248-.18-.52-.314-.27-.134-1.602-.785-1.85-.874-.248-.09-.428-.134-.61.134-.18.27-.698.874-.857 1.053-.158.18-.315.202-.586.068-.27-.134-1.143-.418-2.177-1.334-.805-.712-1.349-1.59-1.506-1.86-.159-.268-.017-.414.118-.547.122-.121.271-.314.407-.47.136-.158.18-.27.27-.449.091-.18.046-.336-.022-.471-.068-.134-.61-1.457-.835-1.994-.226-.538-.45-.448-.609-.448-.158 0-.338-.022-.519-.022a1 1 0 00-.722.335c-.248.27-.947.92-.947 2.24 0 1.323.97 2.6 1.105 2.78.135.178 1.873 2.98 4.625 4.055 2.753 1.076 2.753.717 3.25.672.495-.045 1.6-.65 1.827-1.277.225-.628.225-1.166.158-1.278z" fill="#fff"/></svg>