<svg width="36" height="36" fill="inherit" xmlns="http://www.w3.org/2000/svg"><path d="M18 0C8.059 0 0 8.059 0 18s8.059 18 18 18 18-8.059 18-18S27.941 0 18 0zm-6.469 7.15c.371-.022.706.2.96.593l2.461 4.667c.26.553.112 1.145-.274 1.54l-1.128 1.128a.552.552 0 00-.116.32c.432 1.674 1.744 3.217 2.9 4.279 1.157 1.06 2.4 2.498 4.015 2.838.2.056.444.076.587-.057l1.31-1.333c.451-.343 1.105-.51 1.588-.229h.022l4.44 2.621c.652.409.72 1.199.253 1.68l-3.058 3.034c-.452.463-1.052.618-1.635.62-2.579-.078-5.015-1.344-7.016-2.644-3.285-2.39-6.298-5.354-8.19-8.934-.725-1.502-1.577-3.418-1.496-5.093.008-.631.178-1.249.622-1.655l3.059-3.059c.238-.202.474-.303.696-.316z"/></svg>