<svg width="36" height="36" fill="none" xmlns="http://www.w3.org/2000/svg"><path d="M18 0C8.059 0 0 8.059 0 18s8.059 18 18 18 18-8.059 18-18S27.941 0 18 0z" fill="#40B3E0"/><path d="M26.759 10.354l-3.216 16.21s-.45 1.124-1.686.584l-7.419-5.688-2.697-1.304-4.542-1.528s-.697-.248-.764-.787c-.068-.54.787-.832.787-.832l18.052-7.082s1.484-.652 1.484.427" fill="#fff"/><path d="M13.868 26.382s-.216-.02-.486-.875c-.27-.854-1.641-5.35-1.641-5.35l10.903-6.925s.63-.382.607 0c0 0 .113.067-.225.382-.337.315-8.565 7.711-8.565 7.711" fill="#D2E5F1"/><path d="M17.283 23.641l-2.935 2.676s-.229.174-.48.065l.562-4.97" fill="#B5CFE4"/></svg>