<svg viewBox="0 0 52 39" xmlns="http://www.w3.org/2000/svg" xmlns:xlink="http://www.w3.org/1999/xlink"><style>:root&gt;svg{display:none}:root&gt;svg:target{display:block}</style><svg fill="none" viewBox="0 0 17 11" id="arrow-bottom" xmlns="http://www.w3.org/2000/svg"><path d="M15 2L9.233 8.21a1 1 0 01-1.466 0L2 2" stroke="inherit" stroke-width="3" stroke-linecap="round"/></svg><svg viewBox="0 0 25 16" id="arrow-next" xmlns="http://www.w3.org/2000/svg"><path d="M1 7a1 1 0 000 2V7zm23.707 1.707a1 1 0 000-1.414L18.343.929a1 1 0 10-1.414 1.414L22.586 8l-5.657 5.657a1 1 0 001.414 1.414l6.364-6.364zM1 9h23V7H1v2z"/></svg><svg viewBox="0 0 25 16" id="arrow-prev" xmlns="http://www.w3.org/2000/svg"><path d="M.293 7.293a1 1 0 000 1.414l6.364 6.364a1 1 0 001.414-1.414L2.414 8l5.657-5.657A1 1 0 006.657.93L.293 7.293zM24 9a1 1 0 100-2v2zM1 9h23V7H1v2z"/></svg><svg fill="none" viewBox="0 0 17 11" id="arrow-top" xmlns="http://www.w3.org/2000/svg"><path d="M15 9L9.233 2.79a1 1 0 00-1.466 0L2 9" stroke="inherit" stroke-width="3" stroke-linecap="round"/></svg><svg fill="none" viewBox="0 0 24 27" id="attach-file" xmlns="http://www.w3.org/2000/svg"><path d="M9.145 25.002c4.586-4.61 8.173-8.297 12.163-12.253 1.317-1.391 2.152-2.753 2.503-4.085.615-2.513-.33-4.69-1.976-6.393C20.255.673 18.564-.082 16.763.007c-1.8.089-3.578 1.006-5.335 2.753L.231 14.125l1.844 1.82 11.197-11.32c1.15-1.105 2.517-2.147 4.084-1.999 2.388.34 4.497 3.295 3.952 5.372-.691 1.844-1.645 2.684-2.964 4.018-4.013 4.048-7.142 7.177-11.043 11.121-1.466 1.355-2.415 1.722-3.777.444-.702-.71-1.01-1.405-.922-2.086.098-.794.542-1.344 1.054-1.865L13.887 9.286c.468-.474 1.532-1.382 1.976-.977.34.8-.537 1.562-.966 1.998l-9.397 9.5 1.8 1.865 9.441-9.5c1.627-1.696 2.795-3.768.966-5.683-2.022-1.755-4.152-.583-5.664.932L1.812 17.766C.758 18.83.158 19.985.012 21.229c-.116 1.742.661 3.141 1.712 4.217.988.993 2.055 1.543 3.381 1.554 1.595-.065 3.163-1.127 4.04-1.998z" fill="#000"/></svg><svg viewBox="0 0 52 16" id="btn-next" xmlns="http://www.w3.org/2000/svg"><path d="M1.5 7a1 1 0 000 2V7zm50.207 1.707a1 1 0 000-1.414L45.343.929a1 1 0 10-1.414 1.414L49.586 8l-5.657 5.657a1 1 0 001.414 1.414l6.364-6.364zM1.5 9H51V7H1.5v2z"/></svg><svg viewBox="0 0 51 16" id="btn-prev" xmlns="http://www.w3.org/2000/svg"><path d="M.293 7.293a1 1 0 000 1.414l6.364 6.364a1 1 0 001.414-1.414L2.414 8l5.657-5.657A1 1 0 006.657.93L.293 7.293zM1 9h49.5V7H1v2z"/></svg><svg aria-hidden="true" viewBox="0 0 1024 1024" id="calc-arrow" xmlns="http://www.w3.org/2000/svg"><path d="M452.864 149.312a29.12 29.12 0 0141.728.064L826.24 489.664a32 32 0 010 44.672L494.592 874.624a29.12 29.12 0 01-41.728 0 30.592 30.592 0 010-42.752L764.736 512 452.864 192a30.592 30.592 0 010-42.688zm-256 0a29.12 29.12 0 0141.728.064L570.24 489.664a32 32 0 010 44.672L238.592 874.624a29.12 29.12 0 01-41.728 0 30.592 30.592 0 010-42.752L508.736 512 196.864 192a30.592 30.592 0 010-42.688z"/></svg><svg fill="inherit" viewBox="0 0 21 22" id="circle-checked" xmlns="http://www.w3.org/2000/svg"><path d="M10.5.5C4.701.5 0 5.201 0 11s4.701 10.5 10.5 10.5S21 16.799 21 11 16.299.5 10.5.5zm0 2.281a8.218 8.218 0 11-.002 16.437A8.218 8.218 0 0110.5 2.78zm4.023 3.233l-6.085 6.087-1.974-1.974-1.937 1.936 1.974 1.973 1.95 1.95 1.935-1.937 6.087-6.085-1.95-1.95z"/></svg><svg viewBox="0 0 33 39" id="play" xmlns="http://www.w3.org/2000/svg"><path d="M33 19.5L.75 38.12V.88L33 19.5z"/></svg><svg fill="inherit" viewBox="0 0 36 36" id="social-phone" xmlns="http://www.w3.org/2000/svg"><path d="M18 0C8.059 0 0 8.059 0 18s8.059 18 18 18 18-8.059 18-18S27.941 0 18 0zm-6.469 7.15c.371-.022.706.2.96.593l2.461 4.667c.26.553.112 1.145-.274 1.54l-1.128 1.128a.552.552 0 00-.116.32c.432 1.674 1.744 3.217 2.9 4.279 1.157 1.06 2.4 2.498 4.015 2.838.2.056.444.076.587-.057l1.31-1.333c.451-.343 1.105-.51 1.588-.229h.022l4.44 2.621c.652.409.72 1.199.253 1.68l-3.058 3.034c-.452.463-1.052.618-1.635.62-2.579-.078-5.015-1.344-7.016-2.644-3.285-2.39-6.298-5.354-8.19-8.934-.725-1.502-1.577-3.418-1.496-5.093.008-.631.178-1.249.622-1.655l3.059-3.059c.238-.202.474-.303.696-.316z"/></svg><svg fill="none" viewBox="0 0 36 36" id="social-telegram" xmlns="http://www.w3.org/2000/svg"><path d="M18 0C8.059 0 0 8.059 0 18s8.059 18 18 18 18-8.059 18-18S27.941 0 18 0z" fill="#40B3E0"/><path d="M26.759 10.354l-3.216 16.21s-.45 1.124-1.686.584l-7.419-5.688-2.697-1.304-4.542-1.528s-.697-.248-.764-.787c-.068-.54.787-.832.787-.832l18.052-7.082s1.484-.652 1.484.427" fill="#fff"/><path d="M13.868 26.382s-.216-.02-.486-.875c-.27-.854-1.641-5.35-1.641-5.35l10.903-6.925s.63-.382.607 0c0 0 .113.067-.225.382-.337.315-8.565 7.711-8.565 7.711" fill="#D2E5F1"/><path d="M17.283 23.641l-2.935 2.676s-.229.174-.48.065l.562-4.97" fill="#B5CFE4"/></svg><svg fill="none" viewBox="0 0 36 36" id="social-whatsapp" xmlns="http://www.w3.org/2000/svg"><path d="M18 36c9.941 0 18-8.059 18-18S27.941 0 18 0 0 8.059 0 18s8.059 18 18 18z" fill="#6BC45A"/><path d="M29.25 17.71c0 6.054-4.945 10.96-11.045 10.96-1.937 0-3.756-.495-5.34-1.363L6.75 29.25l1.993-5.88a10.847 10.847 0 01-1.584-5.66c0-6.053 4.945-10.96 11.046-10.96 6.1 0 11.045 4.907 11.045 10.96zM18.205 8.495c-5.121 0-9.287 4.134-9.287 9.215 0 2.016.657 3.883 1.769 5.402l-1.16 3.422 3.568-1.134a9.278 9.278 0 005.109 1.524c5.12 0 9.287-4.134 9.287-9.215 0-5.08-4.166-9.214-9.286-9.214zm5.577 11.74c-.069-.113-.248-.18-.52-.314-.27-.134-1.602-.785-1.85-.874-.248-.09-.428-.134-.61.134-.18.27-.698.874-.857 1.053-.158.18-.315.202-.586.068-.27-.134-1.143-.418-2.177-1.334-.805-.712-1.349-1.59-1.506-1.86-.159-.268-.017-.414.118-.547.122-.121.271-.314.407-.47.136-.158.18-.27.27-.449.091-.18.046-.336-.022-.471-.068-.134-.61-1.457-.835-1.994-.226-.538-.45-.448-.609-.448-.158 0-.338-.022-.519-.022a1 1 0 00-.722.335c-.248.27-.947.92-.947 2.24 0 1.323.97 2.6 1.105 2.78.135.178 1.873 2.98 4.625 4.055 2.753 1.076 2.753.717 3.25.672.495-.045 1.6-.65 1.827-1.277.225-.628.225-1.166.158-1.278z" fill="#fff"/></svg><svg viewBox="0 0 24 22" id="star" xmlns="http://www.w3.org/2000/svg"><path d="M11.075 1.633c.32-.844 1.532-.844 1.853 0l2.07 5.734a.99.99 0 00.926.633h5.087c.94 0 1.35 1.17.61 1.743L18.002 13a.968.968 0 00-.322 1.092l1.323 5.603c.322.9-.72 1.673-1.508 1.119l-4.918-3.12a1 1 0 00-1.15 0l-4.916 3.12c-.787.554-1.83-.22-1.508-1.12l1.322-5.602A.968.968 0 006.002 13l-3.62-3.257C1.642 9.17 2.054 8 2.992 8h5.087a.99.99 0 00.926-.633l2.07-5.734z"/></svg><svg fill="none" viewBox="0 0 32 19" id="triangle-down" xmlns="http://www.w3.org/2000/svg"><path d="M30 2L16.731 16.217a1 1 0 01-1.462 0L2 2" stroke="#373738" stroke-width="3" stroke-linecap="round"/></svg></svg>