<svg width="25" height="25" fill="none" xmlns="http://www.w3.org/2000/svg"><path d="M24.772 8.587l-.55-.55a.78.78 0 00-1.103 0L18.754 12.4V.788a.78.78 0 00-.781-.781H6.256c-.265 0-.529-.047-.684.108L.115 5.571c-.155.156-.108.394-.108.684v17.964c0 .431.35.781.78.781h17.186a.78.78 0 00.78-.781v-8.513l6.019-6.018a.779.779 0 000-1.101zM5.475 1.337v4.137H1.338l4.137-4.136zM17.973 24.22H.788V6.255h5.077a.39.39 0 00.39-.39V.787h11.718v12.394l-3.3 3.3a.38.38 0 00-.215-.073H4.303a.39.39 0 000 .781h9.662l-2.347 2.347a.36.36 0 00-.307.277l-.327 1.432a.391.391 0 00-.03.308c.01.038.033.07.053.102l.008.015a.42.42 0 00.062.07.446.446 0 00.07.062l.017.009c.032.02.063.042.1.053a.39.39 0 00.309-.03l1.432-.327a.36.36 0 00.281-.335l4.687-4.686v7.732zm-5.37-3.465l-.699.16.167-.73L23.67 8.587l.55.55-11.617 11.617zM4.302 9.38h10.154a.39.39 0 000-.78H4.302a.39.39 0 000 .78zm0 3.905h10.154a.39.39 0 000-.78H4.302a.39.39 0 000 .78z" fill="#FFAA6B"/></svg>