<svg width="30" height="30" fill="none" xmlns="http://www.w3.org/2000/svg"><mask id="mask0_524_1030" style="mask-type:luminance" maskUnits="userSpaceOnUse" x="0" y="0" width="30" height="30"><path d="M30 0H0v30h30V0z" fill="#fff"/></mask><g mask="url(#mask0_524_1030)"><path d="M21.75 17.7c4.538 0 8.25-3.696 8.25-8.25S26.288 1.2 21.75 1.2a8.253 8.253 0 00-8.25 8.25 8.253 8.253 0 008.25 8.25z" fill="#299400"/><path d="M21.832 4.005c2.752 0 4.62 2.096 4.62 4.356 0 .908-.2 1.7-.667 2.69-2.735 0-3.235 1.798-3.352 3.002l-.083 1.007h-1.035l-.083-1.007c-.117-1.204-.617-3.003-3.353-3.003-.466-.99-.667-1.781-.667-2.689 0-2.26 1.868-4.356 4.62-4.356z" fill="#fff"/><path d="M12.825 10.5a7.93 7.93 0 00-4.375 1.316 7.818 7.818 0 00-2.9 3.499 7.731 7.731 0 00-.45 4.505 7.777 7.777 0 002.153 3.994c1.426 1.412 4.784 3.456 4.982 5.603.03.32.266.583.59.583.323 0 .56-.262.589-.583.198-2.147 3.553-4.187 4.979-5.599a7.778 7.778 0 002.155-3.994 7.731 7.731 0 00-.447-4.507 7.82 7.82 0 00-2.9-3.5 7.935 7.935 0 00-4.377-1.317zm0 10.468a2.718 2.718 0 01-1.906-.781 2.665 2.665 0 01-.79-1.887 2.645 2.645 0 01.79-1.887 2.698 2.698 0 011.905-.781c.715 0 1.4.28 1.906.781.505.5.79 1.18.79 1.887 0 .708-.285 1.386-.79 1.887-.505.5-1.19.781-1.905.781z" fill="#F43"/><path d="M14.508 7.648c0-.507-.04-1.019-.129-1.518H7.327v2.879h4.038a3.46 3.46 0 01-1.494 2.271v1.868h2.41c1.414-1.301 2.227-3.225 2.227-5.5z" fill="#2A84FC"/><path d="M7.477 14.953c2.016 0 3.717-.661 4.956-1.804l-2.41-1.868c-.67.455-1.535.713-2.544.713-1.95 0-3.604-1.315-4.197-3.084H.795v1.926a7.477 7.477 0 006.682 4.117z" fill="#00AC47"/><path d="M3.28 8.91a4.478 4.478 0 010-2.863V4.12H.794a7.483 7.483 0 000 6.715L3.28 8.909z" fill="#FFBA00"/><path d="M7.477 2.96a4.062 4.062 0 012.868 1.12l2.135-2.135A7.185 7.185 0 007.477.001 7.475 7.475 0 00.795 4.12L3.28 6.047C3.87 4.276 5.526 2.96 7.477 2.96z" fill="#FC2C25"/></g></svg>