<svg width="25" height="25" fill="none" xmlns="http://www.w3.org/2000/svg"><path d="M18.79 19.043l-2.97-1.445-.976-.47v-.312c1.094-.742 2.304-2.187 3.32-4.902.527-.02.977-.254 1.25-.644a1.63 1.63 0 00.156-1.602 1.435 1.435 0 00-.312-.43h.469V7.363l-.84-.234v-.117a6.366 6.366 0 00-3.575-5.723.985.985 0 00-.957-.742h-1.464V.195h-.782v.332h-1.464a.985.985 0 00-.957.743 6.388 6.388 0 00-3.575 5.722v.117l-.84.254v1.875h.47a1.35 1.35 0 00-.313.43 1.627 1.627 0 00.156 1.602c.293.41.742.625 1.25.644 1.016 2.715 2.246 4.14 3.32 4.902v.313l-.722.351-3.223 1.563c-.8.39-1.328 1.21-1.328 2.11v3.456h15.234v-3.457c0-.898-.527-1.718-1.328-2.109zm-4.747-1.406c-.02.097-.04.175-.059.273v.02c-.02.039-.02.058-.039.097 0 .02-.02.04-.02.059-.019.02-.019.039-.038.059-.02.039-.04.078-.059.097v.02c-.176.254-.41.449-.683.566h-.02a.277.277 0 01-.117.04h-.02c-.039.019-.078.019-.117.019h-.039c-.039 0-.078.02-.117.02h-.195c-.86 0-1.563-.704-1.563-1.563v-.117a3.74 3.74 0 001.563.351 3.74 3.74 0 001.562-.351v.156a.767.767 0 00-.039.254zm4.746-6.817a.74.74 0 01-.352.274c.098-.43.176-.899.215-1.328a.462.462 0 01.215.254.794.794 0 01-.078.8zM6.055 7.95l.84-.235v-.703a5.634 5.634 0 012.753-4.824V4.53h.782V1.523c0-.117.097-.214.215-.214h1.464V5.8h.782V1.309h1.464c.118 0 .215.097.215.214v2.989h.782V2.168a5.592 5.592 0 012.753 4.824v.703l.84.235v.508H6.055v-.489zm.156 2.87a.794.794 0 01-.078-.8c.058-.098.117-.196.215-.254.039.488.136.918.234 1.328a.803.803 0 01-.371-.274zm1.27.586c-.176-.644-.352-1.328-.391-2.168h10.82c-.02.625-.156 1.563-.37 2.149-1.759 4.902-4.102 5.43-5.04 5.43-.918.019-3.262-.508-5.02-5.41zm11.855 12.422h-1.758v-.586h-.781v.586H8.203v-.586h-.781v.586H5.664v-2.676c0-.605.352-1.152.879-1.406l3.691-1.777c0 .02.02.039.02.058 0 .02.02.059.02.078.019.04.039.098.058.137 0 .02.02.04.02.059.02.058.058.117.078.156 0 0 0 .02.02.02l.116.175c.02.02.02.04.04.059.019.039.058.078.097.117l.059.059c.02.039.058.058.097.097l.059.059.098.098.058.058c.04.04.078.059.117.098.02.02.04.02.04.039l.175.117c.02 0 .02.02.04.02.058.02.097.058.156.078.02.02.039.02.078.02.039.019.078.038.136.038.02 0 .059.02.079.02.039.02.097.02.136.039.02 0 .059.02.078.02.04 0 .098.019.157.019h.078c.078 0 .156.02.215.02h.214c.04 0 .079 0 .098-.02.04 0 .059 0 .098-.02a.35.35 0 00.136-.039c.02 0 .04 0 .06-.02.058-.019.097-.038.155-.038.02 0 .02 0 .04-.02.058-.02.117-.039.156-.058h.02c.058-.02.116-.059.155-.078.059-.04.098-.059.157-.098.058-.04.097-.059.136-.098 0 0 .02 0 .02-.02.039-.038.078-.077.117-.097l.02-.02.097-.097c.02-.02.04-.04.04-.059.019-.02.038-.058.077-.078.02-.039.06-.058.079-.098.02-.019.02-.038.039-.038.156-.215.273-.47.332-.743l3.672 1.778c.546.254.878.82.878 1.406v2.656h-.02z" fill="#FFAA6B"/><path d="M16.7 7.031H8.3v.782h8.4V7.03z" fill="#FFAA6B"/></svg>