<svg width="26" height="26" fill="none" xmlns="http://www.w3.org/2000/svg"><path d="M19.54 19.805l-3.087-1.503-1.015-.488v-.325c1.137-.772 2.396-2.275 3.453-5.098.548-.02 1.015-.264 1.3-.67a1.692 1.692 0 00.162-1.666 1.491 1.491 0 00-.325-.447h.488v-1.95l-.874-.244v-.122a6.62 6.62 0 00-3.717-5.951 1.024 1.024 0 00-.995-.772h-1.524V.203h-.812v.345H11.07c-.487 0-.873.325-.995.772a6.643 6.643 0 00-3.717 5.952v.122l-.874.264v1.95h.488a1.405 1.405 0 00-.325.447 1.692 1.692 0 00.162 1.665c.305.427.772.65 1.3.67 1.057 2.824 2.336 4.307 3.454 5.1v.324l-.752.366-3.352 1.625a2.456 2.456 0 00-1.38 2.193v3.596h15.843v-3.596c0-.934-.549-1.787-1.381-2.193zm-4.935-1.463c-.02.102-.04.183-.061.285v.02c-.02.04-.02.06-.04.101 0 .02-.021.041-.021.061-.02.02-.02.041-.04.061-.021.04-.041.082-.062.102v.02a1.663 1.663 0 01-.71.59h-.021a.289.289 0 01-.122.04h-.02c-.04.02-.081.02-.122.02h-.04c-.041 0-.082.02-.123.02h-.203a1.63 1.63 0 01-1.625-1.624v-.122a3.89 3.89 0 001.625.365c.386 0 .955-.06 1.625-.365v.162a.796.796 0 00-.04.264zm4.936-7.089c-.082.102-.183.224-.366.284.102-.446.183-.934.223-1.38a.48.48 0 01.224.263.826.826 0 01-.081.833zM6.297 8.267l.873-.244v-.73a5.86 5.86 0 012.864-5.018v2.438h.813V1.584c0-.122.101-.223.223-.223h1.524v4.672h.812V1.36h1.524c.122 0 .223.101.223.223v3.108h.813V2.255a5.815 5.815 0 012.864 5.017v.731l.873.244v.528H6.297v-.508zm.162 2.986a.826.826 0 01-.08-.833c.06-.101.121-.203.223-.264.04.508.142.955.243 1.381a.835.835 0 01-.386-.284zm1.32.61c-.182-.67-.365-1.382-.406-2.255h11.254c-.02.65-.163 1.625-.386 2.234-1.828 5.099-4.266 5.647-5.241 5.647-.955.02-3.392-.528-5.22-5.627zM20.11 24.78h-1.828v-.61h-.812v.61H8.53v-.61h-.81v.61H5.89v-2.783c0-.63.365-1.198.914-1.462l3.839-1.849c0 .02.02.041.02.061 0 .02.02.061.02.082.02.04.041.101.061.142 0 .02.02.04.02.06.02.062.062.123.082.163 0 0 0 .02.02.02.04.062.081.122.122.183.02.02.02.041.04.061a.555.555 0 00.102.122l.061.061c.02.04.061.061.102.102l.06.06.102.102.061.061c.04.04.081.061.122.102.02.02.04.02.04.04l.184.122c.02 0 .02.02.04.02.061.02.102.061.163.082.02.02.04.02.08.02.041.02.082.04.143.04.02 0 .061.021.081.021.04.02.102.02.143.04.02 0 .06.021.08.021.041 0 .102.02.163.02h.082c.08 0 .162.02.223.02h.223c.041 0 .082 0 .102-.02.04 0 .06 0 .102-.02.04 0 .101-.02.142-.04.02 0 .04 0 .06-.02.062-.021.102-.042.163-.042.02 0 .02 0 .04-.02.062-.02.123-.04.163-.06h.02c.061-.021.122-.062.163-.082.061-.04.102-.061.163-.102.06-.04.101-.06.142-.101 0 0 .02 0 .02-.02a.505.505 0 01.122-.102l.02-.02.102-.102c.02-.02.04-.04.04-.06.02-.021.041-.062.082-.082.02-.04.06-.061.08-.102.021-.02.021-.04.042-.04a2.05 2.05 0 00.345-.772l3.819 1.848c.568.264.914.853.914 1.463v2.762h-.02z" fill="#fff"/><path d="M17.367 7.313H8.633v.812h8.734v-.813z" fill="#fff"/></svg>