<svg width="17" height="22" fill="none" xmlns="http://www.w3.org/2000/svg"><path d="M14.458 0H2.542A2.537 2.537 0 000 2.528V19.33a2.537 2.537 0 002.542 2.528h11.916A2.537 2.537 0 0017 19.33V2.53A2.538 2.538 0 0014.458 0zm1.695 19.329c0 .93-.761 1.685-1.695 1.685H2.542A1.692 1.692 0 01.847 19.33V2.53c0-.93.76-1.686 1.695-1.686h11.916c.934 0 1.695.756 1.695 1.685V19.33zM2.17 7.005h12.66V2.528H2.17v4.477zm.848-3.634H13.98v2.791H3.02V3.371zm1.934 5.911v1.021a.664.664 0 01-.666.662H3.261a.663.663 0 01-.666-.662v-1.02c0-.366.298-.662.666-.662h1.026c.367 0 .666.296.666.661zm4.726 0v1.021a.665.665 0 01-.666.662H7.987a.664.664 0 01-.665-.662v-1.02c0-.367.297-.662.665-.662h1.026c.368 0 .666.295.666.661zm4.726 0v1.021a.665.665 0 01-.666.662h-1.026a.664.664 0 01-.666-.662v-1.02c0-.367.298-.662.666-.662h1.026c.367 0 .666.295.666.661zm-9.452 4.13v1.02a.664.664 0 01-.666.662H3.261a.663.663 0 01-.666-.661v-1.021c0-.366.298-.662.666-.662h1.026c.367 0 .666.296.666.662zm0 4.13v1.02a.664.664 0 01-.666.662H3.261a.663.663 0 01-.666-.662v-1.02c0-.367.298-.663.666-.663h1.026c.367 0 .666.296.666.662zm4.726-4.13v1.021a.664.664 0 01-.666.661H7.987a.663.663 0 01-.665-.66v-1.022c0-.366.297-.662.665-.662h1.026c.368 0 .666.296.666.662zm0 4.129v1.02a.665.665 0 01-.666.663H7.987a.664.664 0 01-.665-.662V17.54c0-.366.297-.662.665-.662h1.026c.368 0 .666.296.666.662zm4.726-4.13v1.022l-.001.004v3.1l.001.004v1.021a.665.665 0 01-.666.662h-1.026a.664.664 0 01-.666-.662v-5.15c0-.366.298-.662.666-.662h1.026c.367 0 .666.296.666.662z" fill="#000"/></svg>