<svg width="51" height="51" fill="none" xmlns="http://www.w3.org/2000/svg"><circle cx="25.5" cy="25.5" r="25.5" fill="#F5F1FF"/><path d="M32.86 12H18.14C16.408 12 15 13.4 15 15.123v20.754A3.134 3.134 0 0018.14 39h14.72c1.732 0 3.14-1.4 3.14-3.123V15.123A3.135 3.135 0 0032.86 12zm2.093 23.877a2.09 2.09 0 01-2.093 2.082H18.14a2.09 2.09 0 01-2.093-2.082V15.123a2.09 2.09 0 012.093-2.082h14.72a2.09 2.09 0 012.093 2.082v20.754zm-17.27-15.224h15.635v-5.53H17.682v5.53zm1.046-4.489h13.542v3.448H18.729v-3.448zm2.39 7.302v1.261a.82.82 0 01-.823.818h-1.268a.82.82 0 01-.822-.818v-1.26a.82.82 0 01.822-.818h1.268a.82.82 0 01.823.817zm5.838 0v1.261a.82.82 0 01-.823.818h-1.268a.82.82 0 01-.822-.818v-1.26a.82.82 0 01.822-.818h1.268a.82.82 0 01.823.817zm5.837 0v1.261a.82.82 0 01-.822.818h-1.268a.82.82 0 01-.823-.818v-1.26a.82.82 0 01.823-.818h1.268a.82.82 0 01.822.817zM21.12 28.568v1.26a.82.82 0 01-.823.818h-1.268a.82.82 0 01-.822-.817v-1.261a.82.82 0 01.822-.818h1.268a.82.82 0 01.823.818zm0 5.1v1.261a.82.82 0 01-.823.818h-1.268a.82.82 0 01-.822-.818v-1.26a.82.82 0 01.822-.818h1.268a.82.82 0 01.823.818zm5.838-5.1v1.261a.82.82 0 01-.823.817h-1.268a.82.82 0 01-.822-.817v-1.262a.82.82 0 01.822-.817h1.268a.82.82 0 01.823.817zm0 5.1v1.261a.82.82 0 01-.823.818h-1.268a.82.82 0 01-.822-.818v-1.261a.82.82 0 01.822-.818h1.268a.82.82 0 01.823.818zm5.837-5.1v1.261l-.001.005v3.829l.001.006v1.26a.82.82 0 01-.822.818h-1.268a.82.82 0 01-.823-.817v-6.363a.82.82 0 01.823-.817h1.268a.82.82 0 01.822.817z" fill="#000"/></svg>