<svg width="103" height="103" fill="none" xmlns="http://www.w3.org/2000/svg"><path d="M51.466 72.656l.034.023v-.031l.015.02.019-.012.006-.008v.004l12.804-8.556h.001v-6.444a26.763 26.763 0 00-2.77 2.178c-5.619 5.08-11.13 4.21-11.13 4.21-3.36.087-8.148-3.356-10.19-4.96a27.497 27.497 0 00-1.6-1.167v6.183l12.811 8.56zm.034.024l-4.143 5.642L51.5 72.68z" fill="#F6C358"/><path d="M37.89 16.925h7.97c.726 0 1.449-.11 2.14-.332 1.444-.463 3.74-1.317 5.477-1.977a7.02 7.02 0 014.822-.061l8.39 2.945c5.644 2.074 6.22 7.373 6.22 7.373v14.975s.74-4.999 3.3-9.105a6.275 6.275 0 00.962-3.318v-12.92s-.806-6.335-7.027-7.833c0 0 2.535-5.396-4.032-6.672h-24.19c-8.844 0-16.013 7.169-16.013 16.012v9.493a9.04 9.04 0 001.976 5.661c1.014 1.262 2.066 3.246 2.229 6.116V24.7c1.555-6.97 7.775-7.775 7.775-7.775z" fill="#64798A"/><path d="M50.446 64.04s5.51.87 11.129-4.21a26.763 26.763 0 012.77-2.177c.096-.066.19-.135.285-.2 2.488-1.67 7.267-6.303 8.279-17.604V24.874s-.576-5.3-6.22-7.373l-8.39-2.945a7.021 7.021 0 00-4.822.06c-1.738.66-4.033 1.514-5.477 1.977a7.009 7.009 0 01-2.14.332h-7.97s-6.221.806-7.777 7.776v15.494s.271 12.239 8.374 17.603c.057.038.111.078.168.116.547.37 1.08.76 1.6 1.168 2.042 1.603 6.83 5.046 10.19 4.958z" fill="#FCD462"/><path d="M55.886 78.654l-2.229 3.2 2.059 12.973 5.158-9.38-4.988-6.793zm-8.571 16.23l2.068-13.03-2.249-3.228-5.008 6.821 5.19 9.437zm.042-16.562l-.175.239 4.318-5.859v-.021l-4.143 5.641z" fill="#D5D6DB"/><path d="M55.716 94.826l-2.058-12.972 2.228-3.2L51.5 72.68v.022l-4.318 5.858-.047.065 2.248 3.229-2.068 13.03 4.185 7.608 4.216-7.665zm-4.19 7.713l.4-.4-.413.377.013.023zm-.039-.023l-.412-.377.4.4.012-.023zm-.006.03l.02.019.019-.019-.02-.018-.019.018zm.059-29.898l-.006.009.007-.004v-.005zm-.04 0v.031l.016-.01-.016-.021z" fill="#E56353"/><path d="M51.54 72.652l-.006.004-.018.013-.016.01 4.386 5.974 4.989 6.795 10.38-18.874-6.91-2.478-12.805 8.556zm-4.406 5.973l.223-.303 4.143-5.643-.034-.023-12.81-8.56h-.001l-6.91 2.478 10.38 18.874 5.01-6.823z" fill="#E1E6E9"/><path d="M102.935 96.998l-2.325-14.04a10.615 10.615 0 00-6.86-8.246l-22.494-8.138 5.974 11.98-7.472.115 2.535 4.839-20.368 18.631-.4.4.015.026h46.674a4.785 4.785 0 004.721-5.567zm-51.415 5.547l-.02.02h.04l-.02-.02z" fill="#3A556A"/><path d="M55.716 94.827l-4.216 7.665.013.024.412-.377 20.368-18.632-2.535-4.838 7.472-.115-5.974-11.98-10.381 18.874-5.159 9.38zm-4.235 7.718l.019-.017-.013-.012-.013.022.007.007z" fill="#2F4859"/><path d="M51.481 102.546l-.007-.007-.4-.4-20.367-18.631 2.535-4.839-7.472-.115 5.974-11.98-22.493 8.138a10.613 10.613 0 00-6.86 8.246L.065 96.998a4.785 4.785 0 004.72 5.567H51.5v-.001l-.019-.018z" fill="#3A556A"/><path d="M51.526 102.539l-.013-.023-.013-.024-4.185-7.608-5.19-9.436-10.38-18.874-5.975 11.98 7.472.115-2.535 4.838 20.368 18.632.412.377.013.012.02.017.02.02-.014-.026z" fill="#2F4859"/></svg>