<svg width="50" height="50" fill="none" xmlns="http://www.w3.org/2000/svg"><path d="M17.857 39.063c0 .859-.803 1.562-1.786 1.562-.982 0-1.785-.703-1.785-1.563V18.75c0-.86.803-1.563 1.785-1.563.983 0 1.786.704 1.786 1.563v20.313zm8.929 0c0 .859-.804 1.562-1.786 1.562s-1.786-.703-1.786-1.563V18.75c0-.86.804-1.563 1.786-1.563s1.786.704 1.786 1.563v20.313zm8.928 0c0 .859-.803 1.562-1.785 1.562-.983 0-1.786-.703-1.786-1.563V18.75c0-.86.803-1.563 1.786-1.563.982 0 1.785.704 1.785 1.563v20.313zm-.279-36.627l4.096 5.377h7.79c1.485 0 2.679 1.05 2.679 2.343 0 1.3-1.194 2.344-2.679 2.344h-.892v29.688c0 4.316-3.996 7.812-8.929 7.812h-25c-4.93 0-8.929-3.496-8.929-7.813V12.5H2.68C1.199 12.5 0 11.455 0 10.156c0-1.294 1.2-2.344 2.679-2.344h7.792l4.094-5.376C15.725.914 17.679 0 19.765 0h10.47c2.086 0 4.04.914 5.2 2.436zM16.908 7.813h16.184L30.97 5.034a.936.936 0 00-.737-.348H19.766c-.29 0-.67.131-.737.348l-2.12 2.777zm-7.98 34.374c0 1.729 1.6 3.126 3.572 3.126h25c1.975 0 3.571-1.397 3.571-3.126V12.5H8.93v29.688z" fill="#FFAA6B"/></svg>