<svg width="26" height="26" fill="none" xmlns="http://www.w3.org/2000/svg"><g clip-path="url(#clip0_15_134)"><path d="M25.761 8.93l-.572-.572a.81.81 0 00-1.146 0l-4.54 4.54V.818a.812.812 0 00-.812-.812H6.507c-.276 0-.55-.049-.711.113L.12 5.794c-.161.162-.112.41-.112.711v18.683c0 .449.363.812.812.812h17.87a.812.812 0 00.812-.812v-8.854l6.258-6.258a.81.81 0 000-1.146zM5.695 1.391v4.302H1.393L5.695 1.39zM18.69 25.188H.821V6.505H6.1a.406.406 0 00.406-.406V.82H18.69v12.89l-3.432 3.432a.394.394 0 00-.223-.076H4.476a.406.406 0 000 .813h10.047l-2.44 2.44a.374.374 0 00-.32.288l-.34 1.49a.407.407 0 00-.031.32c.012.04.034.072.056.106l.008.016a.41.41 0 00.065.073.461.461 0 00.073.064l.016.01c.034.02.067.043.106.055.115.035.228.02.32-.031l1.49-.341a.375.375 0 00.292-.348l4.874-4.874v8.042zm-5.584-3.604l-.727.167.174-.76 12.061-12.06.573.572-12.081 12.081zm-8.63-11.83h10.56a.406.406 0 000-.812H4.475a.406.406 0 000 .812zm0 4.062h10.56a.406.406 0 000-.813H4.475a.406.406 0 000 .813z" fill="#fff"/></g><defs><clipPath id="clip0_15_134"><path fill="#fff" d="M0 0h26v26H0z"/></clipPath></defs></svg>