<svg width="30" height="30" fill="none" xmlns="http://www.w3.org/2000/svg"><path d="M30 15c0 8.284-6.716 15-14.998 15C6.716 30 0 23.284 0 15 0 6.715 6.716 0 15.002 0 23.284 0 30 6.715 30 15z" fill="#3C5B9B"/><path d="M12.5 24.375h3.75V15h2.783l.342-3.75h-2.98v-1.5c0-.73.487-.9.829-.9h2.103V5.637l-2.897-.012c-3.215 0-3.946 2.396-3.946 3.93v1.695h-1.859V15H12.5v9.375z" fill="#fff"/><path d="M30 15c0 8.284-6.716 15-14.998 15C6.716 30 0 23.284 0 15 0 6.715 6.716 0 15.002 0 23.284 0 30 6.715 30 15z" fill="#3C5B9B"/><path d="M12.5 24.375h3.75V15h2.783l.342-3.75h-2.98v-1.5c0-.73.487-.9.829-.9h2.103V5.637l-2.897-.012c-3.215 0-3.946 2.396-3.946 3.93v1.695h-1.859V15H12.5v9.375z" fill="#fff"/><path d="M30 15c0 8.284-6.716 15-14.998 15C6.716 30 0 23.284 0 15 0 6.715 6.716 0 15.002 0 23.284 0 30 6.715 30 15z" fill="#3C5B9B"/><path d="M12.5 24.375h3.75V15h2.783l.342-3.75h-2.98v-1.5c0-.73.487-.9.829-.9h2.103V5.637l-2.897-.012c-3.215 0-3.946 2.396-3.946 3.93v1.695h-1.859V15H12.5v9.375z" fill="#fff"/></svg>