<svg width="20" height="20" fill="none" xmlns="http://www.w3.org/2000/svg"><path d="M18.019 1.727a5.31 5.31 0 00-7.506-.332l-9.58 8.767.798.87 9.58-8.766a4.105 4.105 0 012.972-1.08 4.13 4.13 0 013.944 4.31 4.105 4.105 0 01-1.338 2.866L6.221 18.125a2.66 2.66 0 01-3.752-.167 2.655 2.655 0 01.166-3.752L12.867 4.84a1.18 1.18 0 111.594 1.742L5.317 14.95l.797.871 9.144-8.368A2.36 2.36 0 1012.07 3.97L1.838 13.334a3.835 3.835 0 00-.24 5.42 3.841 3.841 0 005.42.24l10.668-9.763a5.318 5.318 0 00.333-7.505z" fill="#000"/></svg>