<svg width="28" height="24" fill="none" xmlns="http://www.w3.org/2000/svg"><path d="M10.348 22.925c-.2.739-.63 1.074-1.36 1.074-2.38.003-4.76 0-7.14.001a2.21 2.21 0 01-1.324-.447c-.323-.234-.457-.559-.46-.95-.02-2.143-.058-4.287-.064-6.43-.003-1.258.037-2.517.069-3.776.024-1.005.892-1.822 1.915-1.82 2.538.002 5.077 0 7.615.011.22 0 .37-.06.489-.233.632-.914 1.266-1.825 1.897-2.738.236-.34.44-.706.707-1.018.743-.865.829-1.848.662-2.912a21.153 21.153 0 01-.198-2.063c-.025-.403.174-.727.498-.991 1.022-.836 2.466-.848 3.65 0 1.335.958 2.005 2.296 2.232 3.864.199 1.368-.002 2.708-.361 4.032l-.07.265c-.003.017 0 .036 0 .09h.294l6.046-.003c1.28-.001 2.317.786 2.52 1.942.146.818-.175 1.504-.725 2.098-.134.144-.162.255-.113.45.256 1.038-.035 1.967-.659 2.808-.139.187-.2.34-.17.586.13 1.057-.138 2.021-.796 2.881a.6.6 0 00-.12.414c.306 1.868-1.039 3.024-2.599 3.156-1.01.086-2.031.05-3.048.052-2.65.005-5.3-.002-7.95.004-.504.001-.982-.06-1.437-.347zm15.05-6.166h-.348c-1.4 0-2.8.002-4.2 0-.168 0-.34.013-.503-.017-.236-.044-.38-.194-.366-.443.013-.244.157-.383.404-.41.102-.012.205-.009.308-.009 1.55.001 3.098.004 4.648-.002.101 0 .241-.027.297-.094.523-.627.795-1.33.635-2.155-.042-.22-.147-.29-.377-.287-1.475.01-2.95.005-4.425.004-.47 0-.7-.15-.691-.45.008-.288.226-.425.687-.425 1.568-.002 3.136 0 4.704-.005.109 0 .239-.001.322-.055.641-.42.796-1.467.308-2.054-.363-.435-.845-.601-1.41-.6-2.155.006-4.311.003-6.467.004-.865 0-.962-.117-.75-.928.324-1.23.618-2.463.526-3.748-.087-1.198-.456-2.29-1.293-3.192-.577-.622-1.26-1.062-2.17-1.006-.835.052-1.26.5-1.19 1.298.058.662.16 1.321.25 1.98.13.966-.083 1.845-.666 2.64-.277.378-.544.764-.802 1.154-.759 1.149-1.465 2.333-2.405 3.357a.465.465 0 00-.096.297c-.006 3.33-.006 6.66-.002 9.991 0 .085.012.2.067.252.307.288.65.533 1.1.533 3.603.003 7.205.004 10.807 0 .543-.001 1.054-.131 1.508-.434.625-.42.9-1.263.61-1.89H20.87c-.466 0-.933.007-1.4-.005-.254-.008-.434-.19-.43-.416.001-.241.136-.392.379-.438.09-.017.185-.017.277-.017 1.588-.001 3.173.001 4.76-.005.118-.002.284-.032.346-.11.53-.675.714-1.442.596-2.316zm-15.99-5.3h-.375l-6.998-.007c-.594 0-1.07.438-1.072 1.018-.006 3.31-.007 6.62-.006 9.93 0 .42.075.516.487.65.138.046.291.065.438.069.457.008.914.003 1.37.004H8.99c.344 0 .433-.088.434-.42.001-.356 0-.711 0-1.067v-9.85c0-.098-.01-.196-.016-.327z" fill="#fff"/></svg>