<svg width="60" height="60" fill="none" xmlns="http://www.w3.org/2000/svg"><rect width="60" height="60" rx="30" fill="#14B111"/><path d="M26.348 42.746c-.2.861-.63 1.252-1.361 1.252-2.38.004-4.759 0-7.139.002-.496 0-.932-.19-1.324-.522-.323-.273-.457-.652-.46-1.108-.02-2.5-.058-5.002-.064-7.503-.003-1.467.037-2.936.069-4.405.024-1.172.892-2.125 1.915-2.124 2.538.002 5.077.001 7.614.014.22 0 .37-.07.49-.273.631-1.066 1.265-2.129 1.897-3.194.235-.397.44-.824.707-1.188.742-1.009.829-2.156.662-3.397a28.728 28.728 0 01-.198-2.407c-.025-.47.174-.849.498-1.157 1.021-.975 2.466-.989 3.649 0 1.336 1.118 2.006 2.68 2.233 4.509.198 1.596-.002 3.16-.362 4.704l-.07.31c-.002.02 0 .041 0 .104h.294l6.047-.003c1.28-.001 2.316.916 2.52 2.266.146.954-.176 1.755-.726 2.447-.133.168-.161.298-.113.526.257 1.21-.035 2.295-.658 3.276a.943.943 0 00-.17.683c.13 1.234-.138 2.359-.797 3.362a.786.786 0 00-.12.482c.307 2.18-1.038 3.528-2.598 3.682-1.01.1-2.032.059-3.049.061-2.65.007-5.3-.002-7.95.006-.503 0-.982-.072-1.436-.405zm15.05-7.195h-.348a2940 2940 0 01-4.2.001c-.168 0-.34.014-.503-.02-.236-.051-.38-.227-.366-.517.013-.285.156-.447.404-.479.102-.014.205-.01.308-.01 1.549.002 3.098.004 4.648-.002.1 0 .24-.032.297-.11.523-.732.795-1.551.635-2.515-.043-.256-.147-.337-.378-.335-1.475.012-2.95.007-4.425.006-.47 0-.7-.175-.69-.525.008-.337.225-.496.687-.496 1.568-.003 3.136-.002 4.704-.007.108 0 .238 0 .321-.063.642-.492.797-1.712.308-2.397-.363-.508-.844-.701-1.409-.7-2.156.006-4.312.004-6.468.005-.864 0-.962-.137-.749-1.083.324-1.434.617-2.874.525-4.373-.086-1.398-.455-2.672-1.292-3.725-.577-.725-1.26-1.238-2.17-1.173-.835.061-1.26.584-1.19 1.515.058.772.16 1.541.25 2.31.13 1.126-.083 2.152-.667 3.08-.276.44-.543.89-.802 1.347-.758 1.34-1.465 2.72-2.404 3.916-.066.083-.096.229-.096.346a5033.15 5033.15 0 00-.003 11.658c0 .099.013.232.067.294.307.335.65.62 1.1.62 3.603.004 7.205.006 10.808 0a2.394 2.394 0 001.508-.506c.625-.489.899-1.473.609-2.204H36.87c-.466 0-.933.007-1.4-.007-.254-.009-.435-.22-.431-.485.002-.281.136-.457.38-.51.089-.02.184-.02.277-.02 1.587-.002 3.173 0 4.76-.007.118-.001.283-.037.345-.128.53-.787.715-1.682.597-2.701zm-15.99-6.183h-.375l-6.998-.008c-.595 0-1.07.51-1.072 1.188-.006 3.861-.008 7.724-.006 11.586 0 .49.075.6.487.757.138.053.291.076.438.08.457.01.914.004 1.37.005 1.914 0 3.825.002 5.738 0 .344 0 .433-.103.434-.49V29.75c0-.114-.01-.229-.016-.381z" fill="#fff"/></svg>