<svg width="39" height="39" fill="none" xmlns="http://www.w3.org/2000/svg"><path d="M33.8 0H10.563C8.32 0 6.5 1.458 6.5 3.25V33.8H2.6a2.6 2.6 0 100 5.2h23.322c2.236 0 4.056-1.458 4.056-3.25L29.9 6.5h8.45a.65.65 0 00.65-.65C39 2.624 36.667 0 33.8 0zM18.809 37.7H2.6a1.3 1.3 0 010-2.6h16.209a3.12 3.12 0 000 2.6zm7.113 0h-5.52a1.77 1.77 0 01.138-2.73.65.65 0 00-.39-1.17H7.8V3.25c0-1.057 1.265-1.95 2.763-1.95h19.976A6.136 6.136 0 0028.6 5.85l.078 29.9c0 1.057-1.262 1.95-2.756 1.95zM29.94 5.2c.271-2.202 1.898-3.9 3.86-3.9s3.589 1.698 3.86 3.9h-7.72z" fill="#000"/><path d="M9.1 19.5h18.2v1.3H9.1v-1.3zm0 7.15h18.2v1.3H9.1v-1.3zm9.1-15.6a.65.65 0 01-.65-.65h-1.3a1.95 1.95 0 001.3 1.83V13h1.3v-.77a1.945 1.945 0 00-.65-3.78.65.65 0 11.65-.65h1.3a1.95 1.95 0 00-1.3-1.83V5.2h-1.3v.77a1.945 1.945 0 00.65 3.78.65.65 0 110 1.3z" fill="#000"/><path d="M18.2 14.95a5.85 5.85 0 10-5.85-5.85 5.856 5.856 0 005.85 5.85zm0-10.4a4.55 4.55 0 110 9.1 4.55 4.55 0 010-9.1z" fill="#000"/></svg>