<svg width="24" height="29" fill="none" xmlns="http://www.w3.org/2000/svg"><path d="M11.608 29a2.536 2.536 0 01-2.033-1.007l-7.437-9.829a11.43 11.43 0 01-.845-11.936 11.545 11.545 0 014.27-4.546A11.67 11.67 0 0111.591 0a11.67 11.67 0 016.032 1.673 11.545 11.545 0 014.276 4.54 11.43 11.43 0 01-.828 11.938l-7.428 9.839A2.519 2.519 0 0111.608 29zm-.011-27.504a10.053 10.053 0 00-6.728 2.55 9.985 9.985 0 00-1.543 13.266l7.423 9.806a1.063 1.063 0 00.858.426 1.082 1.082 0 00.861-.426l7.412-9.817a9.95 9.95 0 00.975-9.868 10.036 10.036 0 00-3.245-3.992 10.148 10.148 0 00-6.013-1.945z" fill="#fff"/><path d="M11.608 15.249a3.695 3.695 0 01-2.041-.614 3.651 3.651 0 01-1.353-1.636 3.618 3.618 0 01.796-3.972 3.7 3.7 0 014.004-.79 3.668 3.668 0 011.648 1.343 3.624 3.624 0 01-.457 4.601 3.688 3.688 0 01-2.597 1.068zm0-5.831c-.436 0-.862.128-1.225.368a2.19 2.19 0 00-.812.982 2.17 2.17 0 00.478 2.383 2.21 2.21 0 002.402.474 2.2 2.2 0 00.99-.806 2.174 2.174 0 00-.275-2.76 2.213 2.213 0 00-1.558-.641z" fill="#fff"/></svg>