<svg width="25" height="25" fill="none" xmlns="http://www.w3.org/2000/svg"><path d="M12.5 0C5.597 0 0 5.597 0 12.5S5.597 25 12.5 25 25 19.403 25 12.5 19.403 0 12.5 0zm0 22.88c-5.731 0-10.38-4.649-10.38-10.38 0-5.731 4.65-10.38 10.38-10.38 5.731 0 10.38 4.649 10.38 10.38 0 5.731-4.649 10.38-10.38 10.38z" fill="#F5F1FF"/><path d="M11.384 18.638a1.116 1.116 0 102.232 0 1.116 1.116 0 00-2.232 0zm4.23-11.587c-.837-.731-1.942-1.136-3.114-1.136-1.171 0-2.276.402-3.113 1.136-.871.761-1.35 1.785-1.35 2.882v.212c0 .123.1.223.222.223H9.6c.122 0 .223-.1.223-.223v-.212c0-1.23 1.202-2.232 2.678-2.232s2.679 1.001 2.679 2.232c0 .868-.614 1.663-1.563 2.028a3.119 3.119 0 00-1.453 1.141 3.173 3.173 0 00-.555 1.811v.6c0 .123.1.223.223.223h1.34c.122 0 .222-.1.222-.223v-.633a1.348 1.348 0 01.862-1.25c1.647-.634 2.71-2.084 2.71-3.697 0-1.097-.48-2.12-1.35-2.882z" fill="#F5F1FF"/></svg>