<svg width="25" height="25" fill="none" xmlns="http://www.w3.org/2000/svg"><g clip-path="url(#clip0_318_402)" fill="#fff"><path d="M24.419 1.46c0-.39-.152-.756-.428-1.032A1.45 1.45 0 0022.958 0c-.39 0-.757.152-1.032.428l-13.37 13.37a2.227 2.227 0 00-1.62.467l-5.856-.117a.498.498 0 00-.498.488v1.2a.498.498 0 00.996 0v-.682l4.025.08-2.89.672a.498.498 0 00-.385.502v1.172a.498.498 0 00.995 0v-.793l3.625-.842-2.682 1.74a.497.497 0 00-.227.418v1.17a.498.498 0 00.996 0v-.9l2.877-1.867-2.014 3.105a.496.496 0 00-.08.285v1.17a.498.498 0 00.996 0v-1.037l1.66-2.558-.932 4.01a.515.515 0 00-.013.114v1.164a.498.498 0 00.996 0V21.65l.659-2.834.083 4.126a.498.498 0 00.497.488h.01a.498.498 0 00.488-.508l-.109-5.44c.371-.466.527-1.05.468-1.62l13.37-13.37a1.45 1.45 0 00.428-1.032zM9.559 16.534l-.576-.576-.002-.002-.518-.518-.003-.003-.576-.576a1.297 1.297 0 011.366.31c.374.374.479.914.31 1.365zM23.287 1.79L10.25 14.826a2.336 2.336 0 00-.656-.657L22.63 1.132a.461.461 0 01.656 0 .461.461 0 010 .657zM9.772 23.787a.498.498 0 00-.498.498v.217a.498.498 0 00.996 0v-.217a.498.498 0 00-.498-.498z"/></g><defs><clipPath id="clip0_318_402"><path fill="#fff" d="M0 0h25v25H0z"/></clipPath></defs></svg>