<svg width="51" height="51" fill="none" xmlns="http://www.w3.org/2000/svg"><circle cx="25.5" cy="25.5" r="25.5" fill="#F5F1FF"/><path d="M37.731 12h-7.863c-.7 0-1.269.57-1.269 1.27v.823a.396.396 0 00.791 0v-.824c0-.264.215-.478.478-.478h7.863c.264 0 .478.214.478.478v6.99a.479.479 0 01-.478.477h-4.134a.83.83 0 00-.693.37l-.893 1.34v-.877a.833.833 0 00-.832-.833h-1.31a.479.479 0 01-.479-.478V15.94a.396.396 0 10-.79 0v4.32a1.27 1.27 0 001.268 1.268h1.31c.023 0 .042.019.042.042v1.462a.61.61 0 00.616.615.61.61 0 00.509-.274l1.217-1.826a.041.041 0 01.035-.019h4.134c.7 0 1.27-.569 1.27-1.269V13.27c0-.7-.57-1.269-1.27-1.269zM19.385 22.837a.396.396 0 00.395-.395v-.437a.396.396 0 00-.79 0v.437c0 .218.176.395.395.395zm3.495 0a.396.396 0 00.395-.395v-.437a.396.396 0 00-.791 0v.437c0 .218.177.395.395.395zm-1.748 2.185c.45 0 .872-.243 1.098-.634a.396.396 0 00-.684-.397.48.48 0 01-.414.24.48.48 0 01-.414-.24.396.396 0 00-.685.397c.227.39.648.634 1.099.634z" fill="#000"/><path d="M26.374 29.473h-1.147l-1.079-1.079v-.957a4.76 4.76 0 001.73-3.289h.496c.7 0 1.269-.569 1.269-1.269v-1.747a1.27 1.27 0 00-.874-1.206v-1.415a3.895 3.895 0 00-3.89-3.89h-3.495a3.894 3.894 0 00-3.89 3.89v1.415a1.271 1.271 0 00-.873 1.206v1.747c0 .7.57 1.27 1.269 1.27h.495a4.76 4.76 0 001.73 3.288v.957l-1.078 1.079H15.89a3.894 3.894 0 00-3.89 3.89v4.368c0 .7.57 1.27 1.27 1.27h1.691a.395.395 0 100-.792H13.27a.479.479 0 01-.478-.478v-4.368a3.102 3.102 0 013.099-3.099h1.066l1.367 2.734a.835.835 0 00.744.46c.196 0 .388-.07.54-.199l.25 1.007-.394 3.943h-2.65a.396.396 0 000 .791h12.181c.7 0 1.27-.57 1.27-1.269v-4.368a3.894 3.894 0 00-3.89-3.89zm-4.677 4.368h-1.13l-.308-1.23.873-.873.872.873-.307 1.23zm-.006-2.662l2.062-2.061.829.829-1.349 2.697a.039.039 0 01-.03.022.039.039 0 01-.036-.011l-1.476-1.476zm5.16-8.3a.479.479 0 01-.477.478h-.479v-2.703h.479c.264 0 .478.215.478.478v1.747zm-7.466-7.467h3.494a3.103 3.103 0 013.1 3.1v1.35h-1.353a1.352 1.352 0 01-1.35-1.3c.094-.292.145-.602.145-.924a.395.395 0 10-.79 0 2.228 2.228 0 01-2.226 2.225h-4.12V18.51a3.103 3.103 0 013.1-3.099zm-3.973 7.467v-1.747c0-.263.214-.478.477-.478h.479v2.703h-.478a.479.479 0 01-.478-.478zm1.747.874v-3.099h3.246c.944 0 1.787-.436 2.34-1.117a2.145 2.145 0 001.881 1.117h.478v3.099a3.977 3.977 0 01-3.972 3.973 3.977 3.977 0 01-3.973-3.973zm3.973 4.764c.803 0 1.56-.2 2.225-.553v.43l-2.225 2.226-2.226-2.226v-.43a4.734 4.734 0 002.226.553zm-2.071 4.15a.039.039 0 01-.03-.023l-1.35-2.697.83-.83 2.062 2.062-1.476 1.476c-.004.003-.015.015-.036.011zm1.555 1.965h1.032l.357 3.577h-1.747l.358-3.577zm8.378 3.577H22.8l-.394-3.943.252-1.007a.834.834 0 00.671.188.835.835 0 00.612-.45l1.367-2.733h1.066a3.102 3.102 0 013.099 3.099v4.368a.479.479 0 01-.479.478zm1.748-20.176h6.115a.396.396 0 000-.79h-6.115a.396.396 0 000 .79zm0 1.747h3.494a.396.396 0 000-.79h-3.494a.395.395 0 100 .79zm0-5.242h6.115a.396.396 0 000-.79h-6.115a.396.396 0 000 .79zm0 1.747h6.115a.396.396 0 000-.79h-6.115a.396.396 0 000 .79z" fill="#000"/></svg>