<svg width="50" height="50" fill="none" xmlns="http://www.w3.org/2000/svg"><path d="M41.286 41.25c1.344 0 2.49 1.15 2.49 2.5s-1.146 2.5-2.49 2.5H11.408c-1.345 0-2.49-1.15-2.49-2.5s1.145-2.5 2.49-2.5h29.878zm0-3.75H11.408c-3.411 0-6.225 2.825-6.225 6.25S7.997 50 11.408 50h29.878c1.65 0 3.234-.658 4.401-1.83a6.263 6.263 0 001.823-4.42 6.263 6.263 0 00-1.823-4.42 6.212 6.212 0 00-4.401-1.83zm6.224-15h-7.47v-10H27.593l-7.47 10V35H50l-2.49-12.5zm-23.553 0l4.88-6.25h6.224v6.25H23.956zM19.524 3.525L7.075 0 .204 24.575c-.847 3.2 1.02 6.525 4.232 7.425l2.888.8 8.192-7.075-9.66-2.7 4.68-16.875 6.947 1.95c1.394.725 4.407 2.75 6.3 5.325L26.346 10h1.095c-3.137-3.975-7.693-6.35-7.917-6.475z" fill="#FFAA6B"/></svg>