<svg width="108" height="13" fill="none" xmlns="http://www.w3.org/2000/svg"><path d="M103.657 3.75l3.481.537a.956.956 0 01.71.59.872.872 0 01-.215.882l-2.524 2.581.594 3.638a.904.904 0 01-.33.849.712.712 0 01-.478.173.741.741 0 01-.38-.104l-3.118-1.715-3.118 1.715a.802.802 0 01-.874-.07c-.264-.19-.38-.519-.33-.848l.594-3.638-2.524-2.58a.872.872 0 01-.215-.884.838.838 0 01.66-.589l3.481-.537 1.551-3.308c.28-.59 1.204-.59 1.485 0l1.55 3.308zm-23.47 0l3.868.537c.348.052.641.277.788.59a.812.812 0 01-.238.882L81.8 8.34l.66 3.638a.864.864 0 01-.366.849.847.847 0 01-.532.173.89.89 0 01-.422-.104l-3.464-1.715-3.465 1.715a.974.974 0 01-.971-.07.83.83 0 01-.367-.848l.66-3.638-2.805-2.58a.812.812 0 01-.238-.884.904.904 0 01.733-.589l3.868-.537L76.814.442c.312-.59 1.338-.59 1.65 0l1.723 3.308zm-23.974 0l3.48.537a.956.956 0 01.71.59.872.872 0 01-.214.882L57.665 8.34l.594 3.638a.907.907 0 01-.33.849.713.713 0 01-.479.173.738.738 0 01-.38-.104l-3.117-1.715-3.118 1.715a.802.802 0 01-.875-.07c-.264-.19-.38-.519-.33-.848l.594-3.638L47.7 5.76a.872.872 0 01-.214-.884.838.838 0 01.66-.589l3.48-.537L53.178.442c.28-.59 1.205-.59 1.485 0l1.55 3.308zm-23.47 0l3.867.537c.349.052.642.277.789.59a.812.812 0 01-.239.882L34.356 8.34l.66 3.638a.864.864 0 01-.367.849.847.847 0 01-.532.173.89.89 0 01-.421-.104l-3.465-1.715-3.464 1.715a.973.973 0 01-.972-.07.83.83 0 01-.366-.848l.66-3.638-2.805-2.58a.812.812 0 01-.238-.884.904.904 0 01.733-.589l3.868-.537L29.37.442c.311-.59 1.338-.59 1.65 0l1.723 3.308zm-23.975 0l3.481.537a.956.956 0 01.71.59.872.872 0 01-.215.882L10.22 8.34l.594 3.638a.907.907 0 01-.33.849.713.713 0 01-.478.173.738.738 0 01-.38-.104l-3.118-1.715-3.118 1.715a.802.802 0 01-.874-.07c-.264-.19-.38-.519-.33-.848L2.78 8.34.256 5.76a.872.872 0 01-.215-.884.838.838 0 01.66-.589l3.481-.537L5.732.442c.281-.59 1.205-.59 1.486 0l1.55 3.308z" fill="#FFAA6B"/></svg>