<svg width="26" height="25" fill="none" xmlns="http://www.w3.org/2000/svg"><path d="M4.955 12.931H3.162a.431.431 0 010-.862h1.793a.431.431 0 110 .862zm17.495 0h-1.797a.431.431 0 010-.862h1.797a.431.431 0 010 .862zm-9.646 9.647a.431.431 0 01-.431-.431v-1.798a.43.43 0 11.862 0v1.798a.43.43 0 01-.431.43zm0-17.496a.431.431 0 01-.431-.431V2.858a.431.431 0 11.862 0V4.65a.43.43 0 01-.431.43z" fill="#000"/><path d="M12.804 25a12.5 12.5 0 110-25 12.5 12.5 0 010 25zm0-24.138a11.638 11.638 0 100 23.276 11.638 11.638 0 000-23.276z" fill="#000"/><path d="M12.804 22.578A10.078 10.078 0 1122.88 12.5a10.086 10.086 0 01-10.077 10.078zm0-19.29a9.216 9.216 0 100 18.432 9.216 9.216 0 000-18.431z" fill="#000"/><path d="M12.804 12.931a.431.431 0 01-.431-.431V6.392a.431.431 0 11.862 0V12.5a.431.431 0 01-.431.431z" fill="#000"/><path d="M8.493 17.242a.431.431 0 01-.301-.13.43.43 0 010-.607l4.31-4.31a.433.433 0 01.612.611l-4.31 4.31a.433.433 0 01-.31.126z" fill="#000"/></svg>