<svg width="26" height="26" fill="none" xmlns="http://www.w3.org/2000/svg"><path d="M5.803 10.353a.52.52 0 01.193.05.233.233 0 00.28-.04l2.493-2.494a.288.288 0 000-.406.352.352 0 010-.497l.68-.68a.352.352 0 01.498 0l.203.202 1.625-1.625a.99.99 0 000-1.406L9.612 1.293a.99.99 0 00-1.407 0L6.58 2.918l.168.168a.463.463 0 010 .65l-.523.523a.463.463 0 01-.65 0 .233.233 0 00-.33 0l-2.53 2.529a.24.24 0 000 .335.276.276 0 01.031.35c-3.265 4.825-.95 7.186-.95 7.186.29-2.113 2.072-4.073 3.82-4.306.055-.005.126-.005.187 0zm16.936 10.486L9.642 8.733l-2.376 2.376 12.1 13.097c.666.71 1.788.731 2.479.04l.934-.934a1.718 1.718 0 00-.04-2.473zm-17.444.751a1.854 1.854 0 000 2.626c.727.726 1.9.726 2.626 0l5.21-5.21-2.524-2.727-5.312 5.311zM25.242 7.57l-2.838 2.838a.8.8 0 01-.838.183l-1.59-.594a.784.784 0 01-.462-.462l-.594-1.59a.8.8 0 01.183-.837l2.838-2.839a4.508 4.508 0 00-4.29 1.209 4.53 4.53 0 00-1.011 4.768l-1.833 1.833 2.727 2.524 1.726-1.726a4.516 4.516 0 005.982-5.307z" stroke="#fff" stroke-width=".8" stroke-miterlimit="10" stroke-linecap="round" stroke-linejoin="round"/></svg>