<svg width="15" height="15" fill="none" xmlns="http://www.w3.org/2000/svg"><path d="M7.5 0a7.5 7.5 0 10.001 15.001A7.5 7.5 0 007.5 0zm0 13.728a6.229 6.229 0 010-12.456 6.229 6.229 0 010 12.456z" fill="#FFAA6B"/><path d="M6.83 11.183a.67.67 0 101.34 0 .67.67 0 00-1.34 0zM9.368 4.23A2.83 2.83 0 007.5 3.55c-.703 0-1.366.24-1.868.681-.523.457-.81 1.072-.81 1.73v.127c0 .073.06.134.133.134h.804c.073 0 .134-.06.134-.134V5.96c0-.739.721-1.34 1.607-1.34.885 0 1.607.601 1.607 1.34 0 .52-.368.997-.938 1.217a1.871 1.871 0 00-1.205 1.77v.36c0 .074.06.135.134.135h.804c.073 0 .134-.06.134-.134v-.38a.809.809 0 01.517-.75c.988-.38 1.625-1.25 1.625-2.218 0-.658-.288-1.273-.81-1.73z" fill="#FFAA6B"/></svg>