<svg width="27" height="27" fill="none" xmlns="http://www.w3.org/2000/svg"><path d="M5.927 10.84a.523.523 0 01.197.054.233.233 0 00.287-.043l2.557-2.623a.309.309 0 000-.428.378.378 0 010-.523l.698-.716a.355.355 0 01.51 0l.21.213 1.666-1.71a1.06 1.06 0 000-1.48L9.833 1.31a.998.998 0 00-1.443 0L6.723 3.02l.172.176a.496.496 0 010 .684l-.536.55a.466.466 0 01-.667 0 .235.235 0 00-.338 0L2.76 7.089a.256.256 0 000 .353c.093.097.11.251.031.369-3.35 5.076-.974 7.56-.974 7.56.297-2.222 2.125-4.285 3.917-4.53a1.17 1.17 0 01.193 0zm17.37 11.034L9.864 9.136l-2.437 2.5 12.412 13.78c.682.748 1.833.77 2.542.043l.958-.983a1.84 1.84 0 00-.042-2.602zm-17.891.791a1.987 1.987 0 000 2.762 1.868 1.868 0 002.693 0l5.344-5.482-2.589-2.87-5.448 5.59zM25.865 7.912L22.953 10.9a.805.805 0 01-.86.192l-1.63-.625a.814.814 0 01-.474-.486l-.609-1.672a.857.857 0 01.188-.882l2.911-2.987a4.546 4.546 0 00-4.401 1.272c-1.307 1.357-1.651 3.334-1.037 5.017l-1.88 1.929 2.797 2.655 1.771-1.816a4.55 4.55 0 004.917-1.085 4.835 4.835 0 001.219-4.499z" fill="#FFAA6B" stroke="#373738" stroke-width=".8" stroke-miterlimit="10" stroke-linecap="round" stroke-linejoin="round"/></svg>