<svg width="51" height="50" fill="none" xmlns="http://www.w3.org/2000/svg"><path d="M35.115 28.846a1.923 1.923 0 100 3.846h5.77a1.923 1.923 0 100-3.846h-5.77zM.5 5.77A5.77 5.77 0 016.27 0h32.21a6.25 6.25 0 016.25 6.25v1.935a8.658 8.658 0 015.77 8.161v25A8.653 8.653 0 0141.846 50H9.154A8.654 8.654 0 01.5 41.346V6.25h.02C.505 6.09.5 5.93.5 5.77zm41.346 5.77h-37.5v29.807a4.808 4.808 0 004.808 4.808h32.692a4.808 4.808 0 004.808-4.808v-25a4.808 4.808 0 00-4.808-4.807zm-.961-5.289a2.405 2.405 0 00-2.404-2.404H6.269a1.923 1.923 0 000 3.846h34.616V6.25z" fill="#fff"/></svg>