<svg width="30" height="30" fill="none" xmlns="http://www.w3.org/2000/svg"><path d="M15 30c8.284 0 15-6.716 15-15 0-8.284-6.716-15-15-15C6.716 0 0 6.716 0 15c0 8.284 6.716 15 15 15z" fill="#2DAAE1"/><path d="M23.858 7.776a7.775 7.775 0 01-2.444.92A3.866 3.866 0 0018.607 7.5c-2.124 0-3.846 1.696-3.846 3.787 0 .297.034.585.098.862a10.981 10.981 0 01-7.928-3.956 3.727 3.727 0 00-.521 1.904c0 1.313.68 2.472 1.712 3.15a3.891 3.891 0 01-1.743-.472v.047c0 1.835 1.326 3.365 3.086 3.714a3.927 3.927 0 01-1.738.064 3.846 3.846 0 003.594 2.63 7.797 7.797 0 01-4.778 1.621c-.311 0-.616-.018-.918-.053a11.021 11.021 0 005.897 1.701c7.076 0 10.945-5.769 10.945-10.773 0-.164-.003-.328-.01-.49a7.742 7.742 0 001.918-1.96c-.69.301-1.43.504-2.21.596a3.81 3.81 0 001.693-2.096z" fill="#fff"/><path d="M15 30c8.284 0 15-6.716 15-15 0-8.284-6.716-15-15-15C6.716 0 0 6.716 0 15c0 8.284 6.716 15 15 15z" fill="#2DAAE1"/><path d="M23.858 7.776a7.775 7.775 0 01-2.444.92A3.866 3.866 0 0018.607 7.5c-2.124 0-3.846 1.696-3.846 3.787 0 .297.034.585.098.862a10.981 10.981 0 01-7.928-3.956 3.727 3.727 0 00-.521 1.904c0 1.313.68 2.472 1.712 3.15a3.891 3.891 0 01-1.743-.472v.047c0 1.835 1.326 3.365 3.086 3.714a3.927 3.927 0 01-1.738.064 3.846 3.846 0 003.594 2.63 7.797 7.797 0 01-4.778 1.621c-.311 0-.616-.018-.918-.053a11.021 11.021 0 005.897 1.701c7.076 0 10.945-5.769 10.945-10.773 0-.164-.003-.328-.01-.49a7.742 7.742 0 001.918-1.96c-.69.301-1.43.504-2.21.596a3.81 3.81 0 001.693-2.096z" fill="#fff"/><path d="M15 30c8.284 0 15-6.716 15-15 0-8.284-6.716-15-15-15C6.716 0 0 6.716 0 15c0 8.284 6.716 15 15 15z" fill="#2DAAE1"/><path d="M23.858 7.776a7.775 7.775 0 01-2.444.92A3.866 3.866 0 0018.607 7.5c-2.124 0-3.846 1.696-3.846 3.787 0 .297.034.585.098.862a10.981 10.981 0 01-7.928-3.956 3.727 3.727 0 00-.521 1.904c0 1.313.68 2.472 1.712 3.15a3.891 3.891 0 01-1.743-.472v.047c0 1.835 1.326 3.365 3.086 3.714a3.927 3.927 0 01-1.738.064 3.846 3.846 0 003.594 2.63 7.797 7.797 0 01-4.778 1.621c-.311 0-.616-.018-.918-.053a11.021 11.021 0 005.897 1.701c7.076 0 10.945-5.769 10.945-10.773 0-.164-.003-.328-.01-.49a7.742 7.742 0 001.918-1.96c-.69.301-1.43.504-2.21.596a3.81 3.81 0 001.693-2.096z" fill="#fff"/></svg>