<svg width="24" height="27" fill="none" xmlns="http://www.w3.org/2000/svg"><path d="M3.072 6.383l1.143 18.94m-.001 0c0 .67.513 1.215 1.143 1.215m0 0h13.286m0 0c.63 0 1.143-.544 1.143-1.215m0 0l1.144-18.94H3.072M23 5.212c0 .642-.49 1.163-1.095 1.163m.001 0H2.095m0 0C1.492 6.375 1 5.855 1 5.212m0 0c0-.64.492-1.16 1.095-1.16m0-.001h19.81m0 0c.605 0 1.095.522 1.095 1.161m-7.548-1.18v-1.82m0 0c0-.668-.512-1.212-1.141-1.212m0 0h-4.62M9.69 1c-.63 0-1.141.544-1.141 1.212m0 0v1.82h6.903M6.965 8.807v14.926m3.356-14.926v14.926M13.68 8.807v14.926m3.355-14.926v14.926" stroke="#fff" stroke-width=".8" stroke-miterlimit="2.613" stroke-linecap="round" stroke-linejoin="round"/></svg>