<svg width="26" height="25" fill="none" xmlns="http://www.w3.org/2000/svg"><path d="M13.17 24.585c6.79 0 12.293-5.503 12.293-12.292C25.463 5.503 19.96 0 13.171 0 6.38 0 .878 5.504.878 12.293s5.504 12.292 12.293 12.292z" fill="#6BC45A"/><path d="M20.854 12.095c0 4.134-3.377 7.485-7.543 7.485a7.559 7.559 0 01-3.647-.931l-4.176 1.327 1.361-4.016a7.408 7.408 0 01-1.082-3.865c0-4.134 3.377-7.485 7.544-7.485 4.166 0 7.543 3.351 7.543 7.485zM13.31 5.802c-3.498 0-6.342 2.823-6.342 6.293 0 1.376.448 2.652 1.207 3.689l-.792 2.336 2.437-.774a6.336 6.336 0 003.49 1.04c3.496 0 6.341-2.822 6.341-6.292 0-3.469-2.845-6.292-6.341-6.292zm3.808 8.017c-.046-.077-.17-.123-.354-.215-.185-.091-1.095-.535-1.264-.596-.17-.061-.293-.092-.416.092-.123.183-.478.596-.586.719-.108.122-.215.137-.4.046-.185-.092-.78-.286-1.487-.911a5.515 5.515 0 01-1.029-1.27c-.108-.184-.01-.283.081-.374.084-.083.185-.215.278-.321.093-.108.123-.184.185-.307.062-.122.03-.229-.016-.321s-.416-.995-.57-1.362c-.154-.367-.307-.306-.415-.306-.108 0-.231-.015-.355-.015a.683.683 0 00-.493.23c-.17.183-.647.627-.647 1.53 0 .902.662 1.774.755 1.897.092.122 1.279 2.035 3.158 2.77 1.88.734 1.88.49 2.22.458.338-.03 1.093-.443 1.248-.872.153-.428.153-.796.107-.872z" fill="#fff"/></svg>