<svg width="37" height="39" fill="none" xmlns="http://www.w3.org/2000/svg"><path d="M18.236 27.114h-.032a.576.576 0 010-1.151h.032a.576.576 0 010 1.151zm-.032 5.902h-.035a.576.576 0 110-1.151h.035a.576.576 0 010 1.151z" fill="#000"/><path d="M8.84 29.552v8.283c-2.242-.004-4.478-.008-6.396-.008-.16 0-.309.001-.447.003-.316.002-.667.005-.846-.02.021-.306.246-1.049.373-1.47L4.63 26.096c.542-1.663 1.789-2.019 3.514-2.512.226-.064.46-.131.696-.203v6.171zM28.053 13.28c0 .323-.189.702-.505 1.014-.14.14-.298.256-.46.346.01-.13.015-.26.015-.39l.022-2.07h.661a.27.27 0 01.267.269v.83zM16.428 1.15h3.408c.428 0 .78.324.828.74v.01a.841.841 0 01.005.082v2.435a.833.833 0 01-.833.832H16.43a.833.833 0 01-.833-.832V1.983a.6.6 0 01.004-.074l.006-.049c.06-.4.405-.709.822-.709zm-1.984 1.49v1.777c0 1.094.89 1.983 1.984 1.983h3.408c1.094 0 1.984-.89 1.984-1.983V2.654a7.88 7.88 0 014.072 5.556H10.35a7.88 7.88 0 014.095-5.569zM8.848 14.294c-.316-.312-.505-.691-.505-1.014v-.831c0-.146.123-.269.27-.269h.659l.022 2.065c0 .13.005.263.014.396a2.151 2.151 0 01-.46-.347zm1.74 1.112a.573.573 0 00-.046-.212 5.029 5.029 0 01-.097-.956l-.022-2.057 6.584.004a.575.575 0 000-1.152l-7.164-.004h-.157a.384.384 0 01-.384-.383v-.902c0-.208.176-.383.383-.383h16.929c.207 0 .383.175.383.383v.902a.383.383 0 01-.383.383h-6.968a.576.576 0 000 1.151h6.328l-.023 2.065c0 .308-.034.624-.095.944a.578.578 0 00-.047.22v.002c-.598 2.568-3.017 5.339-5.725 6.348-.43.16-.821.271-1.198.333a4.165 4.165 0 01-1.373 0 6.322 6.322 0 01-1.189-.329c-2.714-1.008-5.138-3.781-5.737-6.357zm4.846 22.44c-1.652-.001-3.407-.005-5.125-.008H9.99V34.68h5.443v3.167zm0-4.317H9.99v-3.401h5.443v3.401zm0-4.553H9.99v-5.944l.649-.197 2.664 3.553c.42.547.965.84 1.555.84a1.817 1.817 0 00.575-.092v1.84zm.204-3.325c-.05.094-.355.39-.72.423-.094.008-.379.033-.696-.382l-2.41-3.213 2.145-.652.055.035c.608.401 1.25.735 1.911.98.261.098.513.177.758.243l-1.043 2.566zm4.176 3.901v8.296a1494.287 1494.287 0 01-3.229 0V26.304a1.21 1.21 0 00.117-.214l1.141-2.805c.119.008.238.014.356.014s.237-.006.356-.014l1.141 2.807c.029.069.07.14.118.212v3.248zm.946-3.901l-1.043-2.566a8.52 8.52 0 00.77-.247 9.485 9.485 0 001.954-1.013l2.146.652-2.409 3.211c-.32.419-.604.394-.698.386-.364-.032-.669-.33-.72-.423zm5.645 12.186h-.307c-1.721.004-3.48.008-5.133.01V34.68h5.44v3.157zm0-4.308h-5.44v-3.401h5.44v3.401zm0-4.553h-5.44v-1.84a1.93 1.93 0 00.574.092c.59 0 1.135-.293 1.557-.845l2.663-3.55.646.196v5.947zm9.577 7.028l-1.764-5.749a.575.575 0 10-1.101.338l1.764 5.749c.13.42.358 1.162.378 1.467-.18.026-.536.023-.857.02a48.692 48.692 0 00-.439-.002c-1.92 0-4.16.004-6.407.008V23.378c.241.073.479.141.709.207 1.724.493 2.97.849 3.51 2.51l.667 2.206a.576.576 0 001.102-.334l-.67-2.21a.132.132 0 00-.003-.01c-.727-2.25-2.458-2.745-4.29-3.27-.241-.068-.49-.14-.74-.215l-4.278-1.3c1.585-1.383 2.804-3.213 3.299-5.02.529-.11 1.063-.402 1.495-.829.539-.531.847-1.2.847-1.833v-.831c0-.679-.478-1.247-1.115-1.387a1.5 1.5 0 00.06-.416v-.902c0-.688-.455-1.27-1.08-1.465a9.083 9.083 0 00-5.362-6.954A1.987 1.987 0 0019.837 0h-3.409c-.858 0-1.59.548-1.866 1.312a9.074 9.074 0 00-5.394 6.99A1.535 1.535 0 008.15 9.743v.902c0 .153.023.3.065.44a1.422 1.422 0 00-1.024 1.363v.83c0 .634.309 1.303.847 1.834.433.428.967.72 1.496.83.496 1.808 1.716 3.638 3.301 5.021l-4.27 1.298c-.249.075-.498.146-.738.216-1.833.523-3.564 1.018-4.295 3.267 0 .004-.002.008-.003.011L.422 36.006c-.41 1.359-.592 2.034-.22 2.53.343.457.925.452 1.805.445.135-.002.28-.003.437-.003 2.047 0 4.458.005 6.851.01a.586.586 0 00.12.012h6.594c.009 0 .017 0 .026-.002a1833.525 1833.525 0 004.33 0l.024.002h6.592a.573.573 0 00.12-.013c2.397-.005 4.812-.009 6.862-.009.154 0 .297.002.43.003.887.007 1.473.012 1.816-.45.373-.499.19-1.172-.227-2.527z" fill="#000"/></svg>