<svg width="20" height="20" fill="none" xmlns="http://www.w3.org/2000/svg"><path fill-rule="evenodd" clip-rule="evenodd" d="M19.477 9.787C19.477 4.38 15.117 0 9.737 0 4.36 0 0 4.382 0 9.787c0 5.405 4.36 9.787 9.739 9.787 5.378 0 9.739-4.382 9.739-9.787z" fill="#FC3F1D"/><path fill-rule="evenodd" clip-rule="evenodd" d="M11.037 5.546h-.893c-1.663 0-2.516.856-2.516 2.08 0 1.387.609 2.039 1.826 2.895l1.015.694-2.922 4.404h-2.19l2.637-3.915C6.492 10.603 5.64 9.542 5.64 7.789c0-2.243 1.542-3.752 4.504-3.752h2.922V15.66h-2.03V5.546z" fill="#fff"/></svg>