<svg width="98" height="20" fill="none" xmlns="http://www.w3.org/2000/svg"><g clip-path="url(#clip0_524_1043)" fill-rule="evenodd" clip-rule="evenodd"><path d="M19.477 9.787C19.477 4.38 15.117 0 9.737 0 4.36 0 0 4.382 0 9.787c0 5.405 4.36 9.787 9.739 9.787 5.378 0 9.739-4.382 9.739-9.787z" fill="#FC3F1D"/><path d="M11.037 5.546h-.893c-1.663 0-2.516.856-2.516 2.08 0 1.387.609 2.039 1.826 2.895l1.015.694-2.922 4.404h-2.19l2.637-3.915C6.492 10.603 5.64 9.542 5.64 7.789c0-2.243 1.542-3.752 4.504-3.752h2.922V15.66h-2.03V5.546z" fill="#fff"/><path d="M30.776.018c-4.318 0-7.819 3.518-7.819 7.858 0 2.17.875 4.134 2.289 5.556 1.415 1.422 4.748 3.481 4.943 5.642.03.324.264.59.587.59.324 0 .557-.266.587-.59.195-2.161 3.528-4.22 4.943-5.642a7.855 7.855 0 002.289-5.556c0-4.34-3.5-7.858-7.819-7.858z" fill="#F43"/><path d="M30.776 10.627a2.743 2.743 0 002.736-2.75c0-1.52-1.224-2.75-2.736-2.75a2.743 2.743 0 00-2.736 2.75 2.743 2.743 0 002.736 2.75z" fill="#fff"/><path d="M90.203 14.942H89.04v-3.415h1.223c1.077 0 1.709.488 1.709 1.718s-.699 1.697-1.769 1.697zm5.285-8.666v10.657h2.513V6.276h-2.513zm-8.955 0v10.657h3.816c2.467 0 4.215-1.27 4.215-3.775 0-2.372-1.562-3.621-4.175-3.621h-1.35V6.276h-2.506zm-1.476 1.991V6.276h-8.41v1.991H79.6v8.666h2.507V8.267h2.951zM71.468 15.15c-1.33 0-2.007-1.076-2.007-3.535 0-2.48.718-3.555 2.134-3.555 1.369 0 2.04 1.076 2.04 3.535 0 2.479-.717 3.554-2.167 3.554zm-2.194-8.874h-2.32V20h2.507v-4.316c.638.948 1.562 1.456 2.639 1.456 2.44 0 4.129-1.964 4.129-5.546 0-3.561-1.643-5.525-4.003-5.525-1.183 0-2.154.547-2.825 1.583l-.126-1.376zm-6.847 8.112c-.32.467-.911.848-1.795.848-1.05 0-1.583-.594-1.583-1.503 0-1.21.865-1.65 3.019-1.65h.359v2.305zm2.506-4.724c0-2.58-1.31-3.555-3.962-3.555-1.662 0-2.972.528-3.73.976v2.098c.671-.515 2.147-1.063 3.437-1.063 1.197 0 1.749.421 1.749 1.57v.588h-.406c-3.836 0-5.538 1.277-5.538 3.435 0 2.158 1.303 3.368 3.245 3.368 1.475 0 2.107-.488 2.592-.996h.107c.02.274.106.635.186.848h2.446a26.304 26.304 0 01-.126-2.605V9.664zm-11.528 7.27h2.972l-5.206-7.731 4.72-6.99H53.3L48.765 8.99V2.214h-2.547v14.72h2.547v-6.91l4.64 6.91z" fill="#000"/></g><defs><clipPath id="clip0_524_1043"><path fill="#fff" d="M0 0h98v20H0z"/></clipPath></defs></svg>