<svg width="55" height="18" fill="none" xmlns="http://www.w3.org/2000/svg"><path d="M1.897 14.84a3.35 3.35 0 001.173.203c1.933 0 2.715-1.326 3.806-3.956L11.217.667H8.892L5.95 8.17 2.905.667H.333l4.362 10.44c-.432 1.04-.864 1.754-1.852 1.754-.452 0-.74-.061-.946-.142v2.12zm13.046.203c1.132 0 1.934-.204 2.53-.632v-1.978c-.616.429-1.357.694-2.386.694-1.75 0-2.47-1.346-2.47-3.467 0-2.223.886-3.365 2.49-3.365.948 0 1.873.327 2.367.633V4.867c-.515-.286-1.42-.49-2.633-.49-3.128 0-4.754 2.223-4.754 5.343 0 3.426 1.585 5.323 4.856 5.323zm3.252-2.304v2.1s.39.204.967.204c2.099 0 2.633-1.468 2.757-4.873l.144-3.671h2.49v8.34H27V4.583h-7.016l-.206 5.485c-.082 2.182-.226 2.855-1.028 2.855-.35 0-.556-.184-.556-.184zM30.381 18c2.284 0 3.127-1.61 3.827-3.711l3.23-9.707h-2.366l-2.284 7.708-2.283-7.708h-2.572l3.559 10.706c-.267.49-.659.795-1.337.795-.453 0-.844-.142-1.112-.408v1.978s.37.347 1.338.347zm7.986-13.418v10.257h2.448V6.5h3.786V4.581h-6.234v.001zm7.675 0v10.257h2.12l3.785-6.342v6.342h2.386V4.582h-2.12l-3.784 6.342V4.582h-2.387z" fill="#000"/></svg>