<svg width="98" height="20" fill="none" xmlns="http://www.w3.org/2000/svg"><g clip-path="url(#clip0_524_1052)"><path d="M18.667 9.333A9.333 9.333 0 100 9.333a9.333 9.333 0 0018.667 0z" fill="#000"/><path d="M10.529 5.288h-.862c-1.581 0-2.413.8-2.413 1.981 0 1.335.575 1.962 1.755 2.762l.976.657-2.803 4.189H5.088l2.515-3.747c-1.448-1.037-2.258-2.043-2.258-3.747 0-2.136 1.488-3.594 4.312-3.594h2.802v11.078h-1.93V5.288z" fill="#fff"/><path d="M44.897 16.84a3.35 3.35 0 001.173.203c1.933 0 2.715-1.326 3.806-3.956l4.341-10.42h-2.325L48.95 10.17l-3.045-7.504h-2.572l4.362 10.44c-.432 1.04-.864 1.754-1.852 1.754-.452 0-.74-.061-.946-.142v2.12zm13.046.203c1.132 0 1.934-.204 2.53-.632v-1.978c-.616.429-1.357.694-2.386.694-1.75 0-2.47-1.346-2.47-3.467 0-2.223.886-3.365 2.49-3.365.948 0 1.873.327 2.367.633V6.867c-.515-.286-1.42-.49-2.633-.49-3.128 0-4.754 2.223-4.754 5.343 0 3.426 1.585 5.323 4.856 5.323zm3.252-2.304v2.1s.39.204.967.204c2.099 0 2.633-1.468 2.757-4.873l.144-3.671h2.49v8.34H70V6.583h-7.016l-.206 5.485c-.082 2.182-.226 2.855-1.028 2.855-.35 0-.556-.184-.556-.184zM73.381 20c2.284 0 3.127-1.61 3.827-3.711l3.23-9.707h-2.366l-2.284 7.708-2.283-7.708h-2.572l3.559 10.706c-.267.49-.659.795-1.337.795-.453 0-.844-.142-1.112-.408v1.978s.37.347 1.338.347zm7.986-13.418v10.257h2.448V8.5h3.786V6.581h-6.234v.001zm7.675 0v10.257h2.12l3.785-6.342v6.342h2.386V6.582h-2.12l-3.784 6.342V6.582h-2.387z" fill="#000"/><path d="M29.333 18.667a9.333 9.333 0 100-18.667 9.333 9.333 0 000 18.667z" fill="#242729"/><path d="M26.51 3.265a4.64 4.64 0 004.986 7.826l6.81-4.338a9.35 9.35 0 00-7-6.544L26.51 3.265z" fill="#FF9D7C"/><path d="M26.51 3.265a4.64 4.64 0 004.986 7.826l6.81-4.338a9.35 9.35 0 00-7-6.544L26.51 3.265z" fill="#FF6432"/><path d="M26.51 3.265a4.64 4.64 0 004.986 7.826l6.81-4.338a9.35 9.35 0 00-7-6.544L26.51 3.265z" fill="url(#paint0_radial_524_1052)"/><path d="M26.51 3.265a4.64 4.64 0 004.986 7.826l6.81-4.338a9.35 9.35 0 00-7-6.544L26.51 3.265z" fill="url(#paint1_linear_524_1052)"/><path d="M20.36 11.91l6.812-4.34a4.64 4.64 0 014.985 7.825l-4.804 3.06a9.348 9.348 0 01-6.993-6.546z" fill="#FFE66E"/><path d="M20.36 11.91l6.812-4.34a4.64 4.64 0 014.985 7.825l-4.804 3.06a9.348 9.348 0 01-6.993-6.546z" fill="url(#paint2_linear_524_1052)"/></g><defs><linearGradient id="paint1_linear_524_1052" x1="27.787" y1="10.601" x2="34.261" y2="-5.023" gradientUnits="userSpaceOnUse"><stop stop-color="#FF8140" stop-opacity="0"/><stop offset=".067" stop-color="#FF8140" stop-opacity=".01"/><stop offset=".133" stop-color="#FF8140" stop-opacity=".036"/><stop offset=".2" stop-color="#FF8140" stop-opacity=".082"/><stop offset=".267" stop-color="#FF8140" stop-opacity=".147"/><stop offset=".333" stop-color="#FF8140" stop-opacity=".232"/><stop offset=".4" stop-color="#FF8140" stop-opacity=".332"/><stop offset=".467" stop-color="#FF8140" stop-opacity=".443"/><stop offset=".533" stop-color="#FF8140" stop-opacity=".557"/><stop offset=".6" stop-color="#FF8140" stop-opacity=".668"/><stop offset=".667" stop-color="#FF8140" stop-opacity=".768"/><stop offset=".733" stop-color="#FF8140" stop-opacity=".853"/><stop offset=".8" stop-color="#FF8140" stop-opacity=".918"/><stop offset=".867" stop-color="#FF8140" stop-opacity=".964"/><stop offset=".933" stop-color="#FF8140" stop-opacity=".991"/><stop offset="1" stop-color="#FF8140"/></linearGradient><linearGradient id="paint2_linear_524_1052" x1="28.065" y1="10.577" x2="21.913" y2="19.361" gradientUnits="userSpaceOnUse"><stop stop-color="#FFD750" stop-opacity="0"/><stop offset="1" stop-color="#FFD750"/></linearGradient><radialGradient id="paint0_radial_524_1052" cx="0" cy="0" r="1" gradientUnits="userSpaceOnUse" gradientTransform="matrix(9.16793 -6.39157 4.7037 6.74688 27.188 13.004)"><stop stop-color="#CC0700" stop-opacity=".97"/><stop offset=".067" stop-color="#CC0700" stop-opacity=".962"/><stop offset=".133" stop-color="#CC0700" stop-opacity=".936"/><stop offset=".2" stop-color="#CC0700" stop-opacity=".891"/><stop offset=".267" stop-color="#CC0700" stop-opacity=".827"/><stop offset=".333" stop-color="#CC0700" stop-opacity=".745"/><stop offset=".4" stop-color="#CC0700" stop-opacity=".648"/><stop offset=".467" stop-color="#CC0700" stop-opacity=".541"/><stop offset=".533" stop-color="#CC0700" stop-opacity=".429"/><stop offset=".6" stop-color="#CC0700" stop-opacity=".322"/><stop offset=".667" stop-color="#CC0700" stop-opacity=".225"/><stop offset=".733" stop-color="#CC0700" stop-opacity=".143"/><stop offset=".8" stop-color="#CC0700" stop-opacity=".079"/><stop offset=".867" stop-color="#CC0700" stop-opacity=".034"/><stop offset=".933" stop-color="#CC0700" stop-opacity=".01"/><stop offset="1" stop-color="#CC0700" stop-opacity="0"/></radialGradient><clipPath id="clip0_524_1052"><path fill="#fff" d="M0 0h98v20H0z"/></clipPath></defs></svg>