<svg width="19" height="19" fill="none" xmlns="http://www.w3.org/2000/svg"><path d="M9.333 18.667A9.333 9.333 0 109.333 0a9.333 9.333 0 000 18.667z" fill="#242729"/><path d="M6.51 3.265a4.64 4.64 0 004.986 7.826l6.81-4.338a9.35 9.35 0 00-7-6.544L6.511 3.265z" fill="#FF9D7C"/><path d="M6.51 3.265a4.64 4.64 0 004.986 7.826l6.81-4.338a9.35 9.35 0 00-7-6.544L6.511 3.265z" fill="#FF6432"/><path d="M6.51 3.265a4.64 4.64 0 004.986 7.826l6.81-4.338a9.35 9.35 0 00-7-6.544L6.511 3.265z" fill="url(#paint0_radial_1702_1137)"/><path d="M6.51 3.265a4.64 4.64 0 004.986 7.826l6.81-4.338a9.35 9.35 0 00-7-6.544L6.511 3.265z" fill="url(#paint1_linear_1702_1137)"/><path d="M.36 11.91l6.812-4.34a4.64 4.64 0 114.985 7.825l-4.804 3.06A9.349 9.349 0 01.36 11.91z" fill="#FFE66E"/><path d="M.36 11.91l6.812-4.34a4.64 4.64 0 114.985 7.825l-4.804 3.06A9.349 9.349 0 01.36 11.91z" fill="url(#paint2_linear_1702_1137)"/><defs><linearGradient id="paint1_linear_1702_1137" x1="7.787" y1="10.601" x2="14.261" y2="-5.023" gradientUnits="userSpaceOnUse"><stop stop-color="#FF8140" stop-opacity="0"/><stop offset=".067" stop-color="#FF8140" stop-opacity=".01"/><stop offset=".133" stop-color="#FF8140" stop-opacity=".036"/><stop offset=".2" stop-color="#FF8140" stop-opacity=".082"/><stop offset=".267" stop-color="#FF8140" stop-opacity=".147"/><stop offset=".333" stop-color="#FF8140" stop-opacity=".232"/><stop offset=".4" stop-color="#FF8140" stop-opacity=".332"/><stop offset=".467" stop-color="#FF8140" stop-opacity=".443"/><stop offset=".533" stop-color="#FF8140" stop-opacity=".557"/><stop offset=".6" stop-color="#FF8140" stop-opacity=".668"/><stop offset=".667" stop-color="#FF8140" stop-opacity=".768"/><stop offset=".733" stop-color="#FF8140" stop-opacity=".853"/><stop offset=".8" stop-color="#FF8140" stop-opacity=".918"/><stop offset=".867" stop-color="#FF8140" stop-opacity=".964"/><stop offset=".933" stop-color="#FF8140" stop-opacity=".991"/><stop offset="1" stop-color="#FF8140"/></linearGradient><linearGradient id="paint2_linear_1702_1137" x1="8.065" y1="10.577" x2="1.913" y2="19.361" gradientUnits="userSpaceOnUse"><stop stop-color="#FFD750" stop-opacity="0"/><stop offset="1" stop-color="#FFD750"/></linearGradient><radialGradient id="paint0_radial_1702_1137" cx="0" cy="0" r="1" gradientUnits="userSpaceOnUse" gradientTransform="matrix(9.16793 -6.39157 4.7037 6.74688 7.188 13.004)"><stop stop-color="#CC0700" stop-opacity=".97"/><stop offset=".067" stop-color="#CC0700" stop-opacity=".962"/><stop offset=".133" stop-color="#CC0700" stop-opacity=".936"/><stop offset=".2" stop-color="#CC0700" stop-opacity=".891"/><stop offset=".267" stop-color="#CC0700" stop-opacity=".827"/><stop offset=".333" stop-color="#CC0700" stop-opacity=".745"/><stop offset=".4" stop-color="#CC0700" stop-opacity=".648"/><stop offset=".467" stop-color="#CC0700" stop-opacity=".541"/><stop offset=".533" stop-color="#CC0700" stop-opacity=".429"/><stop offset=".6" stop-color="#CC0700" stop-opacity=".322"/><stop offset=".667" stop-color="#CC0700" stop-opacity=".225"/><stop offset=".733" stop-color="#CC0700" stop-opacity=".143"/><stop offset=".8" stop-color="#CC0700" stop-opacity=".079"/><stop offset=".867" stop-color="#CC0700" stop-opacity=".034"/><stop offset=".933" stop-color="#CC0700" stop-opacity=".01"/><stop offset="1" stop-color="#CC0700" stop-opacity="0"/></radialGradient></defs></svg>