<svg width="30" height="30" fill="none" xmlns="http://www.w3.org/2000/svg"><path d="M15 30c8.284 0 15-6.716 15-15 0-8.284-6.716-15-15-15C6.716 0 0 6.716 0 15c0 8.284 6.716 15 15 15z" fill="#FE3432"/><path d="M24.187 11.09s-.183-1.348-.745-1.94c-.713-.778-1.512-.783-1.877-.828-2.626-.197-6.56-.197-6.56-.197h-.009s-3.937 0-6.56.197c-.366.045-1.164.05-1.878.828-.562.593-.745 1.941-.745 1.941s-.188 1.582-.188 3.164v1.482c0 1.584.188 3.166.188 3.166s.183 1.347.745 1.94c.714.779 1.651.754 2.068.835 1.5.15 6.374.197 6.374.197s3.94-.008 6.565-.204c.365-.045 1.164-.05 1.877-.828.562-.594.745-1.94.745-1.94s.188-1.582.188-3.165v-1.483c0-1.583-.188-3.164-.188-3.164zm-11.122 6.446l-.001-5.493 5.065 2.757-5.064 2.736z" fill="#fff"/><path d="M15 30c8.284 0 15-6.716 15-15 0-8.284-6.716-15-15-15C6.716 0 0 6.716 0 15c0 8.284 6.716 15 15 15z" fill="#FE3432"/><path d="M24.187 11.09s-.183-1.348-.745-1.94c-.713-.778-1.512-.783-1.877-.828-2.626-.197-6.56-.197-6.56-.197h-.009s-3.937 0-6.56.197c-.366.045-1.164.05-1.878.828-.562.593-.745 1.941-.745 1.941s-.188 1.582-.188 3.164v1.482c0 1.584.188 3.166.188 3.166s.183 1.347.745 1.94c.714.779 1.651.754 2.068.835 1.5.15 6.374.197 6.374.197s3.94-.008 6.565-.204c.365-.045 1.164-.05 1.877-.828.562-.594.745-1.94.745-1.94s.188-1.582.188-3.165v-1.483c0-1.583-.188-3.164-.188-3.164zm-11.122 6.446l-.001-5.493 5.065 2.757-5.064 2.736z" fill="#fff"/><path d="M15 30c8.284 0 15-6.716 15-15 0-8.284-6.716-15-15-15C6.716 0 0 6.716 0 15c0 8.284 6.716 15 15 15z" fill="#FE3432"/><path d="M24.187 11.09s-.183-1.348-.745-1.94c-.713-.778-1.512-.783-1.877-.828-2.626-.197-6.56-.197-6.56-.197h-.009s-3.937 0-6.56.197c-.366.045-1.164.05-1.878.828-.562.593-.745 1.941-.745 1.941s-.188 1.582-.188 3.164v1.482c0 1.584.188 3.166.188 3.166s.183 1.347.745 1.94c.714.779 1.651.754 2.068.835 1.5.15 6.374.197 6.374.197s3.94-.008 6.565-.204c.365-.045 1.164-.05 1.877-.828.562-.594.745-1.94.745-1.94s.188-1.582.188-3.165v-1.483c0-1.583-.188-3.164-.188-3.164zm-11.122 6.446l-.001-5.493 5.065 2.757-5.064 2.736z" fill="#fff"/></svg>