<svg width="25" height="25" viewBox="0 0 25 25" fill="none" xmlns="http://www.w3.org/2000/svg">
<path d="M24.7718 8.58678L24.2211 8.03614C23.9169 7.73193 23.4236 7.73193 23.1193 8.03614L18.7539 12.401V0.787674C18.7539 0.356148 18.4044 0.00663143 17.9728 0.00663143H6.25573C5.99053 0.00663143 5.72729 -0.0402311 5.57185 0.115196L0.11521 5.57117C-0.040236 5.7266 0.00663223 5.96521 0.00663223 6.25497V24.219C0.00663223 24.6505 0.356191 25 0.78777 25H17.9728C18.4044 25 18.7539 24.6505 18.7539 24.219V15.7056L24.7718 9.68844C25.0761 9.38422 25.0761 8.89099 24.7718 8.58678ZM5.47459 1.33792V5.47393H1.33808L5.47459 1.33792ZM17.9728 24.219H0.78777V6.25497H5.86516C6.08076 6.25497 6.25573 6.08002 6.25573 5.86445V0.787674H17.9728V13.182L14.6725 16.4819C14.61 16.4394 14.5389 16.4089 14.4577 16.4089H4.30289C4.08729 16.4089 3.91232 16.5839 3.91232 16.7994C3.91232 17.015 4.08729 17.19 4.30289 17.19H13.9648L11.6178 19.5366C11.4702 19.5577 11.3464 19.6596 11.3113 19.8135L10.9836 21.2463C10.934 21.3342 10.9199 21.4439 10.9535 21.5544C10.9648 21.5919 10.9867 21.6236 11.007 21.6556C11.0101 21.661 11.0121 21.6661 11.0152 21.6712C11.0332 21.6978 11.0543 21.7196 11.0773 21.7415C11.0992 21.7641 11.121 21.7852 11.1476 21.8032C11.1527 21.8063 11.1581 21.8087 11.1636 21.8118C11.196 21.8321 11.2273 21.8536 11.2648 21.8653C11.3753 21.8993 11.4847 21.8848 11.5725 21.8352L13.0055 21.5076C13.1696 21.4701 13.2754 21.3334 13.2864 21.1729L17.9732 16.4866V24.219H17.9728ZM12.6025 20.7543L11.9041 20.914L12.0709 20.1841L23.6696 8.58678L24.2203 9.13741L12.6025 20.7543ZM4.3025 9.37914H14.4573C14.6729 9.37914 14.8479 9.20419 14.8479 8.98862C14.8479 8.77306 14.6729 8.5981 14.4573 8.5981H4.3025C4.0869 8.5981 3.91193 8.77306 3.91193 8.98862C3.91193 9.20419 4.0869 9.37914 4.3025 9.37914ZM4.3025 13.2844H14.4573C14.6729 13.2844 14.8479 13.1094 14.8479 12.8938C14.8479 12.6783 14.6729 12.5033 14.4573 12.5033H4.3025C4.0869 12.5033 3.91193 12.6783 3.91193 12.8938C3.91193 13.1094 4.0869 13.2844 4.3025 13.2844Z" fill="#FFAA6B"/>
</svg>
