<svg width="30" height="30" viewBox="0 0 30 30" fill="none" xmlns="http://www.w3.org/2000/svg">
<mask id="mask0_524_1030" style="mask-type:luminance" maskUnits="userSpaceOnUse" x="0" y="0" width="30" height="30">
<path d="M30 0H0V30H30V0Z" fill="white"/>
</mask>
<g mask="url(#mask0_524_1030)">
<path d="M21.75 17.7C26.2875 17.7 30 14.004 30 9.44995C30 4.89595 26.2875 1.19995 21.75 1.19995C17.196 1.19995 13.5 4.89595 13.5 9.44995C13.5 14.004 17.196 17.7 21.75 17.7Z" fill="#299400"/>
<path d="M21.8324 4.005C24.5845 4.005 26.4524 6.10051 26.4524 8.36101C26.4524 9.26851 26.2523 10.0605 25.7855 11.0505C23.05 11.0505 22.5496 12.849 22.4326 14.0535L22.3501 15.06H21.3154L21.2323 14.0535C21.1154 12.849 20.6149 11.0505 17.8793 11.0505C17.4125 10.0605 17.2124 9.26851 17.2124 8.36101C17.2124 6.10051 19.0804 4.005 21.8324 4.005Z" fill="white"/>
<path d="M12.8245 10.5C11.2672 10.5008 9.74501 10.9586 8.45029 11.8157C7.15556 12.6726 6.14636 13.8904 5.55016 15.315C4.95397 16.7397 4.79752 18.3072 5.10058 19.82C5.40362 21.3326 6.1526 22.7225 7.25288 23.8137C8.67949 25.2264 12.0368 27.27 12.2355 29.4168C12.2652 29.7375 12.5006 30 12.8245 30C13.1483 30 13.3847 29.7375 13.4135 29.4168C13.6123 27.27 16.9669 25.2299 18.3926 23.8181C19.4942 22.7271 20.2444 21.3374 20.5484 19.8243C20.8525 18.3113 20.6966 16.7428 20.1007 15.3174C19.5047 13.892 18.4955 12.6736 17.2004 11.8161C15.9052 10.9586 14.3825 10.5007 12.8245 10.5ZM12.8245 20.9685C12.4706 20.9685 12.1202 20.8994 11.7932 20.7653C11.4663 20.6312 11.1692 20.4346 10.919 20.1868C10.6688 19.939 10.4702 19.6449 10.3349 19.3212C10.1994 18.9975 10.1297 18.6504 10.1297 18.3C10.1297 17.9496 10.1994 17.6027 10.3349 17.2788C10.4702 16.9551 10.6688 16.6608 10.919 16.413C11.1692 16.1653 11.4663 15.9687 11.7932 15.8346C12.1202 15.7005 12.4706 15.6315 12.8245 15.6315C13.5392 15.6315 14.2247 15.9126 14.7301 16.413C15.2354 16.9135 15.5194 17.5923 15.5194 18.3C15.5194 19.0077 15.2354 19.6865 14.7301 20.1868C14.2247 20.6872 13.5392 20.9685 12.8245 20.9685Z" fill="#FF4433"/>
<path d="M14.5084 7.64828C14.5084 7.14052 14.4671 6.62902 14.3794 6.12952H7.32715V9.00878H11.3651C11.2824 9.46868 11.1074 9.90706 10.8506 10.2975C10.5938 10.688 10.2607 11.0224 9.87112 11.2805V13.148H12.2801C13.6954 11.8468 14.5076 9.92303 14.5076 7.64828H14.5084Z" fill="#2A84FC"/>
<path d="M7.47716 14.9533C9.49313 14.9533 11.1941 14.2918 12.4331 13.1488L10.0234 11.2805C9.35288 11.7365 8.48813 11.9945 7.47941 11.9945C5.52941 11.9945 3.87491 10.679 3.28166 8.90979H0.79541V10.8358C1.41817 12.0739 2.37277 13.1146 3.55264 13.8416C4.73252 14.5687 6.09125 14.9536 7.47716 14.9533Z" fill="#00AC47"/>
<path d="M3.27948 8.90975C2.96625 7.98118 2.96625 6.97555 3.27948 6.04699V4.12024H0.79548C0.2724 5.16211 0 6.3118 0 7.47761C0 8.64343 0.2724 9.7931 0.79548 10.835L3.27948 8.909V8.90975Z" fill="#FFBA00"/>
<path d="M7.47716 2.95926C8.54318 2.94199 9.57323 3.34443 10.3451 4.07977L12.4796 1.94526C11.126 0.675222 9.33323 -0.0216918 7.47716 0.000514849C6.09095 0.000156797 4.73195 0.385251 3.55201 1.11277C2.37206 1.84029 1.41765 2.88157 0.79541 4.12027L3.27941 6.04777C3.86966 4.27553 5.52641 2.96002 7.47716 2.96002V2.95926Z" fill="#FC2C25"/>
</g>
</svg>
