<svg width="25" height="25" viewBox="0 0 25 25" fill="none" xmlns="http://www.w3.org/2000/svg">
<path d="M18.7891 19.043L15.8203 17.5977L14.8438 17.1289V16.8164C15.9375 16.0742 17.1484 14.6289 18.1641 11.9141C18.6914 11.8945 19.1406 11.6602 19.4141 11.2695C19.7461 10.8008 19.8047 10.1758 19.5703 9.66797C19.4922 9.49219 19.375 9.35547 19.2578 9.23828H19.7266V7.36328L18.8867 7.12891V7.01172C18.8867 4.57031 17.5 2.36328 15.3125 1.28906C15.1953 0.859375 14.8242 0.546875 14.3555 0.546875H12.8906V0.195312H12.1094V0.527344H10.6445C10.1758 0.527344 9.80469 0.839844 9.6875 1.26953C7.5 2.34375 6.11328 4.57031 6.11328 6.99219V7.10938L5.27344 7.36328V9.23828H5.74219C5.60547 9.35547 5.50781 9.51172 5.42969 9.66797C5.19531 10.1758 5.25391 10.8008 5.58594 11.2695C5.87891 11.6797 6.32812 11.8945 6.83594 11.9141C7.85156 14.6289 9.08203 16.0547 10.1562 16.8164V17.1289L9.43359 17.4805L6.21094 19.043C5.41016 19.4336 4.88281 20.2539 4.88281 21.1523V24.6094H20.1172V21.1523C20.1172 20.2539 19.5898 19.4336 18.7891 19.043ZM14.043 17.6367C14.0234 17.7344 14.0039 17.8125 13.9844 17.9102V17.9297C13.9648 17.9688 13.9648 17.9883 13.9453 18.0273C13.9453 18.0469 13.9258 18.0664 13.9258 18.0859C13.9063 18.1055 13.9062 18.125 13.8867 18.1445C13.8672 18.1836 13.8477 18.2227 13.8281 18.2422C13.8281 18.2422 13.8281 18.2422 13.8281 18.2617C13.6523 18.5156 13.418 18.7109 13.1445 18.8281C13.1445 18.8281 13.1445 18.8281 13.125 18.8281C13.0859 18.8477 13.0469 18.8672 13.0078 18.8672H12.9883C12.9492 18.8867 12.9102 18.8867 12.8711 18.8867C12.8516 18.8867 12.8516 18.8867 12.832 18.8867C12.793 18.8867 12.7539 18.9062 12.7148 18.9062C12.6953 18.9062 12.6953 18.9062 12.6758 18.9062C12.6172 18.9062 12.5781 18.9062 12.5195 18.9062C11.6602 18.9062 10.957 18.2031 10.957 17.3438V17.2266C11.6016 17.5195 12.1484 17.5781 12.5195 17.5781C12.8906 17.5781 13.4375 17.5195 14.082 17.2266V17.3828C14.0625 17.4219 14.043 17.5391 14.043 17.6367ZM18.7891 10.8203C18.7109 10.918 18.6133 11.0352 18.4375 11.0938C18.5352 10.6641 18.6133 10.1953 18.6523 9.76562C18.75 9.82422 18.8281 9.90234 18.8672 10.0195C18.9844 10.2539 18.9648 10.5859 18.7891 10.8203ZM6.05469 7.94922L6.89453 7.71484V7.01172C6.89453 5.01953 7.96875 3.18359 9.64844 2.1875V4.53125H10.4297V1.52344C10.4297 1.40625 10.5273 1.30859 10.6445 1.30859H12.1094V5.80078H12.8906V1.30859H14.3555C14.4727 1.30859 14.5703 1.40625 14.5703 1.52344V4.51172H15.3516V2.16797C17.0508 3.16406 18.1055 5 18.1055 6.99219V7.69531L18.9453 7.92969V8.4375H6.05469V7.94922ZM6.21094 10.8203C6.03516 10.5859 6.01562 10.2539 6.13281 10.0195C6.19141 9.92188 6.25 9.82422 6.34766 9.76562C6.38672 10.2539 6.48438 10.6836 6.58203 11.0938C6.40625 11.0352 6.28906 10.918 6.21094 10.8203ZM7.48047 11.4062C7.30469 10.7617 7.12891 10.0781 7.08984 9.23828H17.9102C17.8906 9.86328 17.7539 10.8008 17.5391 11.3867C15.7813 16.2891 13.4375 16.8164 12.5 16.8164C11.582 16.8359 9.23828 16.3086 7.48047 11.4062ZM19.3359 23.8281H17.5781V23.2422H16.7969V23.8281H8.20312V23.2422H7.42188V23.8281H5.66406V21.1523C5.66406 20.5469 6.01562 20 6.54297 19.7461L10.2344 17.9688C10.2344 17.9883 10.2539 18.0078 10.2539 18.0273C10.2539 18.0469 10.2734 18.0859 10.2734 18.1055C10.293 18.1445 10.3125 18.2031 10.332 18.2422C10.332 18.2617 10.3516 18.2812 10.3516 18.3008C10.3711 18.3594 10.4102 18.418 10.4297 18.457C10.4297 18.457 10.4297 18.4766 10.4492 18.4766C10.4883 18.5352 10.5273 18.5938 10.5664 18.6523C10.5859 18.6719 10.5859 18.6914 10.6055 18.7109C10.625 18.75 10.6641 18.7891 10.7031 18.8281C10.7227 18.8477 10.7422 18.8672 10.7617 18.8867C10.7812 18.9258 10.8203 18.9453 10.8594 18.9844C10.8789 19.0039 10.8984 19.0234 10.918 19.043C10.957 19.082 10.9766 19.1016 11.0156 19.1406C11.0352 19.1602 11.0547 19.1797 11.0742 19.1992C11.1133 19.2383 11.1523 19.2578 11.1914 19.2969C11.2109 19.3164 11.2305 19.3164 11.2305 19.3359C11.2891 19.375 11.3477 19.4141 11.4063 19.4531C11.4258 19.4531 11.4258 19.4727 11.4453 19.4727C11.5039 19.4922 11.543 19.5312 11.6016 19.5508C11.6211 19.5703 11.6406 19.5703 11.6797 19.5703C11.7188 19.5898 11.7578 19.6094 11.8164 19.6094C11.8359 19.6094 11.875 19.6289 11.8945 19.6289C11.9336 19.6484 11.9922 19.6484 12.0312 19.668C12.0508 19.668 12.0898 19.6875 12.1094 19.6875C12.1484 19.6875 12.207 19.707 12.2656 19.707C12.2852 19.707 12.3047 19.707 12.3438 19.707C12.4219 19.707 12.5 19.7266 12.5586 19.7266C12.6367 19.7266 12.6953 19.7266 12.7734 19.7266C12.8125 19.7266 12.8516 19.7266 12.8711 19.707C12.9102 19.707 12.9297 19.707 12.9688 19.6875C13.0078 19.6875 13.0664 19.668 13.1055 19.6484C13.125 19.6484 13.1445 19.6484 13.1641 19.6289C13.2227 19.6094 13.2617 19.5898 13.3203 19.5898C13.3398 19.5898 13.3398 19.5898 13.3594 19.5703C13.418 19.5508 13.4766 19.5312 13.5156 19.5117H13.5352C13.5938 19.4922 13.6523 19.4531 13.6914 19.4336C13.75 19.3945 13.7891 19.375 13.8477 19.3359C13.9062 19.2969 13.9453 19.2773 13.9844 19.2383C13.9844 19.2383 14.0039 19.2383 14.0039 19.2188C14.043 19.1797 14.082 19.1406 14.1211 19.1211L14.1406 19.1016C14.1797 19.0625 14.1992 19.043 14.2383 19.0039C14.2578 18.9844 14.2773 18.9648 14.2773 18.9453C14.2969 18.9258 14.3164 18.8867 14.3555 18.8672C14.375 18.8281 14.4141 18.8086 14.4336 18.7695C14.4531 18.75 14.4531 18.7305 14.4727 18.7305C14.6289 18.5156 14.7461 18.2617 14.8047 17.9883L18.4766 19.7656C19.0234 20.0195 19.3555 20.5859 19.3555 21.1719V23.8281H19.3359Z" fill="#FFAA6B"/>
<path d="M16.6992 7.03125H8.30078V7.8125H16.6992V7.03125Z" fill="#FFAA6B"/>
</svg>
