<svg width="17" height="25" viewBox="0 0 17 25" fill="none" xmlns="http://www.w3.org/2000/svg">
<path d="M14.7891 19.043L11.8203 17.5977L10.8438 17.1289V16.8164C11.9375 16.0742 13.1484 14.6289 14.1641 11.9141C14.6914 11.8945 15.1406 11.6602 15.4141 11.2695C15.7461 10.8008 15.8047 10.1758 15.5703 9.66797C15.4922 9.49219 15.375 9.35547 15.2578 9.23828H15.7266V7.36328L14.8867 7.12891V7.01172C14.8867 4.57031 13.5 2.36328 11.3125 1.28906C11.1953 0.859375 10.8242 0.546875 10.3555 0.546875H8.89062V0.195312H8.10938V0.527344H6.64453C6.17578 0.527344 5.80469 0.839844 5.6875 1.26953C3.5 2.34375 2.11328 4.57031 2.11328 6.99219V7.10938L1.27344 7.36328V9.23828H1.74219C1.60547 9.35547 1.50781 9.51172 1.42969 9.66797C1.19531 10.1758 1.25391 10.8008 1.58594 11.2695C1.87891 11.6797 2.32812 11.8945 2.83594 11.9141C3.85156 14.6289 5.08203 16.0547 6.15625 16.8164V17.1289L5.43359 17.4805L2.21094 19.043C1.41016 19.4336 0.882812 20.2539 0.882812 21.1523V24.6094H16.1172V21.1523C16.1172 20.2539 15.5898 19.4336 14.7891 19.043ZM10.043 17.6367C10.0234 17.7344 10.0039 17.8125 9.98438 17.9102V17.9297C9.96484 17.9688 9.96484 17.9883 9.94531 18.0273C9.94531 18.0469 9.92578 18.0664 9.92578 18.0859C9.90625 18.1055 9.90625 18.125 9.88672 18.1445C9.86719 18.1836 9.84766 18.2227 9.82813 18.2422C9.82813 18.2422 9.82813 18.2422 9.82813 18.2617C9.65234 18.5156 9.41797 18.7109 9.14453 18.8281C9.14453 18.8281 9.14453 18.8281 9.125 18.8281C9.08594 18.8477 9.04688 18.8672 9.00781 18.8672H8.98828C8.94922 18.8867 8.91016 18.8867 8.87109 18.8867C8.85156 18.8867 8.85156 18.8867 8.83203 18.8867C8.79297 18.8867 8.75391 18.9062 8.71484 18.9062C8.69531 18.9062 8.69531 18.9062 8.67578 18.9062C8.61719 18.9062 8.57812 18.9062 8.51953 18.9062C7.66016 18.9062 6.95703 18.2031 6.95703 17.3438V17.2266C7.60156 17.5195 8.14844 17.5781 8.51953 17.5781C8.89062 17.5781 9.4375 17.5195 10.082 17.2266V17.3828C10.0625 17.4219 10.043 17.5391 10.043 17.6367ZM14.7891 10.8203C14.7109 10.918 14.6133 11.0352 14.4375 11.0938C14.5352 10.6641 14.6133 10.1953 14.6523 9.76562C14.75 9.82422 14.8281 9.90234 14.8672 10.0195C14.9844 10.2539 14.9648 10.5859 14.7891 10.8203ZM2.05469 7.94922L2.89453 7.71484V7.01172C2.89453 5.01953 3.96875 3.18359 5.64844 2.1875V4.53125H6.42969V1.52344C6.42969 1.40625 6.52734 1.30859 6.64453 1.30859H8.10938V5.80078H8.89062V1.30859H10.3555C10.4727 1.30859 10.5703 1.40625 10.5703 1.52344V4.51172H11.3516V2.16797C13.0508 3.16406 14.1055 5 14.1055 6.99219V7.69531L14.9453 7.92969V8.4375H2.05469V7.94922ZM2.21094 10.8203C2.03516 10.5859 2.01562 10.2539 2.13281 10.0195C2.19141 9.92188 2.25 9.82422 2.34766 9.76562C2.38672 10.2539 2.48438 10.6836 2.58203 11.0938C2.40625 11.0352 2.28906 10.918 2.21094 10.8203ZM3.48047 11.4062C3.30469 10.7617 3.12891 10.0781 3.08984 9.23828H13.9102C13.8906 9.86328 13.7539 10.8008 13.5391 11.3867C11.7813 16.2891 9.4375 16.8164 8.5 16.8164C7.58203 16.8359 5.23828 16.3086 3.48047 11.4062ZM15.3359 23.8281H13.5781V23.2422H12.7969V23.8281H4.20312V23.2422H3.42188V23.8281H1.66406V21.1523C1.66406 20.5469 2.01562 20 2.54297 19.7461L6.23438 17.9688C6.23438 17.9883 6.25391 18.0078 6.25391 18.0273C6.25391 18.0469 6.27344 18.0859 6.27344 18.1055C6.29297 18.1445 6.3125 18.2031 6.33203 18.2422C6.33203 18.2617 6.35156 18.2812 6.35156 18.3008C6.37109 18.3594 6.41016 18.418 6.42969 18.457C6.42969 18.457 6.42969 18.4766 6.44922 18.4766C6.48828 18.5352 6.52734 18.5938 6.56641 18.6523C6.58594 18.6719 6.58594 18.6914 6.60547 18.7109C6.625 18.75 6.66406 18.7891 6.70312 18.8281C6.72266 18.8477 6.74219 18.8672 6.76172 18.8867C6.78125 18.9258 6.82031 18.9453 6.85937 18.9844C6.87891 19.0039 6.89844 19.0234 6.91797 19.043C6.95703 19.082 6.97656 19.1016 7.01563 19.1406C7.03516 19.1602 7.05469 19.1797 7.07422 19.1992C7.11328 19.2383 7.15234 19.2578 7.19141 19.2969C7.21094 19.3164 7.23047 19.3164 7.23047 19.3359C7.28906 19.375 7.34766 19.4141 7.40625 19.4531C7.42578 19.4531 7.42578 19.4727 7.44531 19.4727C7.50391 19.4922 7.54297 19.5312 7.60156 19.5508C7.62109 19.5703 7.64062 19.5703 7.67969 19.5703C7.71875 19.5898 7.75781 19.6094 7.81641 19.6094C7.83594 19.6094 7.875 19.6289 7.89453 19.6289C7.93359 19.6484 7.99219 19.6484 8.03125 19.668C8.05078 19.668 8.08984 19.6875 8.10938 19.6875C8.14844 19.6875 8.20703 19.707 8.26562 19.707C8.28516 19.707 8.30469 19.707 8.34375 19.707C8.42188 19.707 8.5 19.7266 8.55859 19.7266C8.63672 19.7266 8.69531 19.7266 8.77344 19.7266C8.8125 19.7266 8.85156 19.7266 8.87109 19.707C8.91016 19.707 8.92969 19.707 8.96875 19.6875C9.00781 19.6875 9.06641 19.668 9.10547 19.6484C9.125 19.6484 9.14453 19.6484 9.16406 19.6289C9.22266 19.6094 9.26172 19.5898 9.32031 19.5898C9.33984 19.5898 9.33984 19.5898 9.35938 19.5703C9.41797 19.5508 9.47656 19.5312 9.51562 19.5117H9.53516C9.59375 19.4922 9.65234 19.4531 9.69141 19.4336C9.75 19.3945 9.78906 19.375 9.84766 19.3359C9.90625 19.2969 9.94531 19.2773 9.98438 19.2383C9.98438 19.2383 10.0039 19.2383 10.0039 19.2188C10.043 19.1797 10.082 19.1406 10.1211 19.1211L10.1406 19.1016C10.1797 19.0625 10.1992 19.043 10.2383 19.0039C10.2578 18.9844 10.2773 18.9648 10.2773 18.9453C10.2969 18.9258 10.3164 18.8867 10.3555 18.8672C10.375 18.8281 10.4141 18.8086 10.4336 18.7695C10.4531 18.75 10.4531 18.7305 10.4727 18.7305C10.6289 18.5156 10.7461 18.2617 10.8047 17.9883L14.4766 19.7656C15.0234 20.0195 15.3555 20.5859 15.3555 21.1719V23.8281H15.3359Z" fill="#FFAA6B"/>
<path d="M12.6992 7.03125H4.30078V7.8125H12.6992V7.03125Z" fill="#FFAA6B"/>
</svg>
