<svg width="30" height="30" viewBox="0 0 30 30" fill="none" xmlns="http://www.w3.org/2000/svg">
<path d="M30 15C30 23.2838 23.284 30 15.0019 30C6.71597 30 0 23.2838 0 15C0 6.715 6.71597 0 15.0019 0C23.284 0 30 6.715 30 15Z" fill="#3C5B9B"/>
<path d="M12.5 24.375H16.2499C16.2499 24.375 16.2499 19.1987 16.2499 15H19.0329L19.3748 11.25H16.3949V9.75062C16.3949 9.02 16.8817 8.85 17.2236 8.85C17.5655 8.85 19.3273 8.85 19.3273 8.85V5.63688L16.4305 5.625C13.215 5.625 12.4844 8.02125 12.4844 9.555V11.25H10.6251V15H12.5C12.5 19.2494 12.5 24.375 12.5 24.375Z" fill="white"/>
<path d="M30 15C30 23.2838 23.284 30 15.0019 30C6.71597 30 0 23.2838 0 15C0 6.715 6.71597 0 15.0019 0C23.284 0 30 6.715 30 15Z" fill="#3C5B9B"/>
<path d="M12.5 24.375H16.2499C16.2499 24.375 16.2499 19.1987 16.2499 15H19.0329L19.3748 11.25H16.3949V9.75062C16.3949 9.02 16.8817 8.85 17.2236 8.85C17.5655 8.85 19.3273 8.85 19.3273 8.85V5.63688L16.4305 5.625C13.215 5.625 12.4844 8.02125 12.4844 9.555V11.25H10.6251V15H12.5C12.5 19.2494 12.5 24.375 12.5 24.375Z" fill="white"/>
<path d="M30 15C30 23.2838 23.284 30 15.0019 30C6.71597 30 0 23.2838 0 15C0 6.715 6.71597 0 15.0019 0C23.284 0 30 6.715 30 15Z" fill="#3C5B9B"/>
<path d="M12.5 24.375H16.2499C16.2499 24.375 16.2499 19.1987 16.2499 15H19.0329L19.3748 11.25H16.3949V9.75062C16.3949 9.02 16.8817 8.85 17.2236 8.85C17.5655 8.85 19.3273 8.85 19.3273 8.85V5.63688L16.4305 5.625C13.215 5.625 12.4844 8.02125 12.4844 9.555V11.25H10.6251V15H12.5C12.5 19.2494 12.5 24.375 12.5 24.375Z" fill="white"/>
</svg>
