<svg width="20" height="20" viewBox="0 0 20 20" fill="none" xmlns="http://www.w3.org/2000/svg">
<path d="M18.0187 1.7271C16.0365 -0.438805 12.6796 -0.587824 10.5134 1.39467L0.933903 10.1615L1.7309 11.0324L11.3103 2.26553C12.1245 1.52043 13.1798 1.13716 14.2826 1.1858C16.5639 1.28685 18.3285 3.21481 18.2275 5.49636C18.1786 6.59891 17.7034 7.61646 16.8892 8.36156L6.22117 18.1247C5.1407 19.1135 3.45726 19.0388 2.46851 17.9584C1.47744 16.8755 1.55166 15.1969 2.63477 14.2057L12.8674 4.84118C13.1 4.6283 13.401 4.51863 13.7166 4.53272C14.3684 4.56156 14.8726 5.11238 14.8437 5.7643C14.8297 6.07933 14.6939 6.37005 14.4613 6.58293L5.31726 14.9512L6.11426 15.8221L15.2583 7.45375C15.7235 7.02798 15.9951 6.44655 16.023 5.81651C16.0808 4.51304 15.0726 3.41109 13.7688 3.35332C13.1388 3.32546 12.5356 3.54452 12.0704 3.97029L1.83777 13.3349C0.273491 14.7664 0.165987 17.191 1.59766 18.7554C3.02713 20.3173 5.45884 20.4225 7.01817 18.9955L17.6862 9.23245C19.8471 7.25488 19.9962 3.88801 18.0187 1.7271Z" fill="black"/>
</svg>
