<svg width="60" height="60" viewBox="0 0 60 60" fill="none" xmlns="http://www.w3.org/2000/svg">
<rect width="60" height="60" rx="30" fill="#14B111"/>
<path d="M26.3477 42.7458C26.1483 43.6075 25.7183 43.9983 24.9869 43.9983C22.607 44.0021 20.2281 43.9983 17.8482 43.9995C17.352 43.9995 16.9163 43.8099 16.5243 43.4777C16.2007 43.2053 16.0674 42.826 16.064 42.3704C16.0439 39.8693 16.0058 37.3683 16.0002 34.8673C15.9968 33.3998 16.0372 31.931 16.0685 30.4622C16.0932 29.29 16.9611 28.3366 17.9837 28.3379C20.5216 28.3405 23.0606 28.3392 25.5984 28.3519C25.8179 28.3519 25.968 28.2819 26.0879 28.0795C26.7195 27.0129 27.3534 25.9502 27.9851 24.8848C28.2203 24.4877 28.4241 24.0613 28.6918 23.6973C29.4344 22.688 29.5206 21.5412 29.3537 20.3003C29.2462 19.5048 29.1958 18.6978 29.1555 17.8934C29.1309 17.4225 29.3302 17.0445 29.6539 16.7365C30.6753 15.7615 32.1201 15.7475 33.3028 16.7365C34.6389 17.854 35.3087 19.4157 35.536 21.2447C35.7343 22.8408 35.5338 24.405 35.1743 25.9489C35.1507 26.052 35.1272 26.1551 35.1048 26.2582C35.1015 26.2785 35.1048 26.3002 35.1048 26.3625C35.2034 26.3625 35.3008 26.3625 35.3983 26.3625C37.4142 26.3613 39.4302 26.3613 41.445 26.36C42.7252 26.3587 43.7612 27.2764 43.965 28.6256C44.1106 29.5801 43.7892 30.3807 43.2392 31.0731C43.106 31.2411 43.078 31.371 43.1261 31.5988C43.3826 32.8092 43.0914 33.8936 42.4676 34.8749C42.3287 35.0926 42.2682 35.2708 42.2985 35.5584C42.4284 36.7917 42.1596 37.9169 41.501 38.9198C41.4182 39.0458 41.3599 39.2495 41.3812 39.4022C41.6881 41.5825 40.343 42.9304 38.7828 43.0844C37.7726 43.1849 36.7512 43.1429 35.7343 43.1455C33.0844 43.1518 30.4345 43.1429 27.7846 43.1506C27.2806 43.1518 26.8024 43.0793 26.3477 42.7458ZM41.398 35.5508C41.2692 35.5508 41.1594 35.5508 41.0497 35.5508C39.6497 35.5521 38.2497 35.5533 36.8498 35.5521C36.6818 35.5521 36.5104 35.5661 36.3469 35.5317C36.1106 35.4808 35.9672 35.3051 35.9807 35.0149C35.9941 34.7298 36.1374 34.5682 36.385 34.5364C36.4869 34.5224 36.5899 34.5262 36.693 34.5262C38.2419 34.5275 39.7908 34.53 41.3409 34.5236C41.4417 34.5236 41.5817 34.4918 41.6377 34.4142C42.1607 33.6823 42.4329 32.8627 42.2727 31.8992C42.2301 31.6433 42.126 31.5619 41.8953 31.5644C40.4203 31.5759 38.9452 31.5708 37.4702 31.5695C36.9998 31.5695 36.7702 31.3951 36.7792 31.0451C36.7882 30.7078 37.0054 30.5487 37.4669 30.5487C39.0348 30.5462 40.6028 30.5475 42.1708 30.5424C42.2794 30.5424 42.4093 30.5411 42.4922 30.4787C43.134 29.9874 43.2885 28.7668 42.8002 28.0821C42.4373 27.5742 41.9557 27.3808 41.3913 27.382C39.2353 27.3884 37.0794 27.3859 34.9234 27.3871C34.0588 27.3871 33.9613 27.2497 34.1741 26.304C34.4978 24.8696 34.7912 23.43 34.6994 21.9307C34.6132 20.5332 34.2436 19.2591 33.4069 18.2065C32.8301 17.4811 32.147 16.9681 31.2364 17.033C30.402 17.0941 29.9776 17.6172 30.047 18.5476C30.1052 19.3202 30.2072 20.089 30.2968 20.8578C30.4267 21.9842 30.2139 23.01 29.6304 23.9379C29.3537 24.3783 29.0872 24.8288 28.8285 25.2845C28.0702 26.6247 27.3635 28.0057 26.4239 29.2009C26.3578 29.2836 26.3275 29.43 26.3275 29.5471C26.3219 33.4329 26.3219 37.3187 26.3253 41.2045C26.3253 41.3038 26.3376 41.4374 26.3925 41.4985C26.6994 41.8345 27.0421 42.1196 27.4923 42.1196C31.0953 42.1234 34.6972 42.1247 38.3001 42.1196C38.8422 42.1183 39.354 41.9669 39.8076 41.6131C40.4326 41.1243 40.707 40.1404 40.4169 39.4086C39.2398 39.4086 38.0549 39.4099 36.8699 39.4086C36.404 39.4086 35.937 39.4162 35.4699 39.4022C35.2157 39.3933 35.0354 39.182 35.0387 38.9173C35.041 38.636 35.1754 38.4604 35.4184 38.4069C35.508 38.3865 35.6032 38.3865 35.6962 38.3865C37.2832 38.3853 38.8691 38.3878 40.4561 38.3802C40.5737 38.3789 40.7394 38.3433 40.801 38.2516C41.3308 37.465 41.5156 36.5703 41.398 35.5508ZM25.408 29.3676C25.2703 29.3676 25.1516 29.3676 25.0328 29.3676C22.6999 29.365 20.3681 29.3625 18.0352 29.36C17.4405 29.36 16.9645 29.8703 16.9634 30.5475C16.9567 34.4091 16.9555 38.272 16.9567 42.1336C16.9578 42.6236 17.0317 42.7344 17.4439 42.8909C17.5816 42.9444 17.735 42.9673 17.8818 42.9711C18.3387 42.9813 18.7957 42.9749 19.2526 42.9762C21.1655 42.9762 23.0774 42.9775 24.9903 42.9762C25.3341 42.9762 25.4226 42.8731 25.4237 42.4862C25.4248 42.0713 25.4237 41.6563 25.4237 41.2414C25.4237 37.4116 25.4237 33.5805 25.4237 29.7494C25.4237 29.6349 25.4148 29.5203 25.408 29.3676Z" fill="white"/>
</svg>
