<svg width="39" height="39" viewBox="0 0 39 39" fill="none" xmlns="http://www.w3.org/2000/svg">
<path d="M33.8 0H10.5625C8.32 0 6.5 1.45795 6.5 3.25V33.8H2.6C1.91044 33.8 1.24912 34.0739 0.761522 34.5615C0.273928 35.0491 0 35.7104 0 36.4C0 37.0896 0.273928 37.7509 0.761522 38.2385C1.24912 38.7261 1.91044 39 2.6 39H25.922C28.158 39 29.978 37.542 29.978 35.75L29.9 6.5H38.35C38.5224 6.5 38.6877 6.43152 38.8096 6.30962C38.9315 6.18772 39 6.02239 39 5.85C39 2.62405 36.6671 0 33.8 0ZM18.809 37.7H2.6C2.25522 37.7 1.92456 37.563 1.68076 37.3192C1.43696 37.0754 1.3 36.7448 1.3 36.4C1.3 36.0552 1.43696 35.7246 1.68076 35.4808C1.92456 35.237 2.25522 35.1 2.6 35.1H18.809C18.6221 35.5079 18.5253 35.9513 18.5253 36.4C18.5253 36.8487 18.6221 37.2921 18.809 37.7ZM25.922 37.7H20.4022C20.2092 37.5239 20.0576 37.3072 19.9583 37.0656C19.8589 36.824 19.8142 36.5634 19.8273 36.3025C19.8405 36.0416 19.9112 35.7868 20.0344 35.5564C20.1576 35.3261 20.3303 35.1258 20.54 34.97C20.6491 34.8881 20.7298 34.774 20.7704 34.6438C20.8111 34.5136 20.8098 34.3739 20.7666 34.2444C20.7235 34.115 20.6407 34.0025 20.5301 33.9227C20.4194 33.8429 20.2864 33.8 20.15 33.8H7.8V3.25C7.8 2.1931 9.0649 1.3 10.5625 1.3H30.5389C29.9177 1.88237 29.4245 2.58765 29.0907 3.37099C28.7569 4.15432 28.5898 4.99856 28.6 5.85L28.678 35.75C28.678 36.8069 27.4163 37.7 25.922 37.7ZM29.9403 5.2C30.2113 2.9978 31.8383 1.3 33.8 1.3C35.7617 1.3 37.3886 2.9978 37.6597 5.2H29.9403Z" fill="black"/>
<path d="M9.09998 19.5H27.3V20.8H9.09998V19.5Z" fill="black"/>
<path d="M9.09998 26.6499H27.3V27.9499H9.09998V26.6499Z" fill="black"/>
<path d="M18.2 11.0502C18.0276 11.0502 17.8623 10.9817 17.7404 10.8598C17.6185 10.7379 17.55 10.5726 17.55 10.4002H16.25C16.2517 10.8021 16.3775 11.1936 16.6102 11.5213C16.8429 11.8489 17.1711 12.0966 17.55 12.2306V13.0002H18.85V12.2306C19.2833 12.078 19.6487 11.7769 19.8813 11.3807C20.1139 10.9845 20.1989 10.5188 20.121 10.066C20.0431 9.61319 19.8076 9.20256 19.456 8.90682C19.1044 8.61108 18.6594 8.44932 18.2 8.4502C18.0714 8.4502 17.9458 8.41207 17.8389 8.34065C17.732 8.26923 17.6487 8.16771 17.5995 8.04894C17.5503 7.93017 17.5374 7.79947 17.5625 7.67339C17.5876 7.5473 17.6495 7.43148 17.7404 7.34058C17.8313 7.24967 17.9471 7.18777 18.0732 7.16268C18.1993 7.1376 18.33 7.15048 18.4487 7.19967C18.5675 7.24887 18.669 7.33218 18.7405 7.43907C18.8119 7.54597 18.85 7.67164 18.85 7.8002H20.15C20.1483 7.39833 20.0225 7.00679 19.7898 6.67914C19.5571 6.3515 19.2289 6.10375 18.85 5.9698V5.2002H17.55V5.9698C17.1167 6.12243 16.7513 6.4235 16.5187 6.81969C16.2861 7.21588 16.2011 7.68162 16.279 8.13441C16.3569 8.5872 16.5924 8.99783 16.944 9.29357C17.2956 9.58931 17.7406 9.75107 18.2 9.7502C18.3724 9.7502 18.5377 9.81868 18.6596 9.94058C18.7815 10.0625 18.85 10.2278 18.85 10.4002C18.85 10.5726 18.7815 10.7379 18.6596 10.8598C18.5377 10.9817 18.3724 11.0502 18.2 11.0502Z" fill="black"/>
<path d="M18.2 14.95C19.357 14.95 20.488 14.6069 21.4501 13.9641C22.4121 13.3213 23.1619 12.4076 23.6047 11.3387C24.0474 10.2698 24.1633 9.09351 23.9376 7.95872C23.7118 6.82394 23.1547 5.78156 22.3366 4.96343C21.5184 4.14529 20.476 3.58813 19.3413 3.36241C18.2065 3.13669 17.0302 3.25253 15.9613 3.69531C14.8923 4.13808 13.9787 4.88789 13.3359 5.84992C12.6931 6.81194 12.35 7.94298 12.35 9.1C12.3517 10.651 12.9686 12.138 14.0653 13.2347C15.162 14.3314 16.649 14.9483 18.2 14.95ZM18.2 4.55C19.0999 4.55 19.9796 4.81686 20.7278 5.31682C21.4761 5.81678 22.0592 6.52739 22.4036 7.35879C22.748 8.1902 22.8381 9.10505 22.6625 9.98766C22.487 10.8703 22.0536 11.681 21.4173 12.3173C20.781 12.9537 19.9703 13.387 19.0876 13.5626C18.205 13.7381 17.2902 13.648 16.4588 13.3037C15.6274 12.9593 14.9167 12.3761 14.4168 11.6278C13.9168 10.8796 13.65 9.99991 13.65 9.1C13.6515 7.89374 14.1314 6.73733 14.9843 5.88438C15.8373 5.03142 16.9937 4.55155 18.2 4.55Z" fill="black"/>
</svg>
