<svg width="24" height="29" viewBox="0 0 24 29" fill="none" xmlns="http://www.w3.org/2000/svg">
<path d="M11.6084 29C11.2135 29.0019 10.8238 28.9117 10.4705 28.7367C10.1172 28.5617 9.81036 28.3069 9.57461 27.9926L2.13762 18.1643C0.907109 16.4428 0.177464 14.4188 0.0284855 12.3136C-0.120493 10.2085 0.316931 8.10317 1.29292 6.22803C2.26891 4.35288 3.74587 2.78009 5.56229 1.68167C7.3787 0.58324 9.46461 0.00147687 11.5919 2.80817e-06C13.7192 -0.00147125 15.8059 0.5774 17.6239 1.67331C19.4418 2.76922 20.921 4.33996 21.8996 6.21375C22.8783 8.08754 23.3186 10.1922 23.1726 12.2976C23.0266 14.403 22.2998 16.428 21.0717 18.1512L13.6436 27.9897C13.4078 28.3045 13.1008 28.5599 12.7473 28.7354C12.3938 28.9109 12.0037 29.0015 11.6084 29ZM11.5966 1.49602C9.11295 1.48828 6.71514 2.39706 4.86937 4.04568C3.01842 5.68524 1.83875 7.94197 1.55432 10.3874C1.26989 12.8329 1.9005 15.2968 3.32642 17.3115L10.7487 27.118C10.8482 27.2506 10.9777 27.3581 11.1268 27.4321C11.2758 27.506 11.4403 27.5442 11.6069 27.5436C11.7739 27.5439 11.9386 27.5055 12.0881 27.4316C12.2375 27.3578 12.3676 27.2504 12.468 27.118L19.88 17.3013C20.8913 15.8816 21.5129 14.2253 21.6838 12.4952C21.8547 10.7651 21.5689 9.02068 20.8546 7.43328C20.1403 5.84588 19.022 4.47013 17.6096 3.44119C16.1971 2.41225 14.5392 1.76552 12.7986 1.56454C12.3996 1.51932 11.9983 1.49645 11.5966 1.49602Z" fill="white"/>
<path d="M11.6078 15.2489C10.8812 15.2489 10.1709 15.0351 9.56677 14.6347C8.96264 14.2342 8.49178 13.665 8.21373 12.9991C7.93567 12.3331 7.86292 11.6004 8.00467 10.8934C8.14642 10.1865 8.49631 9.53708 9.01008 9.0274C9.52385 8.51771 10.1784 8.17061 10.8911 8.02999C11.6037 7.88937 12.3423 7.96154 13.0136 8.23738C13.6849 8.51322 14.2586 8.98034 14.6623 9.57967C15.066 10.179 15.2814 10.8836 15.2814 11.6044C15.2814 12.571 14.8944 13.498 14.2054 14.1814C13.5165 14.8649 12.5821 15.2489 11.6078 15.2489ZM11.6078 9.41774C11.1718 9.41774 10.7456 9.54599 10.3832 9.78626C10.0207 10.0265 9.73817 10.368 9.57134 10.7676C9.40451 11.1672 9.36086 11.6068 9.44591 12.031C9.53096 12.4552 9.74089 12.8448 10.0492 13.1506C10.3574 13.4564 10.7502 13.6647 11.1777 13.7491C11.6053 13.8334 12.0485 13.7901 12.4513 13.6246C12.854 13.4591 13.1983 13.1789 13.4405 12.8193C13.6827 12.4597 13.812 12.0369 13.812 11.6044C13.812 11.0245 13.5797 10.4683 13.1664 10.0582C12.753 9.64812 12.1924 9.41774 11.6078 9.41774Z" fill="white"/>
</svg>
