<svg width="51" height="51" viewBox="0 0 51 51" fill="none" xmlns="http://www.w3.org/2000/svg">
<circle cx="25.5" cy="25.5" r="25.5" fill="#F5F1FF"/>
<path d="M37.731 12H29.8683C29.1685 12 28.5992 12.5693 28.5992 13.2692V14.0934C28.5992 14.3118 28.7763 14.4889 28.9947 14.4889C29.2131 14.4889 29.3902 14.3118 29.3902 14.0934V13.2692C29.3902 13.0055 29.6047 12.791 29.8683 12.791H37.731C37.9947 12.791 38.2091 13.0055 38.2091 13.2692V20.2582C38.2091 20.5218 37.9947 20.7363 37.731 20.7363H33.5966C33.3177 20.7363 33.0588 20.8748 32.9041 21.1069L32.0111 22.4464V21.5687C32.0111 21.1097 31.6377 20.7363 31.1787 20.7363H29.8683C29.6047 20.7363 29.3902 20.5218 29.3902 20.2582V15.9392C29.3902 15.7207 29.2131 15.5436 28.9947 15.5436C28.7763 15.5436 28.5992 15.7207 28.5992 15.9392V20.2582C28.5992 20.958 29.1685 21.5273 29.8683 21.5273H31.1787C31.2015 21.5273 31.2201 21.5459 31.2201 21.5687V23.0313C31.2201 23.3038 31.3953 23.5399 31.6561 23.6189C31.7158 23.637 31.7763 23.6457 31.8361 23.6457C32.037 23.6457 32.2283 23.5467 32.3448 23.3719L33.5623 21.5457C33.57 21.5342 33.5828 21.5273 33.5967 21.5273H37.731C38.4309 21.5273 39.0002 20.958 39.0002 20.2582V13.2692C39.0001 12.5694 38.4308 12 37.731 12V12Z" fill="black"/>
<path d="M19.3847 22.8372C19.6031 22.8372 19.7802 22.6601 19.7802 22.4417V22.0049C19.7802 21.7865 19.6031 21.6094 19.3847 21.6094C19.1663 21.6094 18.9892 21.7865 18.9892 22.0049V22.4417C18.9892 22.6602 19.1663 22.8372 19.3847 22.8372Z" fill="black"/>
<path d="M22.8792 22.8372C23.0976 22.8372 23.2747 22.6601 23.2747 22.4417V22.0049C23.2747 21.7865 23.0976 21.6094 22.8792 21.6094C22.6608 21.6094 22.4837 21.7865 22.4837 22.0049V22.4417C22.4837 22.6602 22.6608 22.8372 22.8792 22.8372Z" fill="black"/>
<path d="M21.1319 25.0219C21.5829 25.0219 22.0038 24.7789 22.2305 24.3878C22.34 24.1988 22.2756 23.9568 22.0867 23.8473C21.8977 23.7378 21.6557 23.8022 21.5461 23.9912C21.4604 24.139 21.3018 24.2309 21.1319 24.2309C20.9621 24.2309 20.8035 24.139 20.7178 23.9912C20.6082 23.8022 20.3663 23.7378 20.1772 23.8473C19.9883 23.9568 19.9239 24.1988 20.0334 24.3878C20.2601 24.7789 20.6811 25.0219 21.1319 25.0219Z" fill="black"/>
<path d="M26.3736 29.473L25.227 29.473L24.1482 28.3942V27.4372C25.1184 26.6414 25.7698 25.4706 25.8789 24.1483H26.3736C27.0734 24.1483 27.6427 23.579 27.6427 22.8792V21.1319C27.6427 20.5702 27.2757 20.0929 26.7691 19.9262V18.5112C26.7691 16.3662 25.024 14.6211 22.879 14.6211H19.3845C17.2395 14.6211 15.4944 16.3661 15.4944 18.5112V19.9262C14.9877 20.0929 14.6208 20.5702 14.6208 21.1319V22.8792C14.6208 23.579 15.1901 24.1483 15.8899 24.1483H16.3846C16.4938 25.4705 17.1451 26.6412 18.1152 27.4371V28.3942L17.0365 29.473L15.8898 29.473C13.7449 29.473 12 31.218 12 33.3628L12 37.7311C12 38.4309 12.5693 39.0002 13.2691 39.0002H14.9613C15.1797 39.0002 15.3568 38.8232 15.3568 38.6047C15.3568 38.3863 15.1797 38.2092 14.9613 38.2092H13.2691C13.0055 38.2092 12.791 37.9948 12.791 37.7311L12.7911 33.3628C12.7911 31.6541 14.1812 30.264 15.8899 30.264L16.956 30.2641L18.3229 32.9978C18.4422 33.2364 18.6707 33.4044 18.934 33.4472C18.9782 33.4543 19.0224 33.4578 19.0666 33.4578C19.2633 33.4578 19.4552 33.3873 19.6061 33.2591L19.8577 34.2656L19.4634 38.2092H16.8129C16.5945 38.2092 16.4174 38.3863 16.4174 38.6047C16.4174 38.8232 16.5945 39.0002 16.8129 39.0002H28.9945C29.6943 39.0002 30.2636 38.4309 30.2636 37.7311L30.2636 33.3628C30.2635 31.218 28.5185 29.473 26.3736 29.473ZM21.6967 33.8411H20.567L20.2594 32.6106L21.1318 31.7382L22.0043 32.6107L21.6967 33.8411ZM21.6911 31.1789L23.7527 29.1175L24.5819 29.9467L23.2331 32.644C23.2308 32.6487 23.2237 32.6629 23.2028 32.6663C23.1819 32.6696 23.1707 32.6585 23.167 32.6548L21.6911 31.1789ZM26.8517 22.8793C26.8517 23.1429 26.6372 23.3574 26.3736 23.3574H25.8955V20.6539H26.3715C26.3722 20.6539 26.3729 20.654 26.3736 20.654C26.3739 20.654 26.3743 20.6539 26.3746 20.6539C26.6378 20.6545 26.8517 20.8687 26.8517 21.132V22.8793ZM19.3845 15.4122H22.8791C24.5879 15.4122 25.9781 16.8024 25.9781 18.5112V19.8628L24.6264 19.8629C23.898 19.8629 23.3027 19.2838 23.2759 18.5619C23.37 18.2705 23.4213 17.96 23.4213 17.6376C23.4213 17.4191 23.2443 17.242 23.0258 17.242C22.8074 17.242 22.6303 17.4191 22.6303 17.6376C22.6303 18.8646 21.632 19.8629 20.4049 19.8629L16.2855 19.8628V18.5112C16.2855 16.8024 17.6757 15.4122 19.3845 15.4122ZM15.4119 22.8793V21.132C15.4119 20.8687 15.6259 20.6545 15.889 20.6539C15.8893 20.6539 15.8897 20.654 15.89 20.654C15.8907 20.654 15.8914 20.6539 15.8921 20.6539H16.3682L16.3683 23.3574H15.8901C15.6264 23.3574 15.4119 23.1429 15.4119 22.8793ZM17.1592 23.7531L17.1592 20.654H20.4049C21.3486 20.654 22.1922 20.218 22.7457 19.5373C23.1099 20.2021 23.8163 20.654 24.6263 20.654H25.1044L25.1044 23.7529V23.7531C25.1044 25.9436 23.3223 27.7256 21.1317 27.7256C18.9412 27.7256 17.1592 25.9436 17.1592 23.7531ZM21.1318 28.5167C21.9352 28.5167 22.6926 28.3165 23.3572 27.9638V28.3943L21.1318 30.6195L18.9063 28.3942V27.9638C19.571 28.3165 20.3284 28.5167 21.1318 28.5167ZM19.0608 32.6663C19.0399 32.6629 19.0328 32.6487 19.0305 32.644L17.6817 29.9467L18.511 29.1174L20.5725 31.1789L19.0966 32.6548C19.0928 32.6585 19.0817 32.6696 19.0608 32.6663ZM20.6161 34.6321H21.6475L22.0052 38.2092H20.2584L20.6161 34.6321ZM28.9944 38.2092H22.8002L22.4058 34.2657L22.6575 33.2592C22.8084 33.3873 23.0001 33.4579 23.197 33.4578C23.241 33.4578 23.2854 33.4543 23.3295 33.4472C23.5929 33.4044 23.8214 33.2364 23.9407 32.9978L25.3076 30.2641L26.3737 30.264C28.0824 30.264 29.4726 31.6541 29.4726 33.3628L29.4726 37.7311C29.4726 37.9947 29.2581 38.2092 28.9944 38.2092Z" fill="black"/>
<path d="M30.7419 18.0332H36.8574C37.0758 18.0332 37.2529 17.8561 37.2529 17.6377C37.2529 17.4193 37.0758 17.2422 36.8574 17.2422H30.7419C30.5235 17.2422 30.3464 17.4193 30.3464 17.6377C30.3464 17.8561 30.5235 18.0332 30.7419 18.0332Z" fill="black"/>
<path d="M30.7419 19.7803H34.2365C34.4549 19.7803 34.632 19.6032 34.632 19.3848C34.632 19.1663 34.4549 18.9893 34.2365 18.9893H30.7419C30.5235 18.9893 30.3464 19.1663 30.3464 19.3848C30.3464 19.6032 30.5235 19.7803 30.7419 19.7803Z" fill="black"/>
<path d="M30.7419 14.5381H36.8574C37.0758 14.5381 37.2529 14.361 37.2529 14.1426C37.2529 13.9242 37.0758 13.7471 36.8574 13.7471H30.7419C30.5235 13.7471 30.3464 13.9242 30.3464 14.1426C30.3464 14.361 30.5235 14.5381 30.7419 14.5381Z" fill="black"/>
<path d="M30.7419 16.2852H36.8574C37.0758 16.2852 37.2529 16.1081 37.2529 15.8896C37.2529 15.6712 37.0758 15.4941 36.8574 15.4941H30.7419C30.5235 15.4941 30.3464 15.6712 30.3464 15.8896C30.3464 16.1081 30.5235 16.2852 30.7419 16.2852Z" fill="black"/>
</svg>
