<svg width="9" height="10" viewBox="0 0 9 10" fill="none" xmlns="http://www.w3.org/2000/svg">
<path d="M6.07044 3.09627L8.48036 3.46802C8.69737 3.504 8.88011 3.65989 8.97148 3.87575C9.04001 4.09161 8.9829 4.33145 8.823 4.48734L7.07553 6.27415L7.4867 8.79247C7.52097 9.02032 7.42959 9.24817 7.25827 9.38008C7.1669 9.46402 7.04126 9.5 6.92705 9.5C6.83568 9.5 6.74431 9.47602 6.66436 9.42805L4.50571 8.24084L2.34706 9.42805C2.1529 9.53598 1.91305 9.51199 1.74173 9.38008C1.55899 9.24817 1.47904 9.02032 1.5133 8.79247L1.92447 6.27415L0.176992 4.48734C0.017092 4.33145 -0.040012 4.09161 0.0285165 3.87575C0.097045 3.65989 0.268364 3.504 0.485371 3.46802L2.89529 3.09627L3.9689 0.805796C4.16307 0.398068 4.80267 0.398068 4.99683 0.805796L6.07044 3.09627Z" fill="#FFAA6B"/>
</svg>
