<svg width="27" height="27" viewBox="0 0 27 27" fill="none" xmlns="http://www.w3.org/2000/svg">
<path d="M5.92655 10.8405C5.99426 10.8459 6.06197 10.8619 6.12448 10.8939C6.21823 10.9474 6.33282 10.9313 6.41095 10.8512L8.96836 8.22777C9.08295 8.11023 9.08295 7.91788 8.96836 7.80033C8.82773 7.65607 8.82773 7.42098 8.96836 7.27672L9.66631 6.56075C9.80694 6.41649 10.0361 6.41649 10.1767 6.56075L10.3851 6.77447L12.0518 5.0647C12.4529 4.65329 12.4529 3.99076 12.0518 3.58469L9.83298 1.30856C9.43192 0.897147 8.78606 0.897147 8.39021 1.30856L6.72346 3.01833L6.89535 3.19465C7.07765 3.38165 7.07765 3.69155 6.89535 3.87855L6.35886 4.42888C6.17656 4.61589 5.87446 4.61589 5.69216 4.42888C5.59841 4.33271 5.44736 4.33271 5.35361 4.42888L2.75974 7.08971C2.66598 7.18588 2.66598 7.34617 2.75974 7.44235C2.85349 7.53852 2.86912 7.69347 2.79099 7.81102C-0.558129 12.8869 1.81698 15.3714 1.81698 15.3714C2.11387 13.1487 3.94208 11.0863 5.73383 10.8405C5.79113 10.8352 5.86405 10.8352 5.92655 10.8405Z" fill="#FFAA6B" stroke="#373738" stroke-width="0.8" stroke-miterlimit="10" stroke-linecap="round" stroke-linejoin="round"/>
<path d="M23.2973 21.874L9.86437 9.13623L7.42676 11.6368L19.8388 25.4164C20.5211 26.1644 21.6722 26.1858 22.3806 25.4592L23.339 24.476C24.0473 23.7547 24.0265 22.5739 23.2973 21.874Z" fill="#FFAA6B" stroke="#373738" stroke-width="0.8" stroke-miterlimit="10" stroke-linecap="round" stroke-linejoin="round"/>
<path d="M5.40579 22.6645C4.66096 23.4285 4.66096 24.6628 5.40579 25.4268C6.15061 26.1909 7.3538 26.1909 8.09862 25.4268L13.4426 19.9449L10.854 17.0757L5.40579 22.6645Z" fill="#FFAA6B" stroke="#373738" stroke-width="0.8" stroke-miterlimit="10" stroke-linecap="round" stroke-linejoin="round"/>
<path d="M25.8647 7.91222L22.9532 10.899C22.7292 11.1287 22.3906 11.2035 22.0937 11.0913L20.4635 10.4662C20.2447 10.3807 20.0676 10.2044 19.9895 9.97996L19.3801 8.3076C19.2707 8.00305 19.3436 7.65575 19.5676 7.426L22.4792 4.43926C20.9479 4.05456 19.2655 4.47666 18.0779 5.7109C16.7706 7.06802 16.4268 9.04494 17.0414 10.728L15.1611 12.6568L17.9581 15.3123L19.729 13.4957C21.3802 14.1368 23.3178 13.7735 24.6459 12.411C25.8335 11.1875 26.2398 9.47238 25.8647 7.91222Z" fill="#FFAA6B" stroke="#373738" stroke-width="0.8" stroke-miterlimit="10" stroke-linecap="round" stroke-linejoin="round"/>
</svg>
