<svg width="27" height="27" viewBox="0 0 27 27" fill="none" xmlns="http://www.w3.org/2000/svg">
<path d="M3.35352 6.26953L4.65229 24.8107" stroke="#373738" stroke-width="0.8" stroke-miterlimit="2.6131" stroke-linecap="round" stroke-linejoin="round"/>
<path d="M4.65332 24.8105C4.65332 25.4668 5.23592 26 5.95215 26L4.65332 24.8105Z" fill="#FFAA6B"/>
<path d="M4.65332 24.8105C4.65332 25.4668 5.23592 26 5.95215 26" stroke="#373738" stroke-width="0.8" stroke-miterlimit="2.6131" stroke-linecap="round" stroke-linejoin="round"/>
<path d="M5.95166 26H21.0494" stroke="#373738" stroke-width="0.8" stroke-miterlimit="2.6131" stroke-linecap="round" stroke-linejoin="round"/>
<path d="M21.0493 26C21.7656 26 22.3473 25.4668 22.3473 24.8105L21.0493 26Z" fill="#FFAA6B"/>
<path d="M21.0493 26C21.7656 26 22.3473 25.4668 22.3473 24.8105" stroke="#373738" stroke-width="0.8" stroke-miterlimit="2.6131" stroke-linecap="round" stroke-linejoin="round"/>
<path d="M22.3468 24.8107L23.6475 6.26953H3.35352" fill="#FFAA6B"/>
<path d="M22.3468 24.8107L23.6475 6.26953H3.35352" stroke="#373738" stroke-width="0.8" stroke-miterlimit="2.6131" stroke-linecap="round" stroke-linejoin="round"/>
<path d="M25.9997 5.12354C25.9997 5.75222 25.4428 6.26197 24.7559 6.26197L25.9997 5.12354Z" fill="#FFAA6B"/>
<path d="M25.9997 5.12354C25.9997 5.75222 25.4428 6.26197 24.7559 6.26197" stroke="#373738" stroke-width="0.8" stroke-miterlimit="2.6131" stroke-linecap="round" stroke-linejoin="round"/>
<path d="M24.7565 6.26172H2.24414" stroke="#373738" stroke-width="0.8" stroke-miterlimit="2.6131" stroke-linecap="round" stroke-linejoin="round"/>
<path d="M2.24385 6.26197C1.55874 6.26197 1 5.75222 1 5.12354L2.24385 6.26197Z" fill="#FFAA6B"/>
<path d="M2.24385 6.26197C1.55874 6.26197 1 5.75222 1 5.12354" stroke="#373738" stroke-width="0.8" stroke-miterlimit="2.6131" stroke-linecap="round" stroke-linejoin="round"/>
<path d="M1 5.12355C1 4.49737 1.55874 3.98682 2.24385 3.98682L1 5.12355Z" fill="#FFAA6B"/>
<path d="M1 5.12355C1 4.49737 1.55874 3.98682 2.24385 3.98682" stroke="#373738" stroke-width="0.8" stroke-miterlimit="2.6131" stroke-linecap="round" stroke-linejoin="round"/>
<path d="M2.24414 3.98633H24.7565" stroke="#373738" stroke-width="0.8" stroke-miterlimit="2.6131" stroke-linecap="round" stroke-linejoin="round"/>
<path d="M24.7559 3.98633C25.4428 3.98633 25.9997 4.49695 25.9997 5.12306L24.7559 3.98633Z" fill="#FFAA6B"/>
<path d="M24.7559 3.98633C25.4428 3.98633 25.9997 4.49695 25.9997 5.12306" stroke="#373738" stroke-width="0.8" stroke-miterlimit="2.6131" stroke-linecap="round" stroke-linejoin="round"/>
<path d="M17.4229 3.96836V2.18701" stroke="#373738" stroke-width="0.8" stroke-miterlimit="2.6131" stroke-linecap="round" stroke-linejoin="round"/>
<path d="M17.4227 2.18692C17.4227 1.5323 16.8411 1 16.1257 1L17.4227 2.18692Z" fill="#FFAA6B"/>
<path d="M17.4227 2.18692C17.4227 1.5323 16.8411 1 16.1257 1" stroke="#373738" stroke-width="0.8" stroke-miterlimit="2.6131" stroke-linecap="round" stroke-linejoin="round"/>
<path d="M16.1257 1H10.8755" stroke="#373738" stroke-width="0.8" stroke-miterlimit="2.6131" stroke-linecap="round" stroke-linejoin="round"/>
<path d="M10.8761 1C10.1589 1 9.57812 1.53237 9.57812 2.18692L10.8761 1Z" fill="#FFAA6B"/>
<path d="M10.8761 1C10.1589 1 9.57812 1.53237 9.57812 2.18692" stroke="#373738" stroke-width="0.8" stroke-miterlimit="2.6131" stroke-linecap="round" stroke-linejoin="round"/>
<path d="M9.57812 2.18701V3.96836H17.4234" fill="#FFAA6B"/>
<path d="M9.57812 2.18701V3.96836H17.4234" stroke="#373738" stroke-width="0.8" stroke-miterlimit="2.6131" stroke-linecap="round" stroke-linejoin="round"/>
<path d="M7.77832 8.64258V23.2538" stroke="#373738" stroke-width="0.8" stroke-miterlimit="2.6131" stroke-linecap="round" stroke-linejoin="round"/>
<path d="M11.5923 8.64258V23.2538" stroke="#373738" stroke-width="0.8" stroke-miterlimit="2.6131" stroke-linecap="round" stroke-linejoin="round"/>
<path d="M15.4097 8.64258V23.2538" stroke="#373738" stroke-width="0.8" stroke-miterlimit="2.6131" stroke-linecap="round" stroke-linejoin="round"/>
<path d="M19.2217 8.64258V23.2538" stroke="#373738" stroke-width="0.8" stroke-miterlimit="2.6131" stroke-linecap="round" stroke-linejoin="round"/>
</svg>
