<svg width="30" height="30" viewBox="0 0 30 30" fill="none" xmlns="http://www.w3.org/2000/svg">
<path d="M15 30C23.2843 30 30 23.2843 30 15C30 6.71573 23.2843 0 15 0C6.71573 0 0 6.71573 0 15C0 23.2843 6.71573 30 15 30Z" fill="#2DAAE1"/>
<path d="M23.8577 7.77624C23.1147 8.2106 22.2903 8.52621 21.4141 8.6962C20.7135 7.95998 19.7135 7.5 18.6067 7.5C16.4831 7.5 14.7606 9.19555 14.7606 11.2867C14.7606 11.5836 14.795 11.8717 14.8594 12.1492C11.6626 11.9911 8.82837 10.4836 6.93095 8.1931C6.60034 8.75182 6.40972 9.40242 6.40972 10.0968C6.40972 11.4098 7.09032 12.5692 8.12153 13.2479C7.49155 13.2279 6.89783 13.0579 6.3791 12.7748C6.3791 12.7904 6.3791 12.8067 6.3791 12.8223C6.3791 14.6566 7.70529 16.1871 9.46522 16.5359C9.14211 16.6221 8.80275 16.6684 8.45089 16.6684C8.2034 16.6684 7.96278 16.6446 7.72717 16.6002C8.21777 18.1039 9.63771 19.1995 11.3208 19.2301C10.0039 20.2457 8.34589 20.8513 6.54284 20.8513C6.23161 20.8513 5.92662 20.8332 5.62476 20.7982C7.32781 21.8725 9.35085 22.4994 11.522 22.4994C18.598 22.4994 22.4666 16.7302 22.4666 11.7261C22.4666 11.5623 22.4641 11.398 22.4566 11.2361C23.2071 10.7024 23.8602 10.0355 24.3752 9.27555C23.6859 9.57741 22.9447 9.77991 22.1659 9.87178C22.9609 9.40305 23.5696 8.6612 23.8577 7.77624Z" fill="white"/>
<path d="M15 30C23.2843 30 30 23.2843 30 15C30 6.71573 23.2843 0 15 0C6.71573 0 0 6.71573 0 15C0 23.2843 6.71573 30 15 30Z" fill="#2DAAE1"/>
<path d="M23.8577 7.77624C23.1147 8.2106 22.2903 8.52621 21.4141 8.6962C20.7135 7.95998 19.7135 7.5 18.6067 7.5C16.4831 7.5 14.7606 9.19555 14.7606 11.2867C14.7606 11.5836 14.795 11.8717 14.8594 12.1492C11.6626 11.9911 8.82837 10.4836 6.93095 8.1931C6.60034 8.75182 6.40972 9.40242 6.40972 10.0968C6.40972 11.4098 7.09032 12.5692 8.12153 13.2479C7.49155 13.2279 6.89783 13.0579 6.3791 12.7748C6.3791 12.7904 6.3791 12.8067 6.3791 12.8223C6.3791 14.6566 7.70529 16.1871 9.46522 16.5359C9.14211 16.6221 8.80275 16.6684 8.45089 16.6684C8.2034 16.6684 7.96278 16.6446 7.72717 16.6002C8.21777 18.1039 9.63771 19.1995 11.3208 19.2301C10.0039 20.2457 8.34589 20.8513 6.54284 20.8513C6.23161 20.8513 5.92662 20.8332 5.62476 20.7982C7.32781 21.8725 9.35085 22.4994 11.522 22.4994C18.598 22.4994 22.4666 16.7302 22.4666 11.7261C22.4666 11.5623 22.4641 11.398 22.4566 11.2361C23.2071 10.7024 23.8602 10.0355 24.3752 9.27555C23.6859 9.57741 22.9447 9.77991 22.1659 9.87178C22.9609 9.40305 23.5696 8.6612 23.8577 7.77624Z" fill="white"/>
<path d="M15 30C23.2843 30 30 23.2843 30 15C30 6.71573 23.2843 0 15 0C6.71573 0 0 6.71573 0 15C0 23.2843 6.71573 30 15 30Z" fill="#2DAAE1"/>
<path d="M23.8577 7.77624C23.1147 8.2106 22.2903 8.52621 21.4141 8.6962C20.7135 7.95998 19.7135 7.5 18.6067 7.5C16.4831 7.5 14.7606 9.19555 14.7606 11.2867C14.7606 11.5836 14.795 11.8717 14.8594 12.1492C11.6626 11.9911 8.82837 10.4836 6.93095 8.1931C6.60034 8.75182 6.40972 9.40242 6.40972 10.0968C6.40972 11.4098 7.09032 12.5692 8.12153 13.2479C7.49155 13.2279 6.89783 13.0579 6.3791 12.7748C6.3791 12.7904 6.3791 12.8067 6.3791 12.8223C6.3791 14.6566 7.70529 16.1871 9.46522 16.5359C9.14211 16.6221 8.80275 16.6684 8.45089 16.6684C8.2034 16.6684 7.96278 16.6446 7.72717 16.6002C8.21777 18.1039 9.63771 19.1995 11.3208 19.2301C10.0039 20.2457 8.34589 20.8513 6.54284 20.8513C6.23161 20.8513 5.92662 20.8332 5.62476 20.7982C7.32781 21.8725 9.35085 22.4994 11.522 22.4994C18.598 22.4994 22.4666 16.7302 22.4666 11.7261C22.4666 11.5623 22.4641 11.398 22.4566 11.2361C23.2071 10.7024 23.8602 10.0355 24.3752 9.27555C23.6859 9.57741 22.9447 9.77991 22.1659 9.87178C22.9609 9.40305 23.5696 8.6612 23.8577 7.77624Z" fill="white"/>
</svg>
