<svg width="26" height="25" viewBox="0 0 26 25" fill="none" xmlns="http://www.w3.org/2000/svg">
<path d="M13.1707 24.5854C19.9598 24.5854 25.4634 19.0817 25.4634 12.2927C25.4634 5.50362 19.9598 0 13.1707 0C6.38167 0 0.878052 5.50362 0.878052 12.2927C0.878052 19.0817 6.38167 24.5854 13.1707 24.5854Z" fill="#6BC45A"/>
<path d="M20.8537 12.0951C20.8537 16.229 17.4768 19.5798 13.3106 19.5798C11.9881 19.5798 10.7455 19.2417 9.66425 18.6486L5.48781 19.9757L6.84922 15.9596C6.16237 14.8312 5.76695 13.5087 5.76695 12.0951C5.76695 7.96116 9.14386 4.60986 13.3106 4.60986C17.4768 4.60986 20.8537 7.96116 20.8537 12.0951ZM13.3106 5.80174C9.8133 5.80174 6.96856 8.62496 6.96856 12.0946C6.96856 13.4714 7.41725 14.7467 8.17632 15.7839L7.38395 18.1205L9.82098 17.3461C10.8223 18.0038 12.0219 18.3869 13.3101 18.3869C16.8068 18.3869 19.6521 15.5642 19.6521 12.0941C19.6526 8.62496 16.8073 5.80174 13.3106 5.80174ZM17.1192 13.8186C17.0726 13.7423 16.9497 13.6962 16.7648 13.6045C16.5799 13.5128 15.6702 13.0688 15.5012 13.0078C15.3317 12.9469 15.2082 12.9161 15.0848 13.0995C14.9619 13.2834 14.6074 13.6962 14.4994 13.8186C14.3913 13.941 14.2837 13.9564 14.0988 13.8647C13.9144 13.773 13.3182 13.5794 12.6119 12.954C12.0623 12.468 11.691 11.8677 11.5834 11.6838C11.4754 11.5004 11.5722 11.4011 11.6644 11.3099C11.7479 11.2274 11.8493 11.0953 11.942 10.9887C12.0347 10.8812 12.0654 10.8049 12.1269 10.6824C12.1889 10.56 12.1576 10.453 12.1115 10.3608C12.0654 10.2691 11.6951 9.36611 11.5414 8.99886C11.3873 8.63162 11.2336 8.69308 11.1255 8.69308C11.0175 8.69308 10.8945 8.67772 10.7711 8.67772C10.6477 8.67772 10.4474 8.72381 10.2779 8.90718C10.1083 9.09106 9.63095 9.53462 9.63095 10.4371C9.63095 11.3401 10.2932 12.2124 10.3859 12.3348C10.4781 12.4567 11.6649 14.3697 13.5441 15.1047C15.4244 15.8392 15.4244 15.5944 15.7635 15.5632C16.102 15.5329 16.857 15.1196 17.0117 14.6909C17.1653 14.2627 17.1653 13.8949 17.1192 13.8186Z" fill="white"/>
</svg>
