<svg width="98" height="20" viewBox="0 0 98 20" fill="none" xmlns="http://www.w3.org/2000/svg">
<g clip-path="url(#clip0_524_1052)">
<path d="M18.6667 9.33333C18.6667 4.17868 14.488 0 9.33333 0C4.17868 0 0 4.17868 0 9.33333C0 14.488 4.17868 18.6667 9.33333 18.6667C14.488 18.6667 18.6667 14.488 18.6667 9.33333Z" fill="black"/>
<path d="M10.5286 5.28797H9.66656C8.08589 5.28797 7.25389 6.08864 7.25389 7.26931C7.25389 8.60397 7.82856 9.23064 9.00922 10.0313L9.98456 10.688L7.18189 14.8766H5.08789L7.60322 11.13C6.15522 10.0926 5.34456 9.08664 5.34456 7.38264C5.34456 5.24731 6.83322 3.78931 9.65656 3.78931H12.4592V14.8666H10.5286V5.28797Z" fill="white"/>
<path d="M44.8973 16.8393C45.1233 16.9206 45.5139 17.0433 46.0699 17.0433C48.0033 17.0433 48.7853 15.7173 49.8759 13.0873L54.2172 2.66663H51.8919L48.9499 10.1713L45.9053 2.66663H43.3333L47.6953 13.1073C47.2626 14.1473 46.8306 14.8606 45.8433 14.8606C45.3906 14.8606 45.1033 14.8 44.8966 14.7186V16.8386L44.8973 16.8393ZM57.9433 17.0433C59.0746 17.0433 59.8766 16.8393 60.4739 16.4106V14.4333C59.8566 14.862 59.1159 15.1266 58.0872 15.1266C56.3379 15.1266 55.6179 13.7813 55.6179 11.66C55.6179 9.43729 56.5026 8.29529 58.1079 8.29529C59.0546 8.29529 59.9799 8.62196 60.4739 8.92796V6.86663C59.9593 6.58129 59.0539 6.37729 57.8406 6.37729C54.7133 6.37729 53.0872 8.59996 53.0872 11.72C53.0872 15.146 54.6719 17.0426 57.9433 17.0426V17.0433ZM61.1953 14.7386V16.8386C61.1953 16.8386 61.5859 17.0433 62.1619 17.0433C64.2606 17.0433 64.7953 15.5746 64.9193 12.17L65.0633 8.49863H67.5526V16.8386H70.0006V6.58263H62.9853L62.7793 12.068C62.6973 14.25 62.5526 14.9233 61.7506 14.9233C61.4006 14.9233 61.1953 14.7386 61.1953 14.7386ZM73.3806 20C75.6646 20 76.5079 18.3893 77.2079 16.2886L80.4379 6.58196H78.0719L75.7879 14.29L73.5046 6.58196H70.9326L74.4919 17.288C74.2246 17.7773 73.8333 18.0833 73.1546 18.0833C72.7019 18.0833 72.3113 17.9406 72.0433 17.6753V19.6533C72.0433 19.6533 72.4139 20 73.3806 20ZM81.3666 6.58196V16.8393H83.8153V8.49929H87.6006V6.58129H81.3666V6.58196ZM89.0419 6.58196V16.8393H91.1613L94.9466 10.4973V16.8393H97.3333V6.58196H95.2139L91.4286 12.924V6.58196H89.0419Z" fill="black"/>
<path d="M29.3333 18.6667C34.488 18.6667 38.6667 14.488 38.6667 9.33333C38.6667 4.17868 34.488 0 29.3333 0C24.1787 0 20 4.17868 20 9.33333C20 14.488 24.1787 18.6667 29.3333 18.6667Z" fill="#242729"/>
<path d="M26.5106 3.26535C25.4973 3.93734 24.7883 4.98021 24.536 6.16961C24.2838 7.35901 24.5085 8.59991 25.1617 9.62535C25.815 10.6508 26.8447 11.3788 28.0293 11.6529C29.2139 11.9269 30.4587 11.725 31.4959 11.0907L38.3053 6.75268C37.8375 5.13218 36.9401 3.66839 35.7082 2.51644C34.4762 1.3645 32.9555 0.567304 31.3072 0.209351L26.5106 3.26535Z" fill="#FF9D7C"/>
<path d="M26.5106 3.26535C25.4973 3.93734 24.7883 4.98021 24.536 6.16961C24.2838 7.35901 24.5085 8.59991 25.1617 9.62535C25.815 10.6508 26.8447 11.3788 28.0293 11.6529C29.2139 11.9269 30.4587 11.725 31.4959 11.0907L38.3053 6.75268C37.8375 5.13218 36.9401 3.66839 35.7082 2.51644C34.4762 1.3645 32.9555 0.567304 31.3072 0.209351L26.5106 3.26535Z" fill="#FF6432"/>
<path d="M26.5106 3.26535C25.4973 3.93734 24.7883 4.98021 24.536 6.16961C24.2838 7.35901 24.5085 8.59991 25.1617 9.62535C25.815 10.6508 26.8447 11.3788 28.0293 11.6529C29.2139 11.9269 30.4587 11.725 31.4959 11.0907L38.3053 6.75268C37.8375 5.13218 36.9401 3.66839 35.7082 2.51644C34.4762 1.3645 32.9555 0.567304 31.3072 0.209351L26.5106 3.26535Z" fill="url(#paint0_radial_524_1052)"/>
<path d="M26.5106 3.26535C25.4973 3.93734 24.7883 4.98021 24.536 6.16961C24.2838 7.35901 24.5085 8.59991 25.1617 9.62535C25.815 10.6508 26.8447 11.3788 28.0293 11.6529C29.2139 11.9269 30.4587 11.725 31.4959 11.0907L38.3053 6.75268C37.8375 5.13218 36.9401 3.66839 35.7082 2.51644C34.4762 1.3645 32.9555 0.567304 31.3072 0.209351L26.5106 3.26535Z" fill="url(#paint1_linear_524_1052)"/>
<path d="M20.3601 11.9093L27.1721 7.56927C27.686 7.24193 28.2593 7.01901 28.8593 6.91323C29.4593 6.80745 30.0743 6.82089 30.6691 6.95278C31.2639 7.08467 31.8269 7.33243 32.326 7.68191C32.8251 8.03139 33.2504 8.47574 33.5778 8.98961C33.9051 9.50347 34.128 10.0768 34.2338 10.6768C34.3396 11.2768 34.3262 11.8918 34.1943 12.4866C34.0624 13.0814 33.8146 13.6444 33.4651 14.1435C33.1157 14.6426 32.6713 15.0679 32.1574 15.3953L27.3528 18.4559C25.7051 18.0968 24.1853 17.2988 22.9543 16.1463C21.7232 14.9937 20.8269 13.5297 20.3601 11.9093Z" fill="#FFE66E"/>
<path d="M20.3601 11.9093L27.1721 7.56927C27.686 7.24193 28.2593 7.01901 28.8593 6.91323C29.4593 6.80745 30.0743 6.82089 30.6691 6.95278C31.2639 7.08467 31.8269 7.33243 32.326 7.68191C32.8251 8.03139 33.2504 8.47574 33.5778 8.98961C33.9051 9.50347 34.128 10.0768 34.2338 10.6768C34.3396 11.2768 34.3262 11.8918 34.1943 12.4866C34.0624 13.0814 33.8146 13.6444 33.4651 14.1435C33.1157 14.6426 32.6713 15.0679 32.1574 15.3953L27.3528 18.4559C25.7051 18.0968 24.1853 17.2988 22.9543 16.1463C21.7232 14.9937 20.8269 13.5297 20.3601 11.9093Z" fill="url(#paint2_linear_524_1052)"/>
</g>
<defs>
<radialGradient id="paint0_radial_524_1052" cx="0" cy="0" r="1" gradientUnits="userSpaceOnUse" gradientTransform="translate(27.1879 13.004) rotate(-34.8829) scale(11.176 8.22467)">
<stop stop-color="#CC0700" stop-opacity="0.97"/>
<stop offset="0.067" stop-color="#CC0700" stop-opacity="0.962"/>
<stop offset="0.133" stop-color="#CC0700" stop-opacity="0.936"/>
<stop offset="0.2" stop-color="#CC0700" stop-opacity="0.891"/>
<stop offset="0.267" stop-color="#CC0700" stop-opacity="0.827"/>
<stop offset="0.333" stop-color="#CC0700" stop-opacity="0.745"/>
<stop offset="0.4" stop-color="#CC0700" stop-opacity="0.648"/>
<stop offset="0.467" stop-color="#CC0700" stop-opacity="0.541"/>
<stop offset="0.533" stop-color="#CC0700" stop-opacity="0.429"/>
<stop offset="0.6" stop-color="#CC0700" stop-opacity="0.322"/>
<stop offset="0.667" stop-color="#CC0700" stop-opacity="0.225"/>
<stop offset="0.733" stop-color="#CC0700" stop-opacity="0.143"/>
<stop offset="0.8" stop-color="#CC0700" stop-opacity="0.079"/>
<stop offset="0.867" stop-color="#CC0700" stop-opacity="0.034"/>
<stop offset="0.933" stop-color="#CC0700" stop-opacity="0.01"/>
<stop offset="1" stop-color="#CC0700" stop-opacity="0"/>
</radialGradient>
<linearGradient id="paint1_linear_524_1052" x1="27.7873" y1="10.6014" x2="34.2606" y2="-5.02332" gradientUnits="userSpaceOnUse">
<stop stop-color="#FF8140" stop-opacity="0"/>
<stop offset="0.067" stop-color="#FF8140" stop-opacity="0.01"/>
<stop offset="0.133" stop-color="#FF8140" stop-opacity="0.036"/>
<stop offset="0.2" stop-color="#FF8140" stop-opacity="0.082"/>
<stop offset="0.267" stop-color="#FF8140" stop-opacity="0.147"/>
<stop offset="0.333" stop-color="#FF8140" stop-opacity="0.232"/>
<stop offset="0.4" stop-color="#FF8140" stop-opacity="0.332"/>
<stop offset="0.467" stop-color="#FF8140" stop-opacity="0.443"/>
<stop offset="0.533" stop-color="#FF8140" stop-opacity="0.557"/>
<stop offset="0.6" stop-color="#FF8140" stop-opacity="0.668"/>
<stop offset="0.667" stop-color="#FF8140" stop-opacity="0.768"/>
<stop offset="0.733" stop-color="#FF8140" stop-opacity="0.853"/>
<stop offset="0.8" stop-color="#FF8140" stop-opacity="0.918"/>
<stop offset="0.867" stop-color="#FF8140" stop-opacity="0.964"/>
<stop offset="0.933" stop-color="#FF8140" stop-opacity="0.991"/>
<stop offset="1" stop-color="#FF8140"/>
</linearGradient>
<linearGradient id="paint2_linear_524_1052" x1="28.0654" y1="10.5766" x2="21.9134" y2="19.3606" gradientUnits="userSpaceOnUse">
<stop stop-color="#FFD750" stop-opacity="0"/>
<stop offset="1" stop-color="#FFD750"/>
</linearGradient>
<clipPath id="clip0_524_1052">
<rect width="98" height="20" fill="white"/>
</clipPath>
</defs>
</svg>
