<svg width="19" height="19" viewBox="0 0 19 19" fill="none" xmlns="http://www.w3.org/2000/svg">
<path d="M18.6667 9.33333C18.6667 4.17868 14.488 0 9.33333 0C4.17868 0 0 4.17868 0 9.33333C0 14.488 4.17868 18.6667 9.33333 18.6667C14.488 18.6667 18.6667 14.488 18.6667 9.33333Z" fill="black"/>
<path d="M10.5286 5.28797H9.66656C8.08589 5.28797 7.25389 6.08864 7.25389 7.26931C7.25389 8.60397 7.82856 9.23064 9.00922 10.0313L9.98456 10.688L7.18189 14.8766H5.08789L7.60322 11.13C6.15522 10.0926 5.34456 9.08664 5.34456 7.38264C5.34456 5.24731 6.83322 3.78931 9.65656 3.78931H12.4592V14.8666H10.5286V5.28797Z" fill="white"/>
</svg>
