<svg width="98" height="20" viewBox="0 0 98 20" fill="none" xmlns="http://www.w3.org/2000/svg">
<g clip-path="url(#clip0_524_1043)">
<path fill-rule="evenodd" clip-rule="evenodd" d="M19.4765 9.7869C19.4765 4.38145 15.1165 0 9.73788 0C4.35928 0 -0.000732422 4.38173 -0.000732422 9.7869C-0.000732422 15.1921 4.35942 19.5745 9.73788 19.5745C15.1163 19.5745 19.4765 15.1925 19.4765 9.7869Z" fill="#FC3F1D"/>
<path fill-rule="evenodd" clip-rule="evenodd" d="M11.0369 5.54598H10.1442C8.48057 5.54598 7.62829 6.40227 7.62829 7.62604C7.62829 9.01263 8.23693 9.66497 9.45443 10.5211L10.4689 11.2147L7.54735 15.6189H5.3562L7.99357 11.7038C6.492 10.6029 5.64013 9.54243 5.64013 7.78886C5.64013 5.54598 7.18207 4.03699 10.1442 4.03699H13.0657V15.6599H11.0369V5.54598Z" fill="white"/>
<path fill-rule="evenodd" clip-rule="evenodd" d="M30.776 0.0183105C26.4576 0.0183105 22.9573 3.53623 22.9573 7.87634C22.9573 10.0454 23.832 12.0096 25.246 13.4317C26.661 14.8543 29.9939 16.913 30.1894 19.0742C30.219 19.3984 30.4525 19.6637 30.776 19.6637C31.0996 19.6637 31.333 19.3984 31.3626 19.0742C31.5581 16.913 34.891 14.8543 36.306 13.4317C37.7201 12.0096 38.5947 10.0454 38.5947 7.87634C38.5947 3.53623 35.0943 0.0183105 30.776 0.0183105Z" fill="#FF4433"/>
<path fill-rule="evenodd" clip-rule="evenodd" d="M30.776 10.6272C32.2875 10.6272 33.5124 9.39568 33.5124 7.87704C33.5124 6.35791 32.2875 5.12634 30.776 5.12634C29.2645 5.12634 28.0396 6.35791 28.0396 7.87704C28.0396 9.39568 29.2645 10.6272 30.776 10.6272Z" fill="white"/>
<path fill-rule="evenodd" clip-rule="evenodd" d="M90.2032 14.9417H89.0395V11.5274H90.263C91.3398 11.5274 91.9715 12.0153 91.9715 13.2447C91.9715 14.4741 91.2732 14.9417 90.2032 14.9417ZM95.4885 6.27596V16.933H98.0014V6.27596H95.4885ZM86.5331 6.27596V16.933H90.3493C92.8159 16.933 94.5642 15.6635 94.5642 13.1578C94.5642 10.7856 93.0021 9.53653 90.3891 9.53653H89.0394V6.2756L86.5331 6.27596ZM85.0572 8.26702V6.27596H76.6472V8.26702H79.5992V16.9335H82.1056V8.26702H85.0572ZM71.4682 15.1495C70.1385 15.1495 69.4607 14.0736 69.4607 11.6146C69.4607 9.13587 70.1785 8.06002 71.5946 8.06002C72.964 8.06002 73.6357 9.13587 73.6357 11.5947C73.6357 14.0736 72.9177 15.1495 71.4682 15.1495ZM69.2745 6.27596H66.9541V20H69.4607V15.6835C70.0989 16.6324 71.0227 17.1403 72.1 17.1403C74.54 17.1403 76.2285 15.1758 76.2285 11.5945C76.2285 8.03286 74.5863 6.06875 72.226 6.06875C71.043 6.06875 70.0721 6.61649 69.4008 7.65212L69.2745 6.27596ZM62.4267 14.3879C62.1075 14.8554 61.5158 15.2364 60.6316 15.2364C59.5811 15.2364 59.0493 14.6417 59.0493 13.7329C59.0493 12.5236 59.9137 12.0826 62.0677 12.0826H62.4267V14.3879ZM64.933 9.66375C64.933 7.08467 63.6232 6.10895 60.9706 6.10895C59.3085 6.10895 57.999 6.63698 57.2408 7.08467V9.18267C57.9124 8.66833 59.3883 8.1203 60.678 8.1203C61.8748 8.1203 62.4267 8.54125 62.4267 9.69049V10.2784H62.021C58.1849 10.2784 56.483 11.5547 56.483 13.713C56.483 15.8712 57.786 17.0807 59.7275 17.0807C61.2032 17.0807 61.8348 16.593 62.3201 16.0851H62.4267C62.4464 16.3588 62.5329 16.7197 62.6129 16.9335H65.0592C64.9728 16.0649 64.933 15.1964 64.933 14.3277V9.66375ZM53.405 16.9339H56.377L51.1713 9.20281L55.8916 2.21362H53.2986L48.7646 8.98893V2.21362H46.2183V16.9333H48.7646V10.0244L53.405 16.9339Z" fill="black"/>
</g>
<defs>
<clipPath id="clip0_524_1043">
<rect width="98" height="20" fill="white"/>
</clipPath>
</defs>
</svg>
