<svg width="52" height="18" viewBox="0 0 52 18" fill="none" xmlns="http://www.w3.org/2000/svg">
<path fill-rule="evenodd" clip-rule="evenodd" d="M44.2032 12.9417H43.0395V9.52738H44.263C45.3398 9.52738 45.9715 10.0153 45.9715 11.2447C45.9715 12.4741 45.2732 12.9417 44.2032 12.9417ZM49.4885 4.27596V14.933H52.0014V4.27596H49.4885ZM40.5331 4.27596V14.933H44.3493C46.8159 14.933 48.5642 13.6635 48.5642 11.1578C48.5642 8.78562 47.0021 7.53653 44.3891 7.53653H43.0394V4.2756L40.5331 4.27596ZM39.0572 6.26702V4.27596H30.6472V6.26702H33.5992V14.9335H36.1056V6.26702H39.0572ZM25.4682 13.1495C24.1385 13.1495 23.4607 12.0736 23.4607 9.61461C23.4607 7.13587 24.1785 6.06002 25.5946 6.06002C26.964 6.06002 27.6357 7.13587 27.6357 9.59468C27.6357 12.0736 26.9177 13.1495 25.4682 13.1495ZM23.2745 4.27596H20.9541V18H23.4607V13.6835C24.0989 14.6324 25.0227 15.1403 26.1 15.1403C28.54 15.1403 30.2285 13.1758 30.2285 9.59447C30.2285 6.03286 28.5863 4.06875 26.226 4.06875C25.043 4.06875 24.0721 4.61649 23.4008 5.65212L23.2745 4.27596ZM16.4267 12.3879C16.1075 12.8554 15.5158 13.2364 14.6316 13.2364C13.5811 13.2364 13.0493 12.6417 13.0493 11.7329C13.0493 10.5236 13.9137 10.0826 16.0677 10.0826H16.4267V12.3879ZM18.933 7.66375C18.933 5.08467 17.6232 4.10895 14.9706 4.10895C13.3085 4.10895 11.999 4.63698 11.2408 5.08467V7.18267C11.9124 6.66833 13.3883 6.1203 14.678 6.1203C15.8748 6.1203 16.4267 6.54125 16.4267 7.69049V8.27844H16.021C12.1849 8.27844 10.483 9.55469 10.483 11.713C10.483 13.8712 11.786 15.0807 13.7275 15.0807C15.2032 15.0807 15.8348 14.593 16.3201 14.0851H16.4267C16.4464 14.3588 16.5329 14.7197 16.6129 14.9335H19.0592C18.9728 14.0649 18.933 13.1964 18.933 12.3277V7.66375ZM7.40502 14.9339H10.377L5.17132 7.20281L9.8916 0.213623H7.29862L2.76461 6.98893V0.213623H0.218262V14.9333H2.76461V8.02435L7.40502 14.9339Z" fill="black"/>
</svg>
