<svg width="55" height="18" viewBox="0 0 55 18" fill="none" xmlns="http://www.w3.org/2000/svg">
<path d="M1.89725 14.8393C2.12325 14.9206 2.51392 15.0433 3.06992 15.0433C5.00325 15.0433 5.78525 13.7173 6.87592 11.0873L11.2172 0.666626H8.89192L5.94992 8.17129L2.90525 0.666626H0.333252L4.69525 11.1073C4.26258 12.1473 3.83059 12.8606 2.84325 12.8606C2.39058 12.8606 2.10325 12.8 1.89659 12.7186V14.8386L1.89725 14.8393ZM14.9433 15.0433C16.0746 15.0433 16.8766 14.8393 17.4739 14.4106V12.4333C16.8566 12.862 16.1159 13.1266 15.0872 13.1266C13.3379 13.1266 12.6179 11.7813 12.6179 9.65996C12.6179 7.43729 13.5026 6.29529 15.1079 6.29529C16.0546 6.29529 16.9799 6.62196 17.4739 6.92796V4.86663C16.9593 4.58129 16.0539 4.37729 14.8406 4.37729C11.7133 4.37729 10.0872 6.59996 10.0872 9.71996C10.0872 13.146 11.6719 15.0426 14.9433 15.0426V15.0433ZM18.1953 12.7386V14.8386C18.1953 14.8386 18.5859 15.0433 19.1619 15.0433C21.2606 15.0433 21.7953 13.5746 21.9193 10.17L22.0633 6.49863H24.5526V14.8386H27.0006V4.58263H19.9853L19.7793 10.068C19.6973 12.25 19.5526 12.9233 18.7506 12.9233C18.4006 12.9233 18.1953 12.7386 18.1953 12.7386ZM30.3806 18C32.6646 18 33.5079 16.3893 34.2079 14.2886L37.4379 4.58196H35.0719L32.7879 12.29L30.5046 4.58196H27.9326L31.4919 15.288C31.2246 15.7773 30.8333 16.0833 30.1546 16.0833C29.7019 16.0833 29.3113 15.9406 29.0433 15.6753V17.6533C29.0433 17.6533 29.4139 18 30.3806 18ZM38.3666 4.58196V14.8393H40.8153V6.49929H44.6006V4.58129H38.3666V4.58196ZM46.0419 4.58196V14.8393H48.1613L51.9466 8.49729V14.8393H54.3333V4.58196H52.2139L48.4286 10.924V4.58196H46.0419Z" fill="black"/>
</svg>
