<svg width="20" height="20" viewBox="0 0 20 20" fill="none" xmlns="http://www.w3.org/2000/svg">
<path fill-rule="evenodd" clip-rule="evenodd" d="M19.4765 9.7869C19.4765 4.38145 15.1165 0 9.73788 0C4.35928 0 -0.000732422 4.38173 -0.000732422 9.7869C-0.000732422 15.1921 4.35942 19.5745 9.73788 19.5745C15.1163 19.5745 19.4765 15.1925 19.4765 9.7869Z" fill="#FC3F1D"/>
<path fill-rule="evenodd" clip-rule="evenodd" d="M11.0369 5.54598H10.1442C8.48057 5.54598 7.62829 6.40227 7.62829 7.62604C7.62829 9.01263 8.23693 9.66497 9.45443 10.5211L10.4689 11.2147L7.54735 15.6189H5.3562L7.99357 11.7038C6.492 10.6029 5.64013 9.54243 5.64013 7.78886C5.64013 5.54598 7.18207 4.03699 10.1442 4.03699H13.0657V15.6599H11.0369V5.54598Z" fill="white"/>
</svg>
