<svg width="30" height="30" viewBox="0 0 30 30" fill="none" xmlns="http://www.w3.org/2000/svg">
<path d="M15 30C23.2843 30 30 23.2843 30 15C30 6.71573 23.2843 0 15 0C6.71573 0 0 6.71573 0 15C0 23.2843 6.71573 30 15 30Z" fill="#FE3432"/>
<path d="M24.1869 11.0906C24.1869 11.0906 24.0037 9.7425 23.4425 9.14937C22.7294 8.37187 21.93 8.36687 21.565 8.32187C18.9394 8.125 15.005 8.125 15.005 8.125H14.9963C14.9963 8.125 11.0594 8.125 8.43625 8.3225C8.07 8.36687 7.27187 8.37188 6.5575 9.15C5.99625 9.74313 5.81312 11.0913 5.81312 11.0913C5.81312 11.0913 5.625 12.6725 5.625 14.255V15.7375C5.625 17.3206 5.81312 18.9031 5.81312 18.9031C5.81312 18.9031 5.99625 20.25 6.5575 20.8431C7.27187 21.6219 8.20937 21.5969 8.62562 21.6781C10.1256 21.8281 15 21.875 15 21.875C15 21.875 18.9394 21.8675 21.565 21.6712C21.93 21.6256 22.7294 21.6219 23.4425 20.8425C24.0037 20.2494 24.1869 18.9025 24.1869 18.9025C24.1869 18.9025 24.375 17.3206 24.375 15.7375V14.255C24.375 12.6725 24.1869 11.0906 24.1869 11.0906ZM13.065 17.5363L13.0638 12.0431L18.1294 14.8L13.065 17.5363Z" fill="white"/>
<path d="M15 30C23.2843 30 30 23.2843 30 15C30 6.71573 23.2843 0 15 0C6.71573 0 0 6.71573 0 15C0 23.2843 6.71573 30 15 30Z" fill="#FE3432"/>
<path d="M24.1869 11.0906C24.1869 11.0906 24.0037 9.7425 23.4425 9.14937C22.7294 8.37187 21.93 8.36687 21.565 8.32187C18.9394 8.125 15.005 8.125 15.005 8.125H14.9963C14.9963 8.125 11.0594 8.125 8.43625 8.3225C8.07 8.36687 7.27187 8.37188 6.5575 9.15C5.99625 9.74313 5.81312 11.0913 5.81312 11.0913C5.81312 11.0913 5.625 12.6725 5.625 14.255V15.7375C5.625 17.3206 5.81312 18.9031 5.81312 18.9031C5.81312 18.9031 5.99625 20.25 6.5575 20.8431C7.27187 21.6219 8.20937 21.5969 8.62562 21.6781C10.1256 21.8281 15 21.875 15 21.875C15 21.875 18.9394 21.8675 21.565 21.6712C21.93 21.6256 22.7294 21.6219 23.4425 20.8425C24.0037 20.2494 24.1869 18.9025 24.1869 18.9025C24.1869 18.9025 24.375 17.3206 24.375 15.7375V14.255C24.375 12.6725 24.1869 11.0906 24.1869 11.0906ZM13.065 17.5363L13.0638 12.0431L18.1294 14.8L13.065 17.5363Z" fill="white"/>
<path d="M15 30C23.2843 30 30 23.2843 30 15C30 6.71573 23.2843 0 15 0C6.71573 0 0 6.71573 0 15C0 23.2843 6.71573 30 15 30Z" fill="#FE3432"/>
<path d="M24.1869 11.0906C24.1869 11.0906 24.0037 9.7425 23.4425 9.14937C22.7294 8.37187 21.93 8.36687 21.565 8.32187C18.9394 8.125 15.005 8.125 15.005 8.125H14.9963C14.9963 8.125 11.0594 8.125 8.43625 8.3225C8.07 8.36687 7.27187 8.37188 6.5575 9.15C5.99625 9.74313 5.81312 11.0913 5.81312 11.0913C5.81312 11.0913 5.625 12.6725 5.625 14.255V15.7375C5.625 17.3206 5.81312 18.9031 5.81312 18.9031C5.81312 18.9031 5.99625 20.25 6.5575 20.8431C7.27187 21.6219 8.20937 21.5969 8.62562 21.6781C10.1256 21.8281 15 21.875 15 21.875C15 21.875 18.9394 21.8675 21.565 21.6712C21.93 21.6256 22.7294 21.6219 23.4425 20.8425C24.0037 20.2494 24.1869 18.9025 24.1869 18.9025C24.1869 18.9025 24.375 17.3206 24.375 15.7375V14.255C24.375 12.6725 24.1869 11.0906 24.1869 11.0906ZM13.065 17.5363L13.0638 12.0431L18.1294 14.8L13.065 17.5363Z" fill="white"/>
</svg>
